<svg width="24" height="24" viewBox="0 0 24 24" fill="none" xmlns="http://www.w3.org/2000/svg">
<path d="M9.90476 7.25C9.49055 7.25 9.15476 7.58579 9.15476 8C9.15476 8.41421 9.49055 8.75 9.90476 8.75V7.25ZM16 8H16.75C16.75 7.58579 16.4142 7.25 16 7.25V8ZM15.25 14.123C15.25 14.5372 15.5858 14.873 16 14.873C16.4142 14.873 16.75 14.5372 16.75 14.123H15.25ZM7.46847 15.4709C7.17624 15.7644 7.17732 16.2393 7.47088 16.5315C7.76443 16.8238 8.23931 16.8227 8.53153 16.5291L7.46847 15.4709ZM16.074 8.9523C16.3662 8.65874 16.3652 8.18387 16.0716 7.89164C15.778 7.59941 15.3032 7.60049 15.0109 7.89405L16.074 8.9523ZM9.90476 8.75H16V7.25H9.90476V8.75ZM15.25 8V14.123H16.75V8H15.25ZM8.53153 16.5291L16.074 8.9523L15.0109 7.89405L7.46847 15.4709L8.53153 16.5291Z" fill="white" fill-opacity="0.35"/>
</svg>
