<svg width="24" height="25" viewBox="0 0 24 25" fill="none" xmlns="http://www.w3.org/2000/svg">
<path d="M19 12.5L19.5457 13.0145C19.8181 12.7256 19.8181 12.2744 19.5457 11.9855L19 12.5ZM13.8889 5.9855C13.6047 5.68412 13.13 5.67015 12.8287 5.95429C12.5273 6.23844 12.5133 6.71311 12.7974 7.0145L13.8889 5.9855ZM12.7974 17.9855C12.5133 18.2869 12.5273 18.7616 12.8287 19.0457C13.13 19.3299 13.6047 19.3159 13.8889 19.0145L12.7974 17.9855ZM5 11.75C4.58579 11.75 4.25 12.0858 4.25 12.5C4.25 12.9142 4.58579 13.25 5 13.25V11.75ZM19.5457 11.9855L13.8889 5.9855L12.7974 7.0145L18.4543 13.0145L19.5457 11.9855ZM13.8889 19.0145L19.5457 13.0145L18.4543 11.9855L12.7974 17.9855L13.8889 19.0145ZM19 11.75H5V13.25H19V11.75Z" fill="url(#paint0_linear_5652_9692)"/>
<defs>
<linearGradient id="paint0_linear_5652_9692" x1="5" y1="12.5" x2="19" y2="12.5" gradientUnits="userSpaceOnUse">
<stop stop-color="#FFA620"/>
<stop offset="1" stop-color="#EF5B25"/>
</linearGradient>
</defs>
</svg>
