<svg width="357" height="600" viewBox="0 0 357 600" fill="none" xmlns="http://www.w3.org/2000/svg">
<g clip-path="url(#clip0_1891_7726)">
<rect width="357" height="600" fill="url(#paint0_linear_1891_7726)"/>
<g style="mix-blend-mode:overlay" opacity="0.1">
<path d="M251.591 -728.839H550.536C552.321 -728.877 554.093 -728.231 555.748 -726.937C557.403 -725.644 558.909 -723.729 560.179 -721.303C561.448 -718.878 562.456 -715.989 563.144 -712.806C563.832 -709.623 564.186 -706.208 564.186 -702.758V-397.616C564.186 -394.167 563.832 -390.752 563.144 -387.568C562.456 -384.385 561.448 -381.497 560.179 -379.071C558.909 -376.646 557.403 -374.731 555.748 -373.437C554.093 -372.144 552.321 -371.497 550.536 -371.536H490.537C488.752 -371.536 486.984 -370.852 485.336 -369.523C483.688 -368.194 482.193 -366.247 480.938 -363.795C479.682 -361.342 478.691 -358.433 478.022 -355.235C477.352 -352.037 477.017 -348.615 477.037 -345.165V-211.575C477.037 225.128 448.388 387.407 353.289 580.113C273.041 742.682 67.0942 772.819 -137.202 775.717C-140.837 775.717 -144.324 772.948 -146.908 768.011C-149.491 763.074 -150.963 756.367 -151.002 749.347V633.143C-151.046 626.497 -149.76 620.075 -147.413 615.216C-145.065 610.356 -141.838 607.436 -138.402 607.063C-93.4032 602.426 71.594 625.03 156.643 462.171C256.391 269.175 238.391 -23.216 238.391 -294.164V-702.758C238.39 -709.576 239.771 -716.123 242.239 -720.998C244.706 -725.873 248.063 -728.687 251.591 -728.839Z" fill="white"/>
</g>
<g style="mix-blend-mode:overlay" opacity="0.1">
<path opacity="0.8" d="M168.836 -546.984H431.386C432.954 -547.015 434.51 -546.483 435.964 -545.417C437.417 -544.352 438.74 -542.775 439.855 -540.777C440.97 -538.779 441.855 -536.401 442.459 -533.779C443.063 -531.157 443.374 -528.344 443.374 -525.503V-274.181C443.374 -271.34 443.063 -268.527 442.459 -265.906C441.855 -263.284 440.97 -260.905 439.855 -258.907C438.74 -256.91 437.417 -255.332 435.964 -254.267C434.51 -253.202 432.954 -252.669 431.386 -252.701H378.692C377.123 -252.701 375.571 -252.138 374.124 -251.043C372.677 -249.949 371.364 -248.345 370.261 -246.325C369.158 -244.305 368.288 -241.909 367.7 -239.275C367.112 -236.642 366.818 -233.823 366.835 -230.982V-120.954C366.835 238.725 341.674 372.381 258.153 531.098C187.675 664.993 6.80141 689.815 -172.623 692.202C-175.814 692.202 -178.877 689.921 -181.147 685.855C-183.416 681.789 -184.708 676.265 -184.742 670.482V574.775C-184.781 569.301 -183.652 564.011 -181.59 560.009C-179.528 556.007 -176.694 553.602 -173.677 553.295C-134.156 549.476 10.7534 568.092 85.4476 433.958C173.052 275.003 157.244 34.1829 157.244 -188.976V-525.503C157.243 -531.118 158.456 -536.511 160.623 -540.526C162.789 -544.541 165.738 -546.859 168.836 -546.984Z" fill="white"/>
</g>
<g style="mix-blend-mode:overlay">
<ellipse cx="-178.219" cy="-79.6277" rx="647.894" ry="533.555" fill="url(#paint1_radial_1891_7726)"/>
</g>
<g style="mix-blend-mode:overlay">
<ellipse cx="385.058" cy="666.878" rx="412.058" ry="367.412" fill="url(#paint2_radial_1891_7726)"/>
</g>
</g>
<defs>
<linearGradient id="paint0_linear_1891_7726" x1="178.5" y1="0" x2="178.5" y2="600" gradientUnits="userSpaceOnUse">
<stop stop-color="#333C62"/>
<stop offset="1" stop-color="#25283D"/>
</linearGradient>
<radialGradient id="paint1_radial_1891_7726" cx="0" cy="0" r="1" gradientUnits="userSpaceOnUse" gradientTransform="translate(-178.219 -79.6277) rotate(90) scale(533.555 647.894)">
<stop stop-color="#7C81B5"/>
<stop offset="1" stop-color="#7C81B5" stop-opacity="0"/>
</radialGradient>
<radialGradient id="paint2_radial_1891_7726" cx="0" cy="0" r="1" gradientUnits="userSpaceOnUse" gradientTransform="translate(385.058 666.878) rotate(90) scale(367.412 412.058)">
<stop stop-color="#B3B7E4"/>
<stop offset="1" stop-color="#B2B3BB" stop-opacity="0"/>
</radialGradient>
<clipPath id="clip0_1891_7726">
<rect width="357" height="600" fill="white"/>
</clipPath>
</defs>
</svg>
