<svg width="24" height="24" viewBox="0 0 24 24" fill="none" xmlns="http://www.w3.org/2000/svg">
<path d="M8.5 7.55556H8C6.34315 7.55556 5 8.8987 5 10.5556V17C5 18.6569 6.34315 20 8 20H12.5C14.1569 20 15.5 18.6569 15.5 17V16.4444M8.5 7.55556H12.5C14.1569 7.55556 15.5 8.8987 15.5 10.5556V16.4444M8.5 7.55556V7C8.5 5.34314 9.84315 4 11.5 4H16C17.6569 4 19 5.34315 19 7V13.4444C19 15.1013 17.6569 16.4444 16 16.4444H15.5" stroke="white" stroke-opacity="0.35" stroke-width="1.5" stroke-linejoin="round"/>
</svg>
