<svg width="16" height="17" viewBox="0 0 16 17" fill="none" xmlns="http://www.w3.org/2000/svg">
<path d="M5.66732 5.53834H5.33398C4.22941 5.53834 3.33398 6.43377 3.33398 7.53834V11.8346C3.33398 12.9392 4.22941 13.8346 5.33398 13.8346H8.33398C9.43855 13.8346 10.334 12.9392 10.334 11.8346V11.4643M5.66732 5.53834H8.33398C9.43855 5.53834 10.334 6.43377 10.334 7.53834V11.4643M5.66732 5.53834V5.16797C5.66732 4.0634 6.56275 3.16797 7.66732 3.16797H10.6673C11.7719 3.16797 12.6673 4.0634 12.6673 5.16797V9.46427C12.6673 10.5688 11.7719 11.4643 10.6673 11.4643H10.334" stroke="white" stroke-opacity="0.35" stroke-width="1.5" stroke-linejoin="round"/>
</svg>
