<svg width="34" height="28" viewBox="0 0 34 28" fill="none" xmlns="http://www.w3.org/2000/svg">
<path d="M1.24136 24.5553L1.66497 24.8209L1.24136 24.5553ZM32.7586 24.5553L33.1823 24.2897L32.7586 24.5553ZM18.4904 1.79971L18.0668 2.06532V2.06532L18.4904 1.79971ZM15.5096 1.79971L15.9332 2.06532L15.5096 1.79971ZM17.5 10.7781C17.5 10.5019 17.2761 10.2781 17 10.2781C16.7239 10.2781 16.5 10.5019 16.5 10.7781H17.5ZM16.5 15.6447C16.5 15.9208 16.7239 16.1447 17 16.1447C17.2761 16.1447 17.5 15.9208 17.5 15.6447H16.5ZM17.5 19.6875C17.5 19.4114 17.2761 19.1875 17 19.1875C16.7239 19.1875 16.5 19.4114 16.5 19.6875L17.5 19.6875ZM16.5 20.5112C16.5 20.7874 16.7239 21.0112 17 21.0112C17.2761 21.0112 17.5 20.7874 17.5 20.5112L16.5 20.5112ZM18.0668 2.06532L32.335 24.8209L33.1823 24.2897L18.914 1.53409L18.0668 2.06532ZM31.2682 26.5H2.73177V27.5H31.2682V26.5ZM1.66497 24.8209L15.9332 2.06532L15.086 1.53409L0.817746 24.2897L1.66497 24.8209ZM2.73177 26.5C1.72881 26.5 1.22615 25.5208 1.66497 24.8209L0.817746 24.2897C-0.0995554 25.7527 1.06003 27.5 2.73177 27.5V26.5ZM32.335 24.8209C32.7739 25.5208 32.2712 26.5 31.2682 26.5V27.5C32.94 27.5 34.0996 25.7527 33.1823 24.2897L32.335 24.8209ZM18.914 1.53409C18.0495 0.155302 15.9505 0.155303 15.086 1.53409L15.9332 2.06532C16.4058 1.31156 17.5942 1.31156 18.0668 2.06532L18.914 1.53409ZM16.5 10.7781V15.6447H17.5V10.7781H16.5ZM16.5 19.6875L16.5 20.5112L17.5 20.5112L17.5 19.6875L16.5 19.6875Z" fill="white" fill-opacity="0.35"/>
</svg>
