<svg width="111" height="84" viewBox="0 0 111 84" fill="none" xmlns="http://www.w3.org/2000/svg">
<g clip-path="url(#clip0_2998_10554)">
<path d="M102.028 75.8466C101.309 78.9911 100.689 80.9539 100.23 81.3144C97.3116 83.5376 15.7104 86.9024 10.714 79.2114C9.89462 77.9696 6.75688 74.2844 5.79757 70.5991C5.6177 69.9181 5.45782 69.2372 5.27795 68.5762C5.27795 68.5562 5.27795 68.5161 5.27795 68.4761C-3.5357 32.745 0.921088 6.2672 2.87968 5.426C16.8896 -0.682726 107.364 -1.70419 110.482 2.70211C112.96 6.46749 105.985 58.5819 102.008 75.8466H102.028Z" fill="url(#paint0_linear_2998_10554)"/>
<g style="mix-blend-mode:multiply" opacity="0.4">
<path d="M110.483 2.72126C109.923 -2.92681 103.148 23.2706 101.03 43.6798C99.4908 58.4409 99.231 79.0904 99.7306 80.1919C100.21 81.2935 112.921 26.9559 110.483 2.72126Z" fill="#C60055"/>
</g>
<g style="mix-blend-mode:multiply" opacity="0.4">
<path d="M102.027 75.847C101.308 78.9915 100.688 80.9543 100.228 81.3148C97.3106 83.538 15.7094 86.9028 10.713 79.2118C9.89356 77.97 6.0963 72.362 5.29688 68.6367C9.41391 77.6095 24.1633 84.4794 58.8383 83.2376C93.5333 82.0158 99.429 80.6939 102.027 75.847Z" fill="#C60055"/>
</g>
<g style="mix-blend-mode:multiply" opacity="0.4">
<path d="M2.88041 5.42652C2.32081 8.61107 27.1029 41.1976 43.7509 49.3693C60.3989 57.541 101.05 7.95012 110.483 2.72266C110.483 2.72266 110.823 3.04311 110.803 5.32638C110.783 7.58961 72.9299 35.87 65.935 43.6812C58.94 51.4923 94.6942 79.6325 100.23 81.3149C100.23 81.3149 98.9112 82.1161 98.1118 81.8557C97.3123 81.5953 69.1926 60.8457 61.8579 46.4051C61.8579 46.4051 54.0435 53.2548 49.4069 53.4952C44.7702 53.7355 39.6339 47.5066 38.4947 47.0059C38.4947 47.0059 15.891 67.7756 13.2929 80.1933C13.2929 80.1933 13.2929 81.1948 11.9938 79.0717C10.6948 76.9487 36.716 47.1661 36.716 46.6855C36.716 46.2048 10.7148 21.3493 2.88041 5.42652Z" fill="#C60055"/>
</g>
<g style="mix-blend-mode:multiply" opacity="0.4">
<path d="M41.0708 47.8858C41.0708 47.8858 47.0664 56.1176 49.9244 56.1176C55.1606 56.1176 61.3961 54.8157 78.1041 39.9144C108.062 13.1963 109.182 3.5625 109.182 3.5625C109.182 3.5625 99.1889 13.3565 83.1804 27.9774C67.1919 42.5983 54.9008 48.8472 51.4833 49.9488C48.0657 51.0503 41.0508 47.8858 41.0508 47.8858H41.0708Z" fill="#C60055"/>
</g>
<g style="mix-blend-mode:multiply" opacity="0.3">
<path d="M110.481 2.70211C110.022 2.54188 98.65 -1.76427 70.4303 2.70211C41.6111 7.28866 8.23515 0.999678 4.31797 6.52757C0.420779 12.0955 1.87973 18.2043 1.40007 30.8423C0.940404 42.8995 4.89755 66.333 5.25729 68.4761C-3.53637 32.745 0.920419 6.2672 2.87901 5.426C16.8889 -0.682726 107.364 -1.70419 110.481 2.70211Z" fill="#C60055"/>
</g>
<g style="mix-blend-mode:screen" opacity="0.3">
<path d="M7.11417 6.78873C5.11561 7.81019 16.8871 21.4497 27.6793 34.2279C38.4716 47.0062 57.238 45.8245 69.4492 37.6728C81.6604 29.5012 105.024 6.14781 103.884 3.56412C102.745 0.980431 74.8254 3.74438 52.2217 4.9461C29.6379 6.14781 10.3518 5.12635 7.09418 6.78873H7.11417Z" fill="#FFB64A"/>
</g>
<g style="mix-blend-mode:multiply" opacity="0.2">
<path d="M13.2734 80.1927C12.1343 77.4689 26.6238 60.2643 52.0255 60.785C77.4272 61.3058 95.3343 81.9152 95.3343 81.9152C95.3343 81.9152 42.5723 86.8823 13.2734 80.2128V80.1927Z" fill="#EB5694"/>
</g>
<g style="mix-blend-mode:multiply" opacity="0.4">
<path d="M81.2422 67.4141C81.2422 67.4141 86.9581 73.5228 91.6547 77.0879C96.3513 80.653 98.11 81.8547 98.11 81.8547C98.11 81.8547 100.089 82.6759 100.828 80.2123C101.568 77.7488 93.0137 77.9491 81.2422 67.4141Z" fill="#C60055"/>
</g>
<path d="M63.497 49.2291C61.8782 48.3078 68.3935 60.4852 77.8666 68.2362C87.3598 75.9873 95.334 80.2334 95.334 80.2334C95.334 80.2334 82.6432 67.4351 63.497 49.2491V49.2291Z" fill="#FFD8A7"/>
<path d="M13.9922 77.8079C13.9922 77.8079 28.9414 56.6577 38.4945 47.0039C38.4945 47.0039 19.6881 59.2013 13.9922 77.8079Z" fill="#FFD8A7"/>
<g style="mix-blend-mode:multiply" opacity="0.4">
<path d="M101.228 41.9979C99.6489 63.068 106.864 42.9793 109.082 30.842C111.3 18.7046 109.322 4.86486 109.182 3.563C109.042 2.26114 102.547 24.2526 101.228 41.9979Z" fill="#C60055"/>
</g>
<g style="mix-blend-mode:multiply" opacity="0.2">
<path d="M15.6688 43.482C15.7887 41.0986 18.7865 41.2989 19.2862 42.3804C19.7858 43.462 18.7466 45.7452 17.2277 46.1258C15.7088 46.4863 15.6088 44.6637 15.6688 43.502V43.482Z" fill="#C60055"/>
</g>
<g style="mix-blend-mode:multiply" opacity="0.2">
<path d="M85.5985 10.5132C85.7184 8.12983 88.7162 8.33012 89.2159 9.41167C89.7155 10.4932 88.6762 12.7765 87.1573 13.157C85.6384 13.5175 85.5385 11.6949 85.5985 10.5333V10.5132Z" fill="#C60055"/>
</g>
<g style="mix-blend-mode:multiply" opacity="0.2">
<path d="M14.5691 41.5581C16.3478 39.3951 14.1094 32.1848 9.093 32.5653C4.07662 32.9458 6.55483 40.2162 9.093 41.9187C11.6312 43.6411 13.5898 42.7198 14.5691 41.5581Z" fill="#C60055"/>
</g>
<path d="M49.487 50.1682C47.0488 49.8477 79.3056 31.4414 79.3056 31.4414C79.3056 31.4414 60.7989 48.0251 49.487 50.1682Z" fill="#FFC59F"/>
<g style="mix-blend-mode:multiply" opacity="0.4">
<path d="M2.87891 5.42578C2.87891 5.42578 5.45705 14.3385 14.7503 26.3357C24.0237 38.3328 41.0714 47.8864 41.0714 47.8864C41.0714 47.8864 13.2514 25.6347 2.87891 5.42578Z" fill="#C60055"/>
</g>
<path d="M40.8114 27.4964C33.0769 30.5407 30.0991 35.8683 28.9799 45.462C27.8607 55.0758 49.1853 67.4735 58.9983 59.1616C68.8112 50.8497 68.3515 38.1115 65.5136 31.2016C62.6756 24.2918 44.9084 25.874 40.8114 27.4964Z" fill="url(#paint1_linear_2998_10554)"/>
<g style="mix-blend-mode:multiply" opacity="0.8">
<path d="M60.9184 43.4594C60.9184 50.5496 55.1825 56.2978 48.1076 56.2978C41.0327 56.2978 35.2969 50.5496 35.2969 43.4594C35.2969 36.3693 41.0327 30.6211 48.1076 30.6211C55.1825 30.6211 60.9184 36.3693 60.9184 43.4594Z" fill="#D40055"/>
</g>
<path d="M49.7464 54.8961C55.8282 54.8961 60.7585 49.7759 60.7585 43.4598C60.7585 37.1437 55.8282 32.0234 49.7464 32.0234C43.6646 32.0234 38.7344 37.1437 38.7344 43.4598C38.7344 49.7759 43.6646 54.8961 49.7464 54.8961Z" fill="#F20041"/>
<g style="mix-blend-mode:multiply" opacity="0.8">
<path d="M29.8398 49.8082C29.8398 49.8082 36.2352 58.4606 48.1067 59.8826C59.9781 61.3047 64.7747 52.1115 66.1137 44.6208C67.4527 37.1301 63.8753 29.0586 63.8753 29.0586C63.8753 29.0586 66.0138 30.6609 66.4135 32.0228C66.8132 33.3848 67.8924 48.7067 68.2721 52.9127C68.6519 57.1187 62.0966 63.3275 50.8247 64.0486C39.5528 64.7496 32.0982 54.2145 29.8398 49.8082Z" fill="#C90055"/>
</g>
<g style="mix-blend-mode:multiply" opacity="0.5">
<path d="M35.395 41.8767C36.0145 48.5262 34.6155 46.2029 40.0117 38.0913C45.4078 29.9797 58.5783 36.9897 59.7374 38.0913C60.9166 39.1929 55.7403 28.8982 46.3471 30.6206C36.9539 32.323 35.375 41.8767 35.375 41.8767H35.395Z" fill="#A10055"/>
</g>
<g style="mix-blend-mode:screen" opacity="0.3">
<path d="M29.84 48.3053C30.8193 52.8118 35.4559 52.7517 36.4952 52.3912C37.5344 52.0307 33.0177 45.241 35.9356 37.5099C38.8535 29.7789 45.8884 27.2152 54.4422 30.6201C62.9961 34.0249 63.036 30.4598 62.2366 29.0578C61.4572 27.6558 45.8484 23.4298 37.5944 29.0578C29.3403 34.6859 29.2804 45.8418 29.82 48.3254L29.84 48.3053Z" fill="#FFB64A"/>
</g>
<g style="mix-blend-mode:screen" opacity="0.3">
<path d="M52.461 59.9031C50.1227 57.8201 59.1362 52.6928 62.134 46.564C65.1319 40.4353 64.6322 48.1463 62.8735 53.2336C61.1148 58.3208 52.461 59.9031 52.461 59.9031Z" fill="#FFB64A"/>
</g>
<path d="M50.4244 26.856C47.9462 27.4368 52.8626 30.9418 56.6199 30.361C60.3772 29.8002 55.7006 25.5942 50.4244 26.856Z" fill="white"/>
<path d="M52.6415 59.3033C51.4824 59.0429 55.0798 55.9985 56.099 56.339C57.1183 56.6795 55.3995 59.9642 52.6415 59.3033Z" fill="white"/>
<g style="mix-blend-mode:multiply" opacity="0.2">
<path d="M72.6285 52.9159C73.0482 57.2021 91.375 75.9088 96.3714 77.1305C101.368 78.3523 97.5306 43.7228 97.2907 34.2292C97.0509 24.7357 72.1289 47.7886 72.6285 52.9159Z" fill="#EB5694"/>
</g>
<g style="mix-blend-mode:multiply" opacity="0.2">
<path d="M77.8853 68.2362C71.9696 65.312 80.8032 75.0259 84.9802 78.7111C89.1572 82.4164 94.5133 81.6553 95.3527 81.395C96.2121 81.1546 84.4806 74.7254 77.8853 68.2161V68.2362Z" fill="#DC6A94"/>
</g>
<path d="M6.19809 8.65262C10.3551 15.1219 20.4278 8.5725 33.1387 6.54961C45.8495 4.52672 14.0724 3.12472 9.53569 4.5067C4.99896 5.88867 6.19809 8.65262 6.19809 8.65262Z" fill="#FFD8A7"/>
</g>
<defs>
<linearGradient id="paint0_linear_2998_10554" x1="55.5017" y1="83.9982" x2="55.5017" y2="-0.00175333" gradientUnits="userSpaceOnUse">
<stop stop-color="#FFA274"/>
<stop offset="1" stop-color="#FFC488"/>
</linearGradient>
<linearGradient id="paint1_linear_2998_10554" x1="48.1061" y1="61.9055" x2="48.1061" y2="26.0944" gradientUnits="userSpaceOnUse">
<stop stop-color="#DE0086"/>
<stop offset="1" stop-color="#FF003B"/>
</linearGradient>
<clipPath id="clip0_2998_10554">
<rect width="111" height="84" fill="white"/>
</clipPath>
</defs>
</svg>
