<svg width="21" height="25" viewBox="0 0 21 25" fill="none" xmlns="http://www.w3.org/2000/svg">
<path d="M20.7695 16.733C20.7695 16.733 20.7695 16.7389 20.7695 16.7509C20.3636 20.1825 19.4813 23.7454 18.7048 24.1154C18.7048 24.1154 18.693 24.1154 18.6754 24.1273C18.4872 24.2109 18.1636 24.2944 17.7342 24.366C17.7342 24.366 17.7224 24.366 17.7166 24.366C16.7224 24.5331 15.1813 24.6704 13.5166 24.7361C12.8519 24.7599 12.1695 24.7719 11.4872 24.7719C8.66951 24.7599 5.98715 24.4854 5.41068 23.7454C4.12833 22.1042 2.35774 12.3644 4.51068 10.4785C6.69303 8.56871 19.593 9.2789 20.4872 10.383C21.1166 11.1648 21.1048 13.8981 20.7695 16.727V16.733Z" fill="url(#paint0_linear_3495_12652)"/>
<path d="M15.682 24.074C15.682 24.074 15.6349 24.1038 15.6114 24.1158C15.4291 24.2053 15.0761 24.2948 14.6114 24.3724C13.4996 24.5634 11.6996 24.7126 9.82317 24.7603C9.38788 24.7722 8.95258 24.7782 8.51729 24.7782C6.81141 24.7782 5.13494 24.6768 3.94082 24.438C3.51141 24.3545 3.14082 24.2471 2.85847 24.1217C2.61141 24.0143 2.42317 23.889 2.31141 23.7517C1.97611 23.3459 1.58788 22.4387 1.22905 21.275C0.140818 17.7479 -0.700358 11.8933 0.858465 10.4789C1.10552 10.2521 1.50552 10.0611 2.02317 9.90592C5.85258 8.74216 16.0055 9.41058 16.8291 10.3834C18.2761 12.0902 17.0408 23.0952 15.682 24.068V24.074Z" fill="url(#paint1_linear_3495_12652)"/>
<path d="M14.1413 22.737C13.606 23.0056 11.2119 23.2502 8.85896 23.2622C6.53543 23.2801 4.22367 23.0712 3.72955 22.4446C2.70014 21.1435 1.22367 13.6835 2.82955 12.281C3.57661 11.6305 6.1119 11.3918 8.67661 11.4157C11.5766 11.4336 14.4707 11.7857 14.8531 12.2094C15.9943 13.4925 15.2119 22.1939 14.1413 22.731V22.737Z" fill="url(#paint2_linear_3495_12652)"/>
<path d="M14.1401 22.7393C13.6048 23.0078 11.2107 23.2525 8.85773 23.2645C6.69303 23.2525 4.65185 23.0317 4.18714 22.4469C3.1695 21.1458 1.7342 13.6858 3.34597 12.2833C4.04597 11.6806 6.29303 11.4299 8.6695 11.418C11.5695 11.4359 14.4636 11.788 14.846 12.2117C15.9871 13.4948 15.2048 22.1962 14.1342 22.7333L14.1401 22.7393Z" fill="#FF7700"/>
<g style="mix-blend-mode:multiply" opacity="0.3">
<path d="M3.0518 12.6656C1.78121 14.3247 2.88121 18.4963 3.85768 19.3378C4.83415 20.1793 11.3577 17.2072 13.6812 17.5116C15.3871 17.7324 16.0342 13.3101 14.6753 12.0926C13.3165 10.8752 4.11062 11.287 3.05768 12.6656H3.0518Z" fill="#D42F55"/>
</g>
<path d="M0.859375 10.4811C0.859375 10.4811 3.20055 9.08457 8.92408 9.40684C14.6064 9.72315 16.4711 10.3379 17.0476 10.4811C17.6241 10.6243 20.4947 10.3856 20.4947 10.3856C20.5064 10.505 19.3829 9.49636 12.0947 8.95327C4.7829 8.41018 1.26526 9.89622 0.865257 10.4751L0.859375 10.4811Z" fill="url(#paint3_linear_3495_12652)"/>
<path d="M18.705 24.1185C18.705 24.1185 18.6933 24.1185 18.6756 24.1304C18.5874 24.1603 18.2874 24.2498 17.7344 24.3691C17.7344 24.3691 17.7227 24.3691 17.7168 24.3691C16.8403 24.5482 15.3403 24.7869 13.0639 24.9122C12.2521 24.96 11.3403 24.9898 10.3286 24.9958C4.50503 25.0495 2.83444 24.1185 2.7168 24.0469C2.84621 24.0767 5.01091 24.5959 9.01091 24.769C9.93444 24.8108 10.758 24.6914 11.4874 24.6556C12.7874 24.584 13.7933 24.5363 14.4815 24.3871C15.1286 24.2498 15.4992 24.1245 15.6109 24.1066C15.805 24.0707 17.1286 24.0827 17.9756 24.0946C18.3991 24.1006 18.705 24.1066 18.705 24.1066V24.1185Z" fill="#E1332C"/>
<path d="M11.1771 17.7314C11.1771 17.7314 13.4418 21.3301 13.2947 21.8076C13.1535 22.279 7.45941 22.4402 6.54765 21.9747C5.62412 21.5032 7.74765 17.8985 7.74765 17.8985C7.74765 17.8985 6.22412 17.0451 6.15353 14.9861C6.05941 12.0976 11.5888 11.8887 12.4241 14.2222C13.0712 16.0305 11.1771 17.7314 11.1771 17.7314Z" fill="url(#paint4_linear_3495_12652)"/>
<path d="M10.653 17.7296C10.653 17.7296 12.7294 21.2447 12.4941 21.943C12.3412 22.4085 6.96473 22.4383 6.05296 21.9728C5.12943 21.5014 7.22355 17.8967 7.22355 17.8967C7.22355 17.8967 5.56473 16.8344 5.77649 14.7814C6.02943 12.2689 11.0294 11.8809 11.8824 14.2204C12.5412 16.0287 10.6588 17.7296 10.6588 17.7296H10.653Z" fill="url(#paint5_linear_3495_12652)"/>
<path d="M8.52268 17.6297C8.52268 17.6297 5.04621 14.407 8.79327 13.9475C12.5815 13.476 9.53444 17.6297 9.53444 17.6297C9.53444 17.6297 11.2344 21.0255 11.2109 21.2762C11.1874 21.5268 7.3168 21.3597 6.98739 21.2762C6.65209 21.1926 8.52856 17.6297 8.52856 17.6297H8.52268Z" fill="url(#paint6_linear_3495_12652)"/>
<g style="mix-blend-mode:multiply" opacity="0.5">
<path d="M6.05273 21.9736C6.05273 21.9736 6.85862 22.3675 9.63509 22.3078C12.4174 22.2482 13.2939 21.8125 13.2939 21.8125C13.2939 21.8125 12.9527 22.4988 9.85273 22.5943C6.75862 22.6898 6.05273 21.9796 6.05273 21.9796V21.9736Z" fill="#D42F55"/>
</g>
<g style="mix-blend-mode:multiply" opacity="0.5">
<path d="M2.52406 12.6924C2.13583 14.7216 3.35348 11.7734 8.30053 11.7555C13.2535 11.7376 15.2594 13.6652 15.3005 13.9099C15.3476 14.1546 15.2476 12.6805 14.8476 12.209C14.4476 11.7376 10.4123 11.278 7.09465 11.4153C3.78877 11.5525 2.72995 12.0956 2.51818 12.6924H2.52406Z" fill="#D42F55"/>
</g>
<g style="mix-blend-mode:multiply" opacity="0.5">
<path d="M10.6583 14.837C10.2289 13.1003 7.79362 14.6043 7.89362 15.8576C7.99362 17.075 9.42303 17.7793 9.52303 17.6301C9.62891 17.4809 10.8995 15.8337 10.6524 14.837H10.6583Z" fill="#D42F55"/>
</g>
<g style="mix-blend-mode:multiply" opacity="0.5">
<path d="M9.68836 18.2145C9.2766 17.9937 7.83542 21.0672 8.07071 21.2224C8.30601 21.3775 10.9766 21.479 11.2119 21.282C11.4531 21.0851 9.68836 18.2145 9.68836 18.2145Z" fill="#D42F55"/>
</g>
<g style="mix-blend-mode:multiply" opacity="0.5">
<path d="M20.8704 11.4154C20.3645 10.0488 18.2292 11.0514 17.7704 11.4154C17.3174 11.7795 17.7527 15.9869 17.1057 19.7945C16.4586 23.6021 16.4586 23.4887 17.8821 23.6857C19.3057 23.8766 20.0057 20.4928 20.488 17.4372C20.9704 14.3815 20.8645 11.4154 20.8645 11.4154H20.8704Z" fill="#D42F55"/>
</g>
<g style="mix-blend-mode:multiply" opacity="0.5">
<path d="M17.806 11.8454C17.6648 12.49 17.5883 14.0834 17.806 14.5788C18.0236 15.0741 20.6472 14.6146 20.8236 14.2147C21.0001 13.8149 21.0354 11.2307 20.3589 10.8368C19.6824 10.443 17.9413 11.2248 17.806 11.8454Z" fill="#D42F55"/>
</g>
<path d="M3.50586 22.0832C3.50586 22.0832 3.78821 22.8412 5.68233 23.0322C7.57645 23.2231 13.0235 23.1276 13.7529 22.692C14.4882 22.2623 14.7529 21.4805 14.7529 21.4805C14.7529 21.4805 14.5353 22.6741 14.1941 22.883C13.8588 23.0918 9.15292 23.3604 6.94115 23.2589C4.72939 23.1575 3.98821 22.8471 3.88821 22.7517C3.78821 22.6562 3.50586 22.0773 3.50586 22.0773V22.0832Z" fill="#FFE016"/>
<path d="M2.12307 15.3365C2.12307 15.3365 2.05248 12.6091 2.71719 12.054C3.38189 11.499 6.57013 11.4453 6.57013 11.4453C6.57013 11.4453 3.45836 11.696 2.82307 12.2808C2.18778 12.8657 2.11719 15.3365 2.11719 15.3365H2.12307Z" fill="#FFE016"/>
<path d="M16.3648 10.3051C16.2648 10.2812 17.5766 11.3554 17.6766 11.3853C17.7766 11.4151 19.1589 10.5915 19.306 10.5259C19.4472 10.4602 16.3648 10.3051 16.3648 10.3051Z" fill="white"/>
<g style="mix-blend-mode:multiply" opacity="0.5">
<path d="M6.48862 17.0336C6.9298 17.5528 7.50039 17.5349 7.83568 17.4871C8.17098 17.4394 6.85921 16.0429 6.94156 14.9567C7.02392 13.8705 9.44156 13.4348 10.4945 13.9421C11.5474 14.4434 10.0945 16.8903 10.1416 17.3439C10.1886 17.7975 12.0357 16.3413 11.9298 14.9746C11.8239 13.6079 10.371 12.4621 7.89451 12.9574C5.41804 13.4528 5.52392 15.9056 6.48862 17.0395V17.0336Z" fill="#FFAB55"/>
</g>
<g style="mix-blend-mode:screen" opacity="0.2">
<path d="M15.6113 24.1166C15.9054 23.8241 16.3996 23.4123 16.6584 23.4303C16.9172 23.4422 18.4466 23.669 18.7054 23.7764C18.9643 23.8838 18.4466 24.0867 17.476 24.0509C16.5054 24.0211 15.6113 24.1166 15.6113 24.1166Z" fill="#FFB311"/>
</g>
<g style="mix-blend-mode:multiply" opacity="0.8">
<path d="M10.6524 17.7291H11.17C11.17 17.7291 12.0465 17.1263 12.2465 16.1475C12.4465 15.1688 12.1053 15.2643 12.1053 15.2643C12.1053 15.2643 11.723 16.8219 10.6465 17.7291H10.6524Z" fill="#D42F55"/>
</g>
<path d="M17.4755 12.832C17.4755 12.832 17.2755 19.367 16.7461 21.2708C16.7461 21.2708 18.0755 17.4334 17.4755 12.832Z" fill="#FFCC16"/>
<g style="mix-blend-mode:multiply" opacity="0.8">
<path d="M20.7703 16.7521C20.3645 20.1837 19.4821 23.7466 18.7056 24.1166C18.7056 24.1166 18.6939 24.1166 18.6762 24.1285C18.488 24.2121 18.1645 24.2956 17.735 24.3672C17.735 24.3672 17.7233 24.3672 17.7174 24.3672C16.8409 24.5463 15.3409 24.785 13.0645 24.9103C13.0645 24.9103 13.2468 24.8387 13.5174 24.7313C13.7821 24.6298 14.1292 24.5045 14.4762 24.3911C14.9233 24.2419 15.3645 24.1226 15.6056 24.1106C16.2233 24.0927 16.9292 24.4448 17.9703 24.0987H17.9997C19.0292 23.7406 20.6586 17.1579 20.7645 16.7461L20.7703 16.7521Z" fill="#D42F55"/>
</g>
<g style="mix-blend-mode:multiply" opacity="0.8">
<path d="M1.22905 21.2693C0.140818 17.7482 -0.700358 11.8936 0.858465 10.4792C1.10552 10.2524 1.50552 10.0614 2.02317 9.90625C1.51729 10.1867 0.423171 10.9208 0.158465 12.5322C-0.318005 15.4147 1.22905 21.2693 1.22905 21.2693Z" fill="#D42F55"/>
</g>
<g style="mix-blend-mode:screen" opacity="0.2">
<path d="M1.13987 10.8425C0.651633 11.4274 1.13987 11.9167 2.26928 11.9048C3.39869 11.8929 6.59281 11.314 6.93399 10.8425C7.27516 10.371 7.41634 9.5892 7.18693 9.43404C6.95752 9.27887 2.49869 9.21322 1.13987 10.8425Z" fill="#FFB311"/>
</g>
<path d="M5.77539 14.7831C5.77539 14.7831 5.9048 13.5179 8.0401 13.0047C10.1754 12.4914 11.4872 13.1479 11.4872 13.1479C11.4872 13.1479 10.3283 12.4198 8.42833 12.6884C6.52833 12.9569 5.87539 13.9954 5.77539 14.7772V14.7831Z" fill="#FFCC16"/>
<g style="mix-blend-mode:multiply" opacity="0.5">
<path d="M13.5114 9.01953C13.0232 9.07921 16.0879 9.78344 16.7526 9.67601C17.4232 9.56859 13.5114 9.01953 13.5114 9.01953Z" fill="#D42F55"/>
</g>
<path d="M16.0461 9.51898L13.4696 9.03557C13.699 8.45667 14.0814 7.28694 14.1696 6.11721C14.2402 5.23395 14.1696 5.04297 13.8167 4.29697C13.8167 4.29697 13.8167 4.29697 13.8167 4.291C13.6814 4.00454 13.5049 3.74791 13.2814 3.52709C13.2637 3.50919 13.2402 3.49129 13.2167 3.46741C13.1579 3.4137 13.099 3.36596 13.0284 3.31225C12.8226 3.15708 12.5814 3.03175 12.3049 2.93626C11.8049 2.75722 11.199 2.6677 10.4755 2.6677C9.11079 2.6677 8.11079 2.97207 7.42844 3.59871C6.7402 4.23132 6.41079 4.41633 6.28138 5.34734C6.22256 5.79494 6.20491 6.24254 6.22256 6.67224C6.22256 6.71998 6.22256 6.76772 6.22844 6.81547C6.26962 7.66889 6.51667 8.582 6.64609 9.01766L4.00491 9.35187C3.99315 9.31607 3.92844 9.08928 3.86962 8.83863C3.72844 8.21795 3.51079 7.01838 3.60491 5.70542C3.60491 5.70542 3.60491 5.70542 3.60491 5.69348C3.70491 4.30294 4.14609 2.78706 5.36373 1.65911C6.56962 0.560993 8.28138 0 10.4696 0C13.152 0 14.6284 0.895202 15.3814 1.64717C15.799 2.053 16.099 2.50657 16.3226 2.98997C16.4108 3.18692 16.4873 3.38386 16.552 3.58678C17.3461 6.12318 16.2108 9.10719 16.0461 9.51898Z" fill="url(#paint7_radial_3495_12652)"/>
<g style="mix-blend-mode:multiply" opacity="0.5">
<path d="M9.26384 2.42226C11.3344 2.29096 12.3933 2.83405 13.0285 3.31149C12.4403 2.87583 11.5991 2.66098 10.4697 2.66098C9.10502 2.66098 8.15208 2.99519 7.42266 3.59199C6.30502 4.5051 6.16972 5.33465 6.21678 6.66552C6.21678 6.66552 5.32855 2.67292 9.26384 2.42226Z" fill="#D42F55"/>
</g>
<g style="mix-blend-mode:multiply" opacity="0.5">
<path d="M13.8107 4.29125C13.6754 4.00478 13.4989 3.74816 13.2754 3.52734C13.6813 3.9093 13.793 4.24351 13.8107 4.29125Z" fill="#D42F55"/>
</g>
<g style="mix-blend-mode:soft-light">
<path d="M4.05706 5.24758C4.16295 7.1096 4.76295 2.6873 7.75118 1.40418C10.7394 0.121058 13.5453 2.10841 14.0394 3.05732C14.5335 4.00623 15.9218 3.85703 16.1159 3.16474C16.31 2.47246 13.2512 -0.642847 8.79824 0.174771C4.35118 0.98642 3.99236 4.08979 4.05706 5.24758Z" fill="white"/>
</g>
<g style="mix-blend-mode:multiply" opacity="0.5">
<path d="M6.63975 9.01331L3.99858 9.34752C3.98681 9.31171 3.9221 9.08493 3.86328 8.83427C5.6221 9.62802 3.57505 6.53659 5.96916 3.42725C6.90446 2.20978 6.36328 4.94313 6.26916 5.34299C6.21034 5.79059 6.19269 6.23819 6.21034 6.66788C6.23975 7.58099 6.49857 8.55378 6.63387 9.01331H6.63975Z" fill="#FF3355"/>
</g>
<g style="mix-blend-mode:screen" opacity="0.2">
<path d="M6.43969 4.88264C6.86321 3.79049 5.49263 5.29443 5.47498 7.00128C5.45733 8.70814 6.07498 8.87524 6.27498 8.73201C6.48086 8.58878 5.47498 7.38324 6.43969 4.88264Z" fill="#FFB311"/>
</g>
<g style="mix-blend-mode:multiply" opacity="0.3">
<path d="M16.8277 4.75726C16.116 2.59684 14.6454 6.35668 14.4219 7.66368C14.1983 8.97067 14.8395 9.06019 15.6748 9.14374C16.5101 9.2273 16.8572 6.2791 16.8277 4.76322V4.75726Z" fill="#FF3355"/>
</g>
<path d="M3.97484 7.84212C4.26895 8.51053 4.39248 6.61867 4.28072 6.06962C4.16895 5.52056 3.44543 6.63658 3.97484 7.84212Z" fill="white"/>
<g style="mix-blend-mode:soft-light">
<path d="M5.58129 1.93356C4.99305 2.75715 6.69893 1.49193 9.22246 1.00852C11.7401 0.525111 10.7754 0.232678 10.2107 0.101382C9.64599 -0.0299143 6.9754 -0.0120102 5.58717 1.92759L5.58129 1.93356Z" fill="white"/>
</g>
<g style="mix-blend-mode:multiply" opacity="0.5">
<path d="M16.0452 9.51917L13.4746 9.03577C13.704 8.45687 14.0864 7.28714 14.1746 6.11741C14.4334 7.75861 14.9276 5.18043 15.8217 3.9928C16.0864 3.64665 16.3334 3.54519 16.557 3.58697C17.3511 6.12338 16.2158 9.10141 16.0511 9.51917H16.0452Z" fill="#D42F55"/>
</g>
<g style="mix-blend-mode:multiply" opacity="0.8">
<path d="M16.3231 2.98997C16.3231 2.98997 14.3231 -0.519217 8.729 0.328241C4.5937 0.954882 3.75841 4.10002 3.60547 5.69348C3.70547 4.30294 4.14665 2.78109 5.36429 1.65911C6.57017 0.560993 8.28194 0 10.4702 0C13.1584 0 14.629 0.895202 15.3878 1.64717C15.7996 2.053 16.1055 2.51253 16.329 2.98997H16.3231Z" fill="#D42F55"/>
</g>
<path d="M13.6231 1.1262C13.1408 1.2754 14.3584 2.6003 15.2114 2.53465C16.0643 2.469 13.9643 1.02474 13.6231 1.1262Z" fill="white"/>
<path d="M12.2278 0.578711C12.1042 0.662263 13.0631 1.09196 13.1866 0.900984C13.3101 0.704039 12.6454 0.292246 12.2278 0.578711Z" fill="white"/>
<g style="mix-blend-mode:multiply" opacity="0.5">
<path d="M12.2985 2.93143C11.7985 2.75239 11.1926 2.66287 10.4691 2.66287C9.10438 2.66287 8.10438 2.96724 7.42203 3.59388C6.73379 4.22649 6.40438 4.4115 6.27497 5.34251C6.21615 5.79011 6.1985 6.23771 6.21615 6.66741C6.21615 6.71515 6.21615 6.7629 6.22203 6.81064C6.22203 6.81064 5.81615 5.2888 7.05144 3.50436C8.28674 1.72589 11.5691 2.54351 12.2985 2.92547V2.93143Z" fill="#D42F55"/>
</g>
<path d="M5.99311 9.09489L6.94017 9.01731C6.94017 9.01731 6.11075 6.56446 6.74017 4.85164C7.36958 3.13882 10.7166 2.25555 12.8225 3.57448C14.9284 4.89341 12.8225 9.09489 12.8225 9.09489L16.046 9.51862L14.4637 2.20781L10.346 1.41406C10.346 1.41406 6.59311 1.68859 6.57546 1.76021C6.55781 1.83182 5.47546 4.18919 5.47546 4.18919L5.25781 6.4451L5.99899 9.10086L5.99311 9.09489Z" fill="url(#paint8_radial_3495_12652)"/>
<defs>
<linearGradient id="paint0_linear_3495_12652" x1="15.8224" y1="25.1837" x2="9.64339" y2="8.4411" gradientUnits="userSpaceOnUse">
<stop stop-color="#FF5900"/>
<stop offset="0.23" stop-color="#FE6800"/>
<stop offset="0.66" stop-color="#FA9300"/>
<stop offset="0.85" stop-color="#F66A00"/>
<stop offset="1" stop-color="#F63F00"/>
</linearGradient>
<linearGradient id="paint1_linear_3495_12652" x1="12.4526" y1="25.2855" x2="6.20113" y2="8.35265" gradientUnits="userSpaceOnUse">
<stop stop-color="#FF8100"/>
<stop offset="1" stop-color="#FFBB34"/>
</linearGradient>
<linearGradient id="paint2_linear_3495_12652" x1="11.5472" y1="23.6978" x2="6.75604" y2="10.7261" gradientUnits="userSpaceOnUse">
<stop stop-color="#FFBA00"/>
<stop offset="0.21" stop-color="#FE6800"/>
<stop offset="1" stop-color="#D41B00"/>
</linearGradient>
<linearGradient id="paint3_linear_3495_12652" x1="0.859375" y1="9.68137" x2="20.4888" y2="9.68137" gradientUnits="userSpaceOnUse">
<stop stop-color="#FFDE00"/>
<stop offset="1" stop-color="#FFE834"/>
</linearGradient>
<linearGradient id="paint4_linear_3495_12652" x1="11.0771" y1="22.6849" x2="7.49876" y2="12.9902" gradientUnits="userSpaceOnUse">
<stop stop-color="#D41B00"/>
<stop offset="0.79" stop-color="#FE6800"/>
</linearGradient>
<linearGradient id="paint5_linear_3495_12652" x1="10.5647" y1="22.7069" x2="7.0166" y2="13.0956" gradientUnits="userSpaceOnUse">
<stop stop-color="#FF8100"/>
<stop offset="1" stop-color="#FFBB34"/>
</linearGradient>
<linearGradient id="paint6_linear_3495_12652" x1="9.07562" y1="21.4075" x2="9.07562" y2="13.9116" gradientUnits="userSpaceOnUse">
<stop stop-color="#DE330E"/>
<stop offset="1" stop-color="#930000"/>
</linearGradient>
<radialGradient id="paint7_radial_3495_12652" cx="0" cy="0" r="1" gradientUnits="userSpaceOnUse" gradientTransform="translate(10.2277 4.74123) scale(6.28847 5.0327)">
<stop stop-color="#FFEA34"/>
<stop offset="0.63" stop-color="#FF8100"/>
<stop offset="0.92" stop-color="#FFA400"/>
<stop offset="1" stop-color="#FFBA00"/>
</radialGradient>
<radialGradient id="paint8_radial_3495_12652" cx="0" cy="0" r="1" gradientUnits="userSpaceOnUse" gradientTransform="translate(10.6519 5.44343) scale(4.74706 6.06839)">
<stop stop-color="#FFEA34"/>
<stop offset="0.63" stop-color="#FF8100"/>
<stop offset="0.92" stop-color="#FFA400"/>
<stop offset="1" stop-color="#FFBA00"/>
</radialGradient>
</defs>
</svg>
