<svg width="181" height="55" viewBox="0 0 181 55" fill="none" xmlns="http://www.w3.org/2000/svg">
<path d="M21.8862 9.5968H27.3653C27.4899 9.60222 27.612 9.63431 27.7231 9.6909C27.8343 9.74748 27.932 9.82725 28.0098 9.92482C28.0875 10.0224 28.1434 10.1355 28.1737 10.2565C28.204 10.3775 28.208 10.5036 28.1854 10.6263L20.7084 42.8028C20.6596 42.9844 20.5533 43.1454 20.4055 43.2618C20.2578 43.3781 20.0763 43.4436 19.8883 43.4484H8.75565C8.56762 43.4436 8.38619 43.3781 8.2384 43.2618C8.09061 43.1454 7.98437 42.9844 7.93553 42.8028L0.214223 10.6263C0.19097 10.4993 0.196183 10.3688 0.229487 10.2441C0.262792 10.1193 0.323357 10.0036 0.406816 9.90508C0.490275 9.8066 0.594548 9.72786 0.712115 9.67455C0.829683 9.62124 0.957615 9.59468 1.08669 9.5968H6.53959C6.72992 9.60268 6.9131 9.67067 7.06118 9.79039C7.20925 9.91011 7.3141 10.075 7.35971 10.2599L12.9522 36.809C12.9978 36.9938 13.1027 37.1587 13.2507 37.2784C13.3988 37.3982 13.582 37.4661 13.7723 37.472H14.6448C14.8351 37.4661 15.0183 37.3982 15.1664 37.2784C15.3144 37.1587 15.4193 36.9938 15.4649 36.809L21.0661 10.2599C21.1117 10.075 21.2166 9.91011 21.3646 9.79039C21.5127 9.67067 21.6959 9.60268 21.8862 9.5968Z" fill="white"/>
<path d="M32.2076 21.3752C33.9525 19.101 36.8898 17.9639 41.0195 17.9639C45.1491 17.9639 48.0864 19.101 49.8314 21.3752C51.5763 23.6436 52.4488 26.8426 52.4488 30.9723C52.4488 39.697 48.6332 44.0593 41.002 44.0593C33.3709 44.0593 29.5553 39.697 29.5553 30.9723C29.5669 26.8426 30.451 23.6436 32.2076 21.3752ZM37.3639 36.5823C38.0386 37.7746 39.2571 38.3563 41.0195 38.3272C42.7819 38.2981 44.0004 37.7165 44.6751 36.5823C45.3556 35.3899 45.6959 33.5141 45.6959 30.9549C45.6959 28.3956 45.3673 26.5373 44.71 25.3798C44.0295 24.2165 42.8109 23.6349 41.0544 23.6349C39.2978 23.6349 38.0793 24.2165 37.3987 25.3798C36.7182 26.5431 36.378 28.4014 36.378 30.9549C36.378 33.5083 36.7066 35.3841 37.3639 36.5823Z" fill="white"/>
<path d="M55.6863 18.5577H60.511C60.7002 18.5631 60.8825 18.6298 61.0304 18.7478C61.1783 18.8659 61.2839 19.0288 61.3311 19.2121L65.6934 37.7781H66.8364L71.2336 19.1946C71.2808 19.0113 71.3864 18.8484 71.5343 18.7304C71.6822 18.6124 71.8645 18.5456 72.0537 18.5403H76.8697C77.0015 18.5373 77.1322 18.5643 77.252 18.6191C77.3719 18.6739 77.4778 18.7551 77.5617 18.8567C77.6457 18.9583 77.7055 19.0776 77.7368 19.2056C77.768 19.3336 77.7699 19.4671 77.7422 19.5959L69.89 53.2469C69.8396 53.4269 69.7326 53.586 69.585 53.7006C69.4373 53.8153 69.2568 53.8795 69.0699 53.8838H64.2539C64.1265 53.879 64.0018 53.8464 63.8884 53.7882C63.7751 53.7301 63.6758 53.6478 63.5976 53.5472C63.5195 53.4466 63.4643 53.33 63.436 53.2058C63.4077 53.0816 63.4069 52.9527 63.4337 52.8281L65.1787 44.4961C65.207 44.3709 65.2073 44.241 65.1797 44.1157C65.1521 43.9904 65.0971 43.8727 65.0188 43.7711C64.9405 43.6694 64.8407 43.5863 64.7266 43.5276C64.6125 43.469 64.4868 43.4362 64.3586 43.4317H61.4009C61.2114 43.4287 61.028 43.3641 60.8784 43.2476C60.7289 43.1311 60.6213 42.9691 60.5721 42.786L54.8661 19.6134C54.8393 19.4888 54.8401 19.3599 54.8684 19.2357C54.8967 19.1114 54.9519 18.9949 55.03 18.8943C55.1082 18.7937 55.2075 18.7114 55.3208 18.6533C55.4342 18.5951 55.5589 18.5625 55.6863 18.5577Z" fill="white"/>
<path d="M100.46 26.3218V36.6431C100.47 37.2203 100.603 37.7887 100.853 38.3095C101.027 38.5543 101.274 38.7375 101.559 38.833C101.718 38.8937 101.854 39.0033 101.946 39.146C102.039 39.2887 102.083 39.4571 102.074 39.6269L101.934 43.1953C101.917 43.4144 101.817 43.6187 101.656 43.7676C101.494 43.9164 101.282 43.9986 101.062 43.9979C99.9748 43.9942 98.8906 43.8832 97.8252 43.6664C96.8733 43.4296 95.966 43.0407 95.138 42.5148C95.024 42.4401 94.8926 42.3961 94.7566 42.3869C94.6206 42.3777 94.4846 42.4037 94.3615 42.4624C92.2029 43.4842 89.8484 44.0259 87.4603 44.0503C82.3128 44.0503 79.739 41.3282 79.739 35.884C79.739 33.2317 80.4515 31.3472 81.8765 30.2305C83.3016 29.1137 85.4944 28.4594 88.4549 28.2674L93.777 27.8661V26.3218C93.8228 25.9402 93.784 25.5532 93.6633 25.1883C93.5427 24.8234 93.3432 24.4896 93.079 24.2105C92.4213 23.7709 91.6337 23.5679 90.8455 23.6346L82.3128 24.0011C82.093 24.0018 81.881 23.9195 81.7193 23.7707C81.5575 23.6219 81.4579 23.4175 81.4403 23.1984L81.3531 20.0662C81.3458 19.8704 81.4047 19.6779 81.5203 19.5196C81.6358 19.3613 81.8013 19.2466 81.99 19.1938C85.0771 18.3777 88.2544 17.9527 91.4475 17.9287C94.6494 17.9287 96.9615 18.5918 98.3661 19.9179C99.7708 21.2441 100.46 23.3991 100.46 26.3218ZM89.2576 32.8915C88.87 32.8782 88.484 32.9481 88.1257 33.0966C87.7674 33.2451 87.4451 33.4687 87.1805 33.7523C86.9159 34.0359 86.7152 34.3729 86.5919 34.7406C86.4686 35.1084 86.4256 35.4983 86.4657 35.884C86.4657 37.7075 87.2858 38.6236 88.9086 38.6236C90.3075 38.6039 91.6977 38.4016 93.0441 38.0216L93.7857 37.8209V33.4062C93.7745 33.1825 93.6776 32.9716 93.5152 32.8173C93.3528 32.663 93.1373 32.5771 92.9132 32.5774L89.2576 32.8915Z" fill="white"/>
<path d="M129.383 46.5634C129.457 47.8129 129.19 49.0588 128.61 50.1683C128.031 51.2777 127.161 52.209 126.094 52.8626C123.907 54.212 120.947 54.8897 117.212 54.8955C113.478 54.9013 110.608 54.404 108.601 53.4036C106.594 52.409 105.582 50.603 105.582 47.9768C105.582 46.1214 106.525 44.3561 108.409 42.681C108.496 42.612 108.568 42.5258 108.62 42.4277C108.672 42.3297 108.703 42.2219 108.711 42.1112C108.719 42.0005 108.704 41.8893 108.668 41.7847C108.631 41.68 108.572 41.5842 108.496 41.5031C108.098 41.069 107.789 40.5602 107.589 40.0061C107.388 39.4521 107.299 38.8637 107.327 38.275C107.327 37.612 107.825 36.5301 108.819 34.9858L109.273 34.2879C107.01 32.6651 105.882 30.2687 105.888 27.0988C105.888 23.923 106.839 21.6284 108.749 20.1976C110.979 18.6774 113.644 17.9268 116.34 18.06C117.765 18.0602 119.185 18.2271 120.571 18.5573L121.365 18.7057L128.519 18.4875C128.751 18.4875 128.973 18.5795 129.136 18.7431C129.3 18.9067 129.392 19.1286 129.392 19.36V22.9284C129.381 23.1521 129.284 23.363 129.121 23.5173C128.959 23.6716 128.744 23.7575 128.519 23.7572L127.185 23.6525C127.043 23.6521 126.904 23.6859 126.779 23.751C126.654 23.8161 126.546 23.9106 126.466 24.0264C126.385 24.1423 126.334 24.2759 126.316 24.4159C126.299 24.5559 126.315 24.6982 126.364 24.8304C126.612 25.4821 126.733 26.1749 126.722 26.8719C126.722 30.196 125.85 32.4819 124.192 33.7469C122.534 35.012 119.83 35.6315 116.226 35.6315C115.541 35.6426 114.856 35.5753 114.185 35.4308C113.895 36.1029 113.724 36.8203 113.679 37.5509C113.673 37.8092 113.756 38.0617 113.915 38.2654C114.074 38.469 114.299 38.6112 114.551 38.6676C115.858 38.9504 117.194 39.0676 118.53 39.0166C122.712 39.0515 125.565 39.607 127.089 40.683C128.615 41.7649 129.383 43.7192 129.383 46.5634ZM112.161 47.2789C112.161 48.7097 113.906 49.4251 117.396 49.4251C120.885 49.4251 122.63 48.5963 122.63 46.9299C122.689 46.584 122.637 46.2284 122.48 45.9145C122.323 45.6007 122.07 45.3451 121.758 45.1849C120.525 44.8491 119.248 44.7049 117.971 44.7574L113.914 44.4957C113.785 44.4873 113.655 44.508 113.534 44.5563C113.413 44.6046 113.305 44.6793 113.216 44.7749C112.565 45.4492 112.189 46.342 112.161 47.2789ZM112.553 26.8981C112.553 29.341 113.827 30.5537 116.366 30.5537C118.905 30.5537 120.17 29.341 120.17 26.8981C120.17 24.4552 118.905 23.2337 116.366 23.2337C113.827 23.2337 112.553 24.429 112.553 26.8981Z" fill="white"/>
<path d="M140.105 37.1496C141.063 37.8869 142.257 38.2498 143.464 38.1704C146.552 38.1704 150.566 37.9436 151.141 37.9348C151.717 37.9261 152.529 37.6818 152.555 38.755L152.616 42.0354C152.622 42.2336 152.561 42.4279 152.442 42.5865C152.323 42.7451 152.153 42.8584 151.961 42.9079C148.989 43.6622 145.937 44.0576 142.87 44.0857C139.119 44.0857 136.397 43.0882 134.704 41.0932C133.012 39.0981 132.165 35.8642 132.165 31.3914C132.165 22.4573 135.833 17.9932 143.167 17.999C150.382 17.999 153.488 23.9405 153.767 28.9659C153.946 30.3526 153.89 31.7594 153.602 33.1276C153.573 33.3299 153.475 33.5158 153.323 33.6529C153.172 33.79 152.977 33.8697 152.773 33.8779H139.808C139.683 33.8768 139.56 33.9025 139.446 33.9533C139.332 34.0041 139.23 34.0787 139.147 34.1721C139.065 34.2656 139.003 34.3757 138.966 34.495C138.93 34.6143 138.919 34.74 138.936 34.8638C139.04 35.7409 139.455 36.5517 140.105 37.1496ZM146.587 28.7914C146.819 28.7914 147.04 28.6995 147.204 28.5359C147.368 28.3723 147.46 28.1503 147.46 27.9189C147.505 26.7571 147.201 25.6083 146.587 24.621C145.95 23.8445 144.842 23.4519 143.272 23.4519C142.66 23.3883 142.042 23.4653 141.464 23.677C140.886 23.8887 140.365 24.2295 139.939 24.6734C139.306 25.6319 138.964 26.7529 138.953 27.9015C138.953 28.1329 139.045 28.3548 139.209 28.5184C139.372 28.682 139.594 28.774 139.826 28.774L146.587 28.7914Z" fill="white"/>
<path d="M162.318 9.59673H179.707C179.81 9.59557 179.913 9.61503 180.01 9.65398C180.106 9.69292 180.194 9.75058 180.267 9.82361C180.341 9.89663 180.4 9.98359 180.44 10.0794C180.48 10.1753 180.501 10.2781 180.501 10.3819V19.569C180.501 19.6728 180.48 19.7757 180.44 19.8715C180.4 19.9674 180.341 20.0543 180.267 20.1273C180.194 20.2004 180.106 20.258 180.01 20.297C179.913 20.3359 179.81 20.3554 179.707 20.3542H176.217C176.113 20.3542 176.01 20.3748 175.914 20.4148C175.818 20.4548 175.731 20.5134 175.658 20.5873C175.585 20.6611 175.528 20.7487 175.489 20.845C175.45 20.9413 175.43 21.0443 175.432 21.1482V25.1702C175.432 38.3183 173.765 43.2041 168.234 49.0059C163.566 53.9005 151.587 54.8078 139.704 54.8951C139.493 54.8951 139.29 54.8117 139.14 54.6631C138.989 54.5144 138.904 54.3125 138.901 54.1011V50.6026C138.899 50.4025 138.974 50.2091 139.11 50.0628C139.247 49.9165 139.434 49.8286 139.634 49.8173C142.252 49.6777 151.849 50.3583 156.796 45.455C162.598 39.6444 161.551 30.8412 161.551 22.6837V10.3819C161.551 10.1767 161.631 9.97956 161.774 9.83279C161.918 9.68603 162.113 9.60129 162.318 9.59673Z" fill="url(#paint0_linear_2328_4131)"/>
<defs>
<linearGradient id="paint0_linear_2328_4131" x1="159.699" y1="10.764" x2="159.699" y2="55.0267" gradientUnits="userSpaceOnUse">
<stop stop-color="#EF5525"/>
<stop offset="1" stop-color="#EF9D25"/>
</linearGradient>
</defs>
</svg>
