<svg width="24" height="24" viewBox="0 0 24 24" fill="none" xmlns="http://www.w3.org/2000/svg">
<path d="M16.979 14.4313C17.468 13.6248 18.2571 13.6248 18.7461 14.4313L21.7913 19.5356C22.2803 20.3421 21.8802 21 20.9022 21H14.7673C13.8004 21 13.4003 20.3421 13.8782 19.5356L16.979 14.4313ZM11.0887 4.60487C11.5777 3.79838 12.3556 3.79838 12.8447 4.60487L13.5226 5.77216L15.123 8.45693C15.512 9.22097 15.512 10.123 15.123 10.887L9.755 19.769C9.266 20.4906 8.45468 20.9469 7.55446 21H3.09781C2.1198 21 1.7197 20.3527 2.20871 19.5356L11.0887 4.60487Z" fill="#E84142"/>
</svg>
