<svg width="79" height="35" viewBox="0 0 79 35" fill="none" xmlns="http://www.w3.org/2000/svg">
<path d="M9.48624 4.19829H11.883C11.9375 4.20067 11.9908 4.2147 12.0395 4.23946C12.0881 4.26421 12.1309 4.2991 12.1649 4.34178C12.1989 4.38446 12.2233 4.43394 12.2366 4.48687C12.2498 4.5398 12.2516 4.59496 12.2417 4.64863L8.97102 18.7236C8.94966 18.8031 8.90319 18.8735 8.83854 18.9244C8.77389 18.9753 8.69453 19.0039 8.61228 19.006H3.74252C3.66027 19.0039 3.58091 18.9753 3.51626 18.9244C3.45161 18.8735 3.40514 18.8031 3.38378 18.7236L0.00624287 4.64863C-0.00392884 4.59309 -0.00164829 4.53598 0.0129201 4.48142C0.0274885 4.42687 0.0539816 4.37622 0.0904891 4.33314C0.126997 4.29007 0.172609 4.25562 0.224036 4.23231C0.275464 4.20899 0.331425 4.19737 0.387885 4.19829H2.77315C2.85641 4.20087 2.93654 4.23061 3.00131 4.28298C3.06608 4.33535 3.11194 4.40747 3.13189 4.48834L5.57822 16.1017C5.59818 16.1826 5.64404 16.2547 5.70881 16.3071C5.77358 16.3595 5.85371 16.3892 5.93697 16.3918H6.31861C6.40187 16.3892 6.48199 16.3595 6.54677 16.3071C6.61154 16.2547 6.6574 16.1826 6.67735 16.1017L9.1275 4.48834C9.14745 4.40747 9.19331 4.33535 9.25808 4.28298C9.32286 4.23061 9.40299 4.20087 9.48624 4.19829Z" fill="white"/>
<path d="M14.0011 9.35013C14.7644 8.35532 16.0493 7.85791 17.8557 7.85791C19.6622 7.85791 20.947 8.35532 21.7103 9.35013C22.4736 10.3424 22.8552 11.7418 22.8552 13.5482C22.8552 17.3646 21.1862 19.2728 17.8481 19.2728C14.51 19.2728 12.8409 17.3646 12.8409 13.5482C12.846 11.7418 13.2328 10.3424 14.0011 9.35013ZM16.2566 16.0022C16.5518 16.5237 17.0848 16.7782 17.8557 16.7654C18.6266 16.7527 19.1597 16.4983 19.4548 16.0022C19.7525 15.4806 19.9013 14.6601 19.9013 13.5406C19.9013 12.4211 19.7576 11.6082 19.4701 11.1019C19.1724 10.593 18.6394 10.3386 17.871 10.3386C17.1026 10.3386 16.5696 10.593 16.2719 11.1019C15.9742 11.6107 15.8254 12.4236 15.8254 13.5406C15.8254 14.6575 15.9691 15.478 16.2566 16.0022Z" fill="white"/>
<path d="M24.2714 8.11759H26.3819C26.4647 8.11994 26.5444 8.14913 26.6091 8.20076C26.6738 8.25239 26.72 8.32366 26.7407 8.40382L28.6489 16.5252H29.1488L31.0723 8.39619C31.093 8.31603 31.1391 8.24476 31.2038 8.19313C31.2685 8.1415 31.3483 8.11231 31.431 8.10996H33.5377C33.5953 8.10867 33.6525 8.12046 33.7049 8.14443C33.7574 8.1684 33.8037 8.20394 33.8404 8.24838C33.8771 8.29282 33.9033 8.345 33.917 8.40101C33.9307 8.45701 33.9315 8.51539 33.9193 8.57175L30.4846 23.2917C30.4625 23.3704 30.4157 23.44 30.3512 23.4902C30.2866 23.5403 30.2076 23.5684 30.1258 23.5703H28.0192C27.9635 23.5682 27.9089 23.5539 27.8593 23.5285C27.8097 23.5031 27.7663 23.4671 27.7321 23.4231C27.6979 23.379 27.6738 23.3281 27.6614 23.2737C27.649 23.2194 27.6487 23.163 27.6604 23.1085L28.4237 19.4638C28.4361 19.4091 28.4362 19.3523 28.4241 19.2974C28.4121 19.2426 28.388 19.1912 28.3538 19.1467C28.3195 19.1022 28.2759 19.0659 28.2259 19.0402C28.176 19.0145 28.121 19.0002 28.065 18.9982H26.7712C26.6883 18.9969 26.608 18.9687 26.5426 18.9177C26.4772 18.8667 26.4302 18.7959 26.4086 18.7158L23.9127 8.57938C23.9009 8.52489 23.9013 8.4685 23.9137 8.41416C23.926 8.35982 23.9502 8.30885 23.9844 8.26483C24.0186 8.22082 24.062 8.18483 24.1116 8.15939C24.1612 8.13395 24.2157 8.11968 24.2714 8.11759Z" fill="white"/>
<path d="M43.8569 11.5142V16.029C43.861 16.2815 43.9196 16.5301 44.0286 16.7579C44.1049 16.865 44.2131 16.9452 44.3377 16.9869C44.4072 17.0135 44.4665 17.0615 44.5069 17.1239C44.5474 17.1863 44.567 17.2599 44.5629 17.3342L44.5018 18.8951C44.4941 18.991 44.4506 19.0804 44.3798 19.1455C44.309 19.2106 44.2163 19.2466 44.1202 19.2463C43.6446 19.2446 43.1703 19.1961 42.7043 19.1012C42.2879 18.9976 41.891 18.8275 41.5288 18.5975C41.4789 18.5648 41.4215 18.5455 41.362 18.5415C41.3025 18.5375 41.243 18.5489 41.1892 18.5746C40.2449 19.0215 39.215 19.2585 38.1704 19.2692C35.9187 19.2692 34.7928 18.0784 34.7928 15.697C34.7928 14.5368 35.1045 13.7124 35.7279 13.2239C36.3512 12.7354 37.3104 12.4492 38.6055 12.3652L40.9335 12.1897V11.5142C40.9535 11.3473 40.9365 11.178 40.8838 11.0184C40.831 10.8587 40.7437 10.7127 40.6282 10.5906C40.3405 10.3983 39.996 10.3095 39.6512 10.3387L35.9187 10.499C35.8225 10.4993 35.7298 10.4633 35.6591 10.3982C35.5883 10.3331 35.5447 10.2437 35.537 10.1479L35.4989 8.7778C35.4957 8.69214 35.5215 8.60791 35.572 8.53868C35.6226 8.46944 35.6949 8.41924 35.7775 8.39615C37.1279 8.03918 38.5178 7.85327 39.9145 7.84277C41.3151 7.84277 42.3265 8.13282 42.9409 8.71292C43.5554 9.29301 43.8569 10.2357 43.8569 11.5142ZM38.9566 14.3879C38.787 14.3821 38.6182 14.4127 38.4614 14.4777C38.3047 14.5426 38.1637 14.6404 38.048 14.7645C37.9322 14.8885 37.8444 15.036 37.7905 15.1968C37.7366 15.3577 37.7178 15.5282 37.7353 15.697C37.7353 16.4946 38.0941 16.8953 38.8039 16.8953C39.4158 16.8868 40.0239 16.7982 40.6129 16.632L40.9373 16.5442V14.6131C40.9324 14.5152 40.89 14.423 40.819 14.3555C40.7479 14.288 40.6536 14.2504 40.5556 14.2506L38.9566 14.3879Z" fill="white"/>
<path d="M56.5087 20.3684C56.5409 20.915 56.4241 21.46 56.1706 21.9453C55.9172 22.4306 55.5368 22.838 55.0699 23.1239C54.1132 23.7142 52.8182 24.0106 51.1848 24.0131C49.5513 24.0157 48.2957 23.7981 47.418 23.3605C46.5402 22.9254 46.0975 22.1354 46.0975 20.9867C46.0975 20.1751 46.5096 19.4029 47.334 18.6701C47.372 18.64 47.4034 18.6022 47.4262 18.5593C47.4489 18.5164 47.4625 18.4693 47.4661 18.4209C47.4697 18.3725 47.4632 18.3238 47.447 18.278C47.4308 18.2323 47.4054 18.1903 47.3722 18.1549C47.1978 17.965 47.0629 17.7424 46.9751 17.5001C46.8873 17.2577 46.8484 17.0003 46.8608 16.7428C46.8608 16.4528 47.0783 15.9795 47.5134 15.304L47.7118 14.9987C46.7221 14.2889 46.2285 13.2406 46.2311 11.854C46.2311 10.4648 46.647 9.46108 47.4828 8.83519C48.4582 8.1702 49.6241 7.84189 50.8031 7.90016C51.4265 7.90024 52.0477 7.97325 52.6541 8.1177L53.0014 8.18258L56.1309 8.08717C56.2321 8.08717 56.3291 8.12738 56.4007 8.19895C56.4723 8.27052 56.5125 8.36759 56.5125 8.46881V10.0297C56.5076 10.1276 56.4652 10.2198 56.3942 10.2873C56.3231 10.3548 56.2289 10.3924 56.1309 10.3923L55.5469 10.3465C55.4852 10.3463 55.4244 10.3611 55.3696 10.3896C55.3148 10.418 55.2678 10.4594 55.2325 10.5101C55.1972 10.5607 55.1748 10.6192 55.1671 10.6804C55.1593 10.7417 55.1666 10.8039 55.1882 10.8617C55.2963 11.1468 55.3494 11.4499 55.3447 11.7548C55.3447 13.2088 54.963 14.2087 54.2379 14.7621C53.5128 15.3155 52.3297 15.5864 50.7535 15.5864C50.4535 15.5913 50.1538 15.5619 49.8605 15.4987C49.7337 15.7927 49.6588 16.1065 49.6391 16.4261C49.6364 16.5391 49.6729 16.6495 49.7425 16.7386C49.8121 16.8277 49.9105 16.8899 50.0208 16.9146C50.5922 17.0382 51.1768 17.0895 51.761 17.0672C53.5904 17.0825 54.8384 17.3255 55.505 17.7962C56.1728 18.2694 56.5087 19.1243 56.5087 20.3684ZM48.9751 20.6814C48.9751 21.3073 49.7383 21.6202 51.2649 21.6202C52.7915 21.6202 53.5548 21.2577 53.5548 20.5287C53.5806 20.3774 53.5576 20.2219 53.4889 20.0846C53.4203 19.9473 53.3097 19.8355 53.1731 19.7654C52.6339 19.6185 52.0752 19.5555 51.5168 19.5784L49.7422 19.4639C49.6854 19.4602 49.6285 19.4693 49.5757 19.4904C49.5229 19.5116 49.4754 19.5442 49.4368 19.5861C49.1521 19.881 48.9874 20.2715 48.9751 20.6814ZM49.1468 11.7662C49.1468 12.8348 49.704 13.3653 50.8146 13.3653C51.9252 13.3653 52.4785 12.8348 52.4785 11.7662C52.4785 10.6976 51.9252 10.1633 50.8146 10.1633C49.704 10.1633 49.1468 10.6862 49.1468 11.7662Z" fill="white"/>
<path d="M61.1986 16.2501C61.6178 16.5726 62.1401 16.7314 62.6679 16.6966C64.0189 16.6966 65.7745 16.5974 66.0264 16.5936C66.2783 16.5898 66.6332 16.4829 66.6446 16.9523L66.6713 18.3873C66.6741 18.474 66.6472 18.559 66.5952 18.6284C66.5432 18.6977 66.4691 18.7473 66.3851 18.7689C65.0849 19.0989 63.7498 19.2719 62.4084 19.2842C60.7673 19.2842 59.5766 18.8478 58.8362 17.9751C58.0958 17.1024 57.7256 15.6878 57.7256 13.7313C57.7256 9.82324 59.3298 7.87051 62.5382 7.87305C65.6943 7.87305 67.053 10.472 67.1751 12.6703C67.253 13.2769 67.2285 13.8923 67.1026 14.4907C67.0902 14.5792 67.0471 14.6606 66.9808 14.7205C66.9145 14.7805 66.8293 14.8153 66.74 14.8189H61.0688C61.0143 14.8185 60.9602 14.8297 60.9103 14.8519C60.8605 14.8741 60.816 14.9068 60.7798 14.9477C60.7436 14.9885 60.7166 15.0367 60.7007 15.0889C60.6847 15.1411 60.6801 15.1961 60.6872 15.2502C60.7328 15.6339 60.9142 15.9885 61.1986 16.2501ZM64.0342 12.594C64.1354 12.594 64.2325 12.5538 64.3041 12.4822C64.3756 12.4106 64.4158 12.3135 64.4158 12.2123C64.4358 11.7041 64.3029 11.2016 64.0342 10.7697C63.7556 10.4301 63.2709 10.2583 62.584 10.2583C62.3163 10.2305 62.0458 10.2642 61.7932 10.3568C61.5405 10.4494 61.3124 10.5984 61.1261 10.7926C60.8492 11.2119 60.6995 11.7023 60.6948 12.2047C60.6948 12.3059 60.735 12.403 60.8066 12.4746C60.8782 12.5461 60.9752 12.5863 61.0765 12.5863L64.0342 12.594Z" fill="white"/>
<path d="M70.9156 4.19826H78.5217C78.5671 4.19776 78.6122 4.20627 78.6543 4.22331C78.6964 4.24034 78.7347 4.26556 78.767 4.29751C78.7993 4.32945 78.825 4.36749 78.8425 4.40941C78.86 4.45133 78.869 4.49631 78.869 4.54174V8.56044C78.869 8.60587 78.86 8.65084 78.8425 8.69277C78.825 8.73469 78.7993 8.77273 78.767 8.80467C78.7347 8.83662 78.6964 8.86184 78.6543 8.87887C78.6122 8.89591 78.5671 8.90442 78.5217 8.90392H76.9951C76.9497 8.90391 76.9047 8.91292 76.8628 8.93042C76.8209 8.94792 76.7828 8.97356 76.7509 9.00586C76.7189 9.03816 76.6937 9.07648 76.6767 9.11859C76.6596 9.16071 76.6511 9.20578 76.6516 9.25121V11.0106C76.6516 16.7619 75.9227 18.8991 73.5031 21.4371C71.4613 23.5781 66.2214 23.975 61.0234 24.0131C60.9309 24.0131 60.8422 23.9767 60.7764 23.9117C60.7107 23.8466 60.6733 23.7583 60.6723 23.6658V22.1355C60.6711 22.0479 60.7039 21.9633 60.7636 21.8994C60.8233 21.8354 60.9054 21.7969 60.9928 21.792C62.1378 21.7309 66.3358 22.0286 68.4998 19.8838C71.0377 17.342 70.5797 13.4913 70.5797 9.9229V4.54174C70.5797 4.45195 70.6148 4.36572 70.6776 4.30153C70.7404 4.23733 70.8258 4.20026 70.9156 4.19826Z" fill="url(#paint0_linear_2276_7469)"/>
<path d="M0.532969 32.6025V28.2635H3.17273V28.6899H1.01578V30.1885H2.79652V30.6086H1.01578V32.1762H3.17273V32.6025H0.532969ZM7.26552 28.2635L8.36281 30.1195L9.46637 28.2635H9.9868L8.65124 30.4644L9.9868 32.6025H9.44129L8.35027 30.803L7.24044 32.6025H6.72001L8.06184 30.4769L6.72001 28.2635H7.26552ZM13.3139 28.6962V28.2635H16.449V28.6962H15.126V32.6025H14.6494V28.6962H13.3139ZM20.2009 32.6025V28.2635H22.8407V28.6899H20.6837V30.1885H22.4644V30.6086H20.6837V32.1762H22.8407V32.6025H20.2009ZM26.8018 32.6025V28.2635H27.7047L29.3663 32.1762H29.498V28.2635H29.9745V32.6025H29.0904L27.4037 28.6899H27.2846V32.6025H26.8018ZM35.3718 28.6209C34.7448 28.6209 34.4313 28.8571 34.4313 29.3295C34.4313 29.5928 34.5023 29.7747 34.6445 29.875C34.7908 29.9711 35.0834 30.0694 35.5223 30.1697C35.9654 30.2658 36.2789 30.3933 36.4628 30.5522C36.6467 30.7068 36.7387 30.9639 36.7387 31.3234C36.7387 32.2138 36.2768 32.659 35.353 32.659C35.0478 32.659 34.6654 32.6234 34.2055 32.5524L33.9798 32.521L34.03 32.1197C34.5985 32.195 35.0311 32.2326 35.3279 32.2326C35.9466 32.2326 36.2559 31.9421 36.2559 31.361C36.2559 31.1269 36.1869 30.9597 36.049 30.8594C35.9152 30.7549 35.6623 30.6671 35.2903 30.5961C34.8012 30.4916 34.4543 30.3578 34.2494 30.1948C34.0446 30.0276 33.9422 29.7496 33.9422 29.3608C33.9422 28.5833 34.4083 28.1946 35.3404 28.1946C35.6456 28.1946 36.0114 28.2259 36.4377 28.2886L36.6509 28.32L36.607 28.7275C36.026 28.6565 35.6142 28.6209 35.3718 28.6209ZM40.7077 32.6025V28.2635H41.1905V32.6025H40.7077ZM45.7057 30.4519C45.7057 31.0872 45.7893 31.545 45.9565 31.825C46.1237 32.1009 46.4455 32.2389 46.9221 32.2389C47.4028 32.2389 47.7247 32.103 47.8877 31.8313C48.0549 31.5596 48.1385 31.104 48.1385 30.4644C48.1385 29.8248 48.0528 29.3587 47.8814 29.0661C47.71 28.7735 47.3882 28.6272 46.9158 28.6272C46.4476 28.6272 46.1279 28.7735 45.9565 29.0661C45.7893 29.3546 45.7057 29.8165 45.7057 30.4519ZM48.6401 30.4644C48.6401 31.2377 48.5168 31.7979 48.2702 32.1448C48.0236 32.4918 47.5742 32.6652 46.9221 32.6652C46.2742 32.6652 45.8269 32.4876 45.5803 32.1323C45.3336 31.777 45.2103 31.2189 45.2103 30.4581C45.2103 29.6932 45.3357 29.1267 45.5865 28.7589C45.8373 28.3869 46.2825 28.2008 46.9221 28.2008C47.5616 28.2008 48.0068 28.3848 48.2576 28.7526C48.5126 29.1205 48.6401 29.6911 48.6401 30.4644ZM52.6603 32.6025V28.2635H53.5632L55.2248 32.1762H55.3565V28.2635H55.8331V32.6025H54.949L53.2623 28.6899H53.1431V32.6025H52.6603Z" fill="white"/>
<defs>
<linearGradient id="paint0_linear_2276_7469" x1="69.7698" y1="4.70888" x2="69.7698" y2="24.0707" gradientUnits="userSpaceOnUse">
<stop stop-color="#EF5525"/>
<stop offset="1" stop-color="#EF9D25"/>
</linearGradient>
</defs>
</svg>
