<svg width="123" height="14" viewBox="0 0 123 14" fill="none" xmlns="http://www.w3.org/2000/svg">
<path d="M109.684 3.24064C112.201 0.737496 116.284 0.737496 118.8 3.24064L120.975 5.40287L118.8 7.56511C116.284 10.0683 112.201 10.0683 109.684 7.56511L107.51 5.40287L109.684 3.24064Z" fill="black"/>
<path fill-rule="evenodd" clip-rule="evenodd" d="M105.941 5.40162L110.879 0.460938H117.611L122.549 5.40162L114.245 13.7018L105.941 5.40162ZM118.06 3.60284C115.962 1.49581 112.528 1.49582 110.43 3.60285L108.634 5.39824L110.43 7.19363C112.528 9.30064 115.962 9.30063 118.06 7.19362L119.856 5.39824L118.06 3.60284Z" fill="#0CE466"/>
<path d="M114.243 6.96612C113.375 6.96612 112.672 6.26313 112.672 5.39517C112.672 4.52721 113.375 3.82422 114.243 3.82422C115.11 3.82422 115.814 4.52721 115.814 5.39517C115.814 6.26313 115.11 6.96612 114.243 6.96612Z" fill="black"/>
<path fill-rule="evenodd" clip-rule="evenodd" d="M111.662 5.39725C111.662 6.82319 112.818 7.9781 114.243 7.9781C115.668 7.9781 116.824 6.82319 116.824 5.39725C116.824 3.97131 115.668 2.81641 114.243 2.81641C112.818 2.81641 111.662 3.97131 111.662 5.39725ZM113.121 5.39725C113.121 6.01723 113.624 6.51936 114.243 6.51936C114.862 6.51936 115.365 6.01723 115.365 5.39725C115.365 4.77728 114.862 4.27515 114.243 4.27515C113.624 4.27515 113.121 4.77728 113.121 5.39725Z" fill="white"/>
<path d="M54.7483 3.69286H56.2594C56.1901 1.74737 54.3957 0.292969 51.9024 0.292969C49.4344 0.292969 47.4951 1.72848 47.4951 3.89434C47.4951 5.63207 48.7544 6.66463 50.7691 7.24386L52.3558 7.69718C53.7158 8.07495 54.9246 8.55346 54.9246 9.83788C54.9246 11.2481 53.5646 12.1801 51.7765 12.1801C50.2403 12.1801 48.8803 11.5001 48.7544 10.0393H47.1426C47.2937 12.1548 49.0063 13.5903 51.7765 13.5903C54.7483 13.5903 56.4356 11.9534 56.4356 9.86302C56.4356 7.44535 54.1439 6.66463 52.8091 6.31204L51.4995 5.95947C50.5425 5.70762 49.0063 5.20393 49.0063 3.81879C49.0063 2.58475 50.1395 1.67811 51.8521 1.67811C53.4135 1.67811 54.5972 2.42106 54.7483 3.69286Z" fill="white"/>
<path d="M36.1309 13.3631H37.6924V9.18255L39.3042 7.36927L43.787 13.3631H45.6758L40.2611 6.28635L45.6758 0.46875H43.6358L37.8434 6.86559H37.6924V0.46875H36.1309V13.3631Z" fill="white"/>
<path fill-rule="evenodd" clip-rule="evenodd" d="M14.6585 0.40625C17.9576 0.40625 20.3502 2.94988 20.3502 7.02975C20.3502 11.1096 17.9576 13.6532 14.6585 13.6532C11.3593 13.6532 8.9668 11.1096 8.9668 7.02975C8.9668 2.94988 11.3593 0.40625 14.6585 0.40625ZM14.6585 12.1926C17.0006 12.1926 18.839 10.3792 18.839 7.02975C18.839 3.68022 17.0006 1.86694 14.6585 1.86694C12.3163 1.86694 10.4779 3.68022 10.4779 7.02975C10.4779 10.3792 12.3163 12.1926 14.6585 12.1926Z" fill="white"/>
<path fill-rule="evenodd" clip-rule="evenodd" d="M28.1643 0.40625C31.4634 0.40625 33.856 2.94988 33.856 7.02975C33.856 11.1096 31.4634 13.6532 28.1643 13.6532C24.8651 13.6532 22.4727 11.1096 22.4727 7.02975C22.4727 2.94988 24.8651 0.40625 28.1643 0.40625ZM28.1643 12.1926C30.5065 12.1926 32.345 10.3792 32.345 7.02975C32.345 3.68022 30.5065 1.86694 28.1643 1.86694C25.8221 1.86694 23.9837 3.68022 23.9837 7.02975C23.9837 10.3792 25.8221 12.1926 28.1643 12.1926Z" fill="white"/>
<path d="M7.55533 13.3632H0V0.46875H1.56143V11.978H7.55533V13.3632Z" fill="white"/>
<path fill-rule="evenodd" clip-rule="evenodd" d="M60.7138 13.3319H59.1523V0.4375H63.5093C66.5313 0.4375 67.8913 2.11226 67.8913 4.39145C67.8913 6.10399 67.1232 7.44506 65.4799 8.00541L68.395 13.3319H66.5817L63.8618 8.28874C63.7548 8.29504 63.6477 8.29504 63.5344 8.29504H60.7138V13.3319ZM60.7138 1.82264V6.8847H63.484C65.5491 6.8847 66.355 5.94029 66.355 4.39145C66.355 2.8426 65.5491 1.82264 63.4589 1.82264H60.7138Z" fill="white"/>
<path fill-rule="evenodd" clip-rule="evenodd" d="M72.3226 9.68013L71.0257 13.3319H69.3887L74.1234 0.4375H75.7352L80.4698 13.3319H78.8329L77.5358 9.68013H72.3226ZM74.8789 2.47744L72.8138 8.29504H77.0448L74.9797 2.47744H74.8789Z" fill="white"/>
<path fill-rule="evenodd" clip-rule="evenodd" d="M82.5137 13.3319H84.0751V8.29504H86.8958C87.0092 8.29504 87.1161 8.29504 87.2232 8.28874L89.9431 13.3319H91.7564L88.8412 8.00541C90.4846 7.44506 91.2526 6.10399 91.2526 4.39145C91.2526 2.11226 89.8928 0.4375 86.8706 0.4375H82.5137V13.3319ZM84.0751 6.8847V1.82264H86.8202C88.9106 1.82264 89.7165 2.8426 89.7165 4.39145C89.7165 5.94029 88.9106 6.8847 86.8455 6.8847H84.0751Z" fill="white"/>
<path d="M101.734 13.3319H93.8516V0.4375H101.633V1.82264H95.413V6.17954H101.231V7.56469H95.413V11.9468H101.734V13.3319Z" fill="white"/>
</svg>
