<svg width="32" height="32" viewBox="0 0 32 32" fill="none" xmlns="http://www.w3.org/2000/svg">
<rect width="32" height="32" rx="4" fill="#0CE466"/>
<path fill-rule="evenodd" clip-rule="evenodd" d="M16.4998 16.9606C14.6982 16.9606 13.2363 15.5002 13.2363 13.6971C13.2363 11.894 14.6982 10.4336 16.4998 10.4336C18.3015 10.4336 19.7634 11.894 19.7634 13.6971C19.7634 15.5002 18.3015 16.9606 16.4998 16.9606ZM15.0809 13.6971C15.0809 14.4811 15.7165 15.116 16.4998 15.116C17.2832 15.116 17.9188 14.4811 17.9188 13.6971C17.9188 12.9131 17.2832 12.2782 16.4998 12.2782C15.7165 12.2782 15.0809 12.9131 15.0809 13.6971Z" fill="white"/>
<path fill-rule="evenodd" clip-rule="evenodd" d="M6 13.7007L12.2432 7.45312H20.7568L27 13.7007L16.5 24.1964L6 13.7007ZM21.3243 11.4261C18.6716 8.76171 14.3284 8.76172 11.6757 11.4261L9.40541 13.6964L11.6757 15.9667C14.3284 18.631 18.6716 18.631 21.3243 15.9667L23.5946 13.6964L21.3243 11.4261Z" fill="white"/>
</svg>
