<svg width="24" height="24" viewBox="0 0 24 24" fill="none" xmlns="http://www.w3.org/2000/svg">
<path d="M14.6517 8.00533C14.3588 7.71244 13.8839 7.71244 13.591 8.00533C13.2981 8.29823 13.2981 8.7731 13.591 9.06599L14.6517 8.00533ZM16.2426 10.657L16.773 11.1873C17.0659 10.8944 17.0659 10.4195 16.773 10.1267L16.2426 10.657ZM13.591 12.248C13.2981 12.5409 13.2981 13.0157 13.591 13.3086C13.8839 13.6015 14.3588 13.6015 14.6517 13.3086L13.591 12.248ZM9.34835 13.3091C9.64124 13.602 10.1161 13.602 10.409 13.3091C10.7019 13.0162 10.7019 12.5414 10.409 12.2485L9.34835 13.3091ZM7.75736 10.6575L7.22703 10.1271C6.93414 10.42 6.93414 10.8949 7.22703 11.1878L7.75736 10.6575ZM10.409 9.06648C10.7019 8.77359 10.7019 8.29871 10.409 8.00582C10.1161 7.71293 9.64124 7.71293 9.34835 8.00582L10.409 9.06648ZM7.5 19.25C7.08579 19.25 6.75 19.5858 6.75 20C6.75 20.4142 7.08579 20.75 7.5 20.75V19.25ZM16.5 20.75C16.9142 20.75 17.25 20.4142 17.25 20C17.25 19.5858 16.9142 19.25 16.5 19.25V20.75ZM15.7486 3.25H8.25143V4.75H15.7486V3.25ZM8.25143 3.25C6.80379 3.25 5.55322 3.6673 4.65293 4.45198C3.74434 5.24389 3.25 6.36203 3.25 7.63035H4.75C4.75 6.77118 5.07471 6.07414 5.6385 5.58275C6.21059 5.08413 7.08573 4.75 8.25143 4.75V3.25ZM3.25 7.63035V13.3696H4.75V7.63035H3.25ZM3.25 13.3696C3.25 14.6369 3.74164 15.7552 4.64971 16.5477C5.54947 17.3329 6.80044 17.75 8.25143 17.75V16.25C7.08147 16.25 6.20672 15.9156 5.636 15.4176C5.07359 14.9267 4.75 14.2299 4.75 13.3696H3.25ZM8.25143 17.75H15.7486V16.25H8.25143V17.75ZM15.7486 17.75C17.1996 17.75 18.4505 17.3329 19.3503 16.5477C20.2584 15.7552 20.75 14.6369 20.75 13.3696H19.25C19.25 14.2299 18.9264 14.9267 18.364 15.4176C17.7933 15.9156 16.9185 16.25 15.7486 16.25V17.75ZM20.75 13.3696V7.63035H19.25V13.3696H20.75ZM20.75 7.63035C20.75 6.36311 20.2584 5.24477 19.3503 4.45229C18.4505 3.66706 17.1996 3.25 15.7486 3.25V4.75C16.9185 4.75 17.7933 5.08437 18.364 5.58244C18.9264 6.07326 19.25 6.7701 19.25 7.63035H20.75ZM13.591 9.06599L15.7123 11.1873L16.773 10.1267L14.6517 8.00533L13.591 9.06599ZM15.7123 10.1267L13.591 12.248L14.6517 13.3086L16.773 11.1873L15.7123 10.1267ZM10.409 12.2485L8.28769 10.1271L7.22703 11.1878L9.34835 13.3091L10.409 12.2485ZM8.28769 11.1878L10.409 9.06648L9.34835 8.00582L7.22703 10.1271L8.28769 11.1878ZM7.5 20.75H16.5V19.25H7.5V20.75Z" fill="white" fill-opacity="0.35"/>
</svg>
