<svg width="32" height="32" viewBox="0 0 32 32" fill="none" xmlns="http://www.w3.org/2000/svg">
<rect width="32" height="32" rx="4" fill="#006FFF"/>
<path d="M27 17.2628V18.3078C27 18.3678 26.9633 18.4211 26.91 18.4445C26.5833 18.5845 25.465 19.0978 25 19.7445C23.8133 21.3961 22.9067 23.7578 20.88 23.7578H12.425C9.42835 23.7578 7 21.3212 7 18.3145V18.2178C7 18.1378 7.06499 18.0728 7.14499 18.0728H11.8583C11.9517 18.0728 12.02 18.1595 12.0117 18.2511C11.9783 18.5578 12.035 18.8711 12.18 19.1561C12.46 19.7245 13.04 20.0795 13.6667 20.0795H16V18.2578H13.6933C13.575 18.2578 13.505 18.1211 13.5733 18.0245C13.5983 17.9861 13.6267 17.9462 13.6567 17.9012C13.875 17.5912 14.1867 17.1095 14.4967 16.5612C14.7083 16.1912 14.9133 15.7962 15.0783 15.3995C15.1117 15.3278 15.1383 15.2545 15.165 15.1828C15.21 15.0561 15.2567 14.9378 15.29 14.8195C15.3234 14.7195 15.35 14.6145 15.3767 14.5161C15.455 14.1795 15.4883 13.8228 15.4883 13.4528C15.4883 13.3078 15.4817 13.1561 15.4683 13.0111C15.4617 12.8528 15.4417 12.6945 15.4217 12.5361C15.4083 12.3961 15.3833 12.2578 15.3567 12.1128C15.3234 11.9011 15.2767 11.6912 15.2233 11.4795L15.205 11.3995C15.165 11.2545 15.1317 11.1162 15.085 10.9712C14.9533 10.5161 14.8017 10.0728 14.6417 9.65782C14.5833 9.49281 14.5167 9.33449 14.45 9.17616C14.3517 8.93782 14.2517 8.72116 14.16 8.51615C14.1133 8.42281 14.0733 8.3378 14.0333 8.25114C13.9883 8.1528 13.9417 8.05447 13.895 7.96116C13.8617 7.88949 13.8233 7.82282 13.7967 7.75614L13.5117 7.22948C13.4717 7.15781 13.5383 7.07281 13.6167 7.09448L15.4 7.5778H15.405C15.4083 7.5778 15.4117 7.57948 15.4117 7.57948L15.6467 7.64447L15.905 7.71783L16 7.74446V6.68448C16 6.1728 16.41 5.75781 16.9167 5.75781C17.17 5.75781 17.4 5.86115 17.565 6.02947C17.73 6.19782 17.8333 6.42782 17.8333 6.68448V8.25783L18.0234 8.31113C18.0383 8.31616 18.0533 8.32281 18.0667 8.33281C18.1134 8.36781 18.18 8.41946 18.265 8.48283C18.3317 8.53613 18.4033 8.60115 18.49 8.66782C18.6617 8.80613 18.8667 8.98448 19.0917 9.18949C19.1517 9.24114 19.21 9.29448 19.2633 9.34782C19.5534 9.61782 19.8783 9.93447 20.1883 10.2845C20.275 10.3828 20.36 10.4828 20.4467 10.5878C20.5333 10.6945 20.625 10.7995 20.705 10.9045C20.81 11.0445 20.9233 11.1895 21.0217 11.3412C21.0683 11.4128 21.1217 11.4861 21.1667 11.5578C21.2933 11.7495 21.405 11.9478 21.5117 12.1462C21.5567 12.2378 21.6033 12.3378 21.6433 12.4361C21.7617 12.7011 21.855 12.9711 21.915 13.2411C21.9333 13.2995 21.9467 13.3628 21.9533 13.4195V13.4328C21.9733 13.5128 21.98 13.5978 21.9867 13.6845C22.0133 13.9611 22 14.2378 21.94 14.5161C21.915 14.6345 21.8817 14.7461 21.8417 14.8645C21.8017 14.9778 21.7617 15.0961 21.71 15.2078C21.61 15.4395 21.4917 15.6711 21.3517 15.8878C21.3067 15.9678 21.2533 16.0528 21.2 16.1328C21.1417 16.2178 21.0817 16.2978 21.0283 16.3762C20.955 16.4762 20.8767 16.5811 20.7967 16.6745C20.725 16.7728 20.6517 16.8712 20.5717 16.9578C20.46 17.0895 20.3533 17.2145 20.2417 17.3345C20.175 17.4128 20.1033 17.4928 20.03 17.5645C19.9584 17.6445 19.885 17.7161 19.8183 17.7828C19.7067 17.8945 19.6133 17.9811 19.535 18.0528L19.3517 18.2212C19.325 18.2445 19.29 18.2578 19.2533 18.2578H17.8333V20.0795H19.62C20.02 20.0795 20.4 19.9378 20.7067 19.6778C20.8117 19.5861 21.27 19.1895 21.8117 18.5912C21.83 18.5711 21.8534 18.5561 21.88 18.5495L26.815 17.1228C26.9067 17.0962 27 17.1661 27 17.2628Z" fill="white"/>
<path d="M8.02454 15.5362L8.09864 15.4261L12.5669 8.82463C12.6322 8.72798 12.7857 8.73798 12.8351 8.84296C13.5816 10.4229 14.2257 12.3879 13.9239 13.6112C13.7951 14.1145 13.4422 14.7962 13.0451 15.4261C12.994 15.5178 12.9375 15.6078 12.8775 15.6945C12.8492 15.7345 12.8016 15.7578 12.7504 15.7578H8.15512C8.03159 15.7578 7.95924 15.6312 8.02454 15.5362Z" fill="white"/>
</svg>
