<svg width="113" height="26" viewBox="0 0 113 26" fill="none" xmlns="http://www.w3.org/2000/svg">
<g clip-path="url(#clip0_2823_10225)">
<path d="M25.799 12.9873C25.799 20.0625 20.0233 25.7988 12.8995 25.7988C5.77569 25.7988 0 20.0625 0 12.9873C0 5.91209 5.77569 0.175781 12.8995 0.175781C20.0248 0.175781 25.799 5.91209 25.799 12.9873Z" fill="#2081E2"/>
<path d="M6.36413 13.4159L6.41978 13.329L9.77545 8.11527C9.8245 8.03894 9.93979 8.04683 9.97689 8.12975C10.5375 9.37757 11.0212 10.9295 10.7946 11.8956C10.6979 12.2931 10.4328 12.8315 10.1346 13.329C10.0962 13.4014 10.0538 13.4725 10.0087 13.5409C9.9875 13.5725 9.95171 13.5909 9.91327 13.5909H6.4622C6.36942 13.5909 6.31509 13.4909 6.36413 13.4159Z" fill="white"/>
<path d="M21.3216 14.387V15.2123C21.3216 15.2596 21.2924 15.3018 21.25 15.3202C20.9903 15.4308 20.101 15.8362 19.7312 16.3469C18.7876 17.6513 18.0667 19.5165 16.4551 19.5165H9.73181C7.34894 19.5165 5.41797 17.5921 5.41797 15.2175V15.1412C5.41797 15.078 5.46964 15.0267 5.53326 15.0267H9.28123C9.35543 15.0267 9.40976 15.0951 9.40316 15.1675C9.37664 15.4097 9.42171 15.6572 9.537 15.8822C9.75965 16.3311 10.2209 16.6115 10.7192 16.6115H12.5746V15.1728H10.7404C10.6463 15.1728 10.5906 15.0648 10.645 14.9885C10.6648 14.9582 10.6874 14.9266 10.7112 14.8911C10.8848 14.6463 11.1327 14.2659 11.3792 13.8328C11.5475 13.5406 11.7105 13.2287 11.8417 12.9154C11.8682 12.8588 11.8894 12.8009 11.9106 12.7443C11.9464 12.6442 11.9835 12.5508 12.01 12.4573C12.0365 12.3783 12.0577 12.2954 12.0789 12.2177C12.1412 11.9519 12.1677 11.6702 12.1677 11.378C12.1677 11.2635 12.1624 11.1437 12.1518 11.0292C12.1465 10.9041 12.1306 10.7791 12.1147 10.654C12.1041 10.5435 12.0842 10.4342 12.063 10.3197C12.0365 10.1525 11.9994 9.9867 11.957 9.81951L11.9424 9.75635C11.9106 9.64181 11.8841 9.53258 11.847 9.41807C11.7423 9.05871 11.6217 8.7086 11.4945 8.38085C11.4481 8.25053 11.3951 8.12549 11.3421 8.00045C11.2639 7.81222 11.1843 7.64111 11.1115 7.4792C11.0744 7.40548 11.0426 7.33835 11.0107 7.26991C10.975 7.19225 10.9379 7.11459 10.9007 7.04089C10.8742 6.98429 10.8437 6.93164 10.8225 6.87898L10.5959 6.46304C10.5641 6.40644 10.6171 6.33931 10.6794 6.35643L12.0975 6.73813H12.1015C12.1041 6.73813 12.1054 6.73946 12.1068 6.73946L12.2936 6.79079L12.4991 6.84872L12.5746 6.86976V6.03263C12.5746 5.62853 12.9006 5.30078 13.3035 5.30078C13.505 5.30078 13.6879 5.38239 13.8191 5.51532C13.9503 5.64828 14.0324 5.82992 14.0324 6.03263V7.27519L14.1835 7.31729C14.1954 7.32126 14.2074 7.32651 14.218 7.33441C14.2551 7.36205 14.3081 7.40285 14.3757 7.45289C14.4287 7.49499 14.4857 7.54633 14.5546 7.59899C14.6911 7.70822 14.8541 7.84907 15.033 8.01098C15.0807 8.05177 15.1271 8.0939 15.1695 8.13602C15.4002 8.34926 15.6586 8.59934 15.9051 8.87576C15.974 8.95342 16.0416 9.03239 16.1105 9.11531C16.1794 9.19956 16.2523 9.28248 16.3159 9.36542C16.3994 9.47598 16.4895 9.59049 16.5677 9.71028C16.6048 9.76688 16.6473 9.82479 16.683 9.88139C16.7838 10.0327 16.8726 10.1894 16.9574 10.346C16.9932 10.4184 17.0303 10.4974 17.0621 10.5751C17.1562 10.7843 17.2304 10.9976 17.2781 11.2108C17.2927 11.2569 17.3033 11.3069 17.3086 11.3517V11.3622C17.3245 11.4254 17.3298 11.4925 17.3351 11.5609C17.3563 11.7794 17.3457 11.9979 17.298 12.2177C17.2781 12.3112 17.2516 12.3994 17.2198 12.4929C17.188 12.5824 17.1562 12.6758 17.1151 12.764C17.0356 12.947 16.9415 13.1299 16.8301 13.301C16.7944 13.3642 16.7519 13.4314 16.7095 13.4945C16.6631 13.5617 16.6154 13.6248 16.573 13.6867C16.5147 13.7657 16.4524 13.8486 16.3888 13.9223C16.3318 14 16.2735 14.0777 16.2099 14.1461C16.1211 14.2501 16.0363 14.3488 15.9475 14.4436C15.8945 14.5054 15.8375 14.5686 15.7792 14.6252C15.7222 14.6884 15.6639 14.745 15.6109 14.7976C15.5221 14.8858 15.4479 14.9543 15.3856 15.0109L15.2398 15.1438C15.2186 15.1622 15.1907 15.1728 15.1616 15.1728H14.0324V16.6115H15.4531C15.7712 16.6115 16.0734 16.4996 16.3173 16.2942C16.4007 16.2218 16.7652 15.9086 17.1959 15.436C17.2105 15.4202 17.2291 15.4084 17.2503 15.4031L21.1745 14.2764C21.2474 14.2553 21.3216 14.3106 21.3216 14.387Z" fill="white"/>
<path d="M38.3685 19.1349C37.2024 19.1349 36.1305 18.8754 35.1529 18.3563C34.187 17.8372 33.4154 17.115 32.8382 16.1897C32.273 15.2531 31.9902 14.2037 31.9902 13.0414C31.9902 11.8791 32.273 10.8353 32.8382 9.91003C33.4154 8.98473 34.187 8.26252 35.1529 7.74345C36.1305 7.22438 37.2024 6.96484 38.3685 6.96484C39.5346 6.96484 40.6006 7.22438 41.5665 7.74345C42.5443 8.26252 43.3098 8.98473 43.8634 9.91003C44.4289 10.8353 44.7114 11.8791 44.7114 13.0414C44.7114 14.2037 44.4289 15.2531 43.8634 16.1897C43.2982 17.115 42.5325 17.8372 41.5665 18.3563C40.6006 18.8754 39.5346 19.1349 38.3685 19.1349ZM38.3685 16.4944C39.3579 16.4944 40.1471 16.1784 40.7361 15.5465C41.3369 14.9146 41.6372 14.0796 41.6372 13.0414C41.6372 11.992 41.3369 11.157 40.7361 10.5363C40.1471 9.9044 39.3579 9.58844 38.3685 9.58844C37.3673 9.58844 36.5665 9.89876 35.9656 10.5194C35.3766 11.14 35.0822 11.9807 35.0822 13.0414C35.0822 14.0908 35.3766 14.9315 35.9656 15.5635C36.5665 16.1841 37.3673 16.4944 38.3685 16.4944Z" fill="white"/>
<path d="M49.4139 10.9101C49.7083 10.47 50.1146 10.1146 50.6329 9.84375C51.1512 9.57292 51.7577 9.4375 52.4528 9.4375C53.2654 9.4375 54.0017 9.63498 54.6614 10.0299C55.3208 10.4249 55.8391 10.9891 56.216 11.7226C56.6048 12.456 56.7991 13.308 56.7991 14.2785C56.7991 15.2489 56.6048 16.1065 56.216 16.8513C55.8391 17.5848 55.3208 18.1546 54.6614 18.5608C54.0017 18.9558 53.2654 19.1532 52.4528 19.1532C51.7696 19.1532 51.1631 19.0179 50.6329 18.747C50.1146 18.4762 49.7083 18.1264 49.4139 17.6976V21.8276H46.3926V9.57292H49.4139V10.9101ZM53.7249 14.2785C53.7249 13.5563 53.5128 12.9921 53.0887 12.5858C52.6764 12.1683 52.1641 11.9596 51.5516 11.9596C50.951 11.9596 50.4386 12.1683 50.0145 12.5858C49.6022 13.0033 49.3961 13.5732 49.3961 14.2954C49.3961 15.0176 49.6022 15.5874 50.0145 16.0049C50.4386 16.4225 50.951 16.6312 51.5516 16.6312C52.1525 16.6312 52.6648 16.4225 53.0887 16.0049C53.5128 15.5761 53.7249 15.0006 53.7249 14.2785Z" fill="white"/>
<path d="M67.6774 14.143C67.6774 14.4139 67.6598 14.696 67.6245 14.9894H60.7867C60.8339 15.5761 61.0282 16.0275 61.3698 16.3435C61.7232 16.6482 62.153 16.8005 62.6597 16.8005C63.4136 16.8005 63.9375 16.4958 64.2322 15.8865H67.4477C67.2829 16.5071 66.9826 17.0657 66.5466 17.5622C66.1227 18.0587 65.5866 18.448 64.9388 18.7301C64.291 19.0122 63.5666 19.1533 62.7658 19.1533C61.7998 19.1533 60.94 18.9558 60.1861 18.5608C59.4323 18.1659 58.8433 17.6017 58.4191 16.8682C57.9953 16.1347 57.7832 15.2771 57.7832 14.2954C57.7832 13.3137 57.9893 12.456 58.4016 11.7226C58.8255 10.9891 59.4145 10.4249 60.1683 10.0299C60.9222 9.63498 61.788 9.4375 62.7658 9.4375C63.7198 9.4375 64.5678 9.62934 65.3098 10.013C66.052 10.3967 66.6292 10.944 67.0414 11.6549C67.4656 12.3658 67.6774 13.1952 67.6774 14.143ZM64.5856 13.3813C64.5856 12.8849 64.4089 12.4899 64.0554 12.1965C63.702 11.9031 63.2603 11.7564 62.7304 11.7564C62.2237 11.7564 61.7939 11.8975 61.4405 12.1796C61.0989 12.4617 60.8868 12.8623 60.8045 13.3813H64.5856Z" fill="white"/>
<path d="M75.2788 9.47266C76.433 9.47266 77.3517 9.83374 78.0349 10.5559C78.7299 11.2668 79.0774 12.2486 79.0774 13.5011V19.0191H76.0736V13.8904C76.0736 13.2585 75.9028 12.7677 75.5613 12.4178C75.2197 12.068 74.7605 11.8931 74.1833 11.8931C73.606 11.8931 73.1467 12.068 72.8052 12.4178C72.4636 12.7677 72.2928 13.2585 72.2928 13.8904V19.0191H69.2715V9.5742H72.2928V10.8268C72.599 10.4092 73.0113 10.082 73.5296 9.84504C74.0476 9.59677 74.6307 9.47266 75.2788 9.47266Z" fill="white"/>
<path d="M85.6654 19.1349C84.7586 19.1349 83.9456 18.9939 83.2271 18.7118C82.5086 18.4296 81.9315 18.0121 81.4958 17.4592C81.0716 16.9063 80.8477 16.2405 80.8242 15.4619H84.0398C84.087 15.902 84.2459 16.2405 84.5171 16.4775C84.788 16.7032 85.1412 16.816 85.5772 16.816C86.0248 16.816 86.378 16.7201 86.6372 16.5283C86.8963 16.3251 87.026 16.0487 87.026 15.6989C87.026 15.4055 86.92 15.1629 86.7079 14.971C86.5077 14.7792 86.2544 14.6212 85.9481 14.4971C85.6535 14.373 85.2296 14.2319 84.676 14.0739C83.8749 13.8369 83.2212 13.6 82.7148 13.363C82.2083 13.1261 81.7726 12.7762 81.4073 12.3136C81.0422 11.8509 80.8596 11.2472 80.8596 10.5025C80.8596 9.3966 81.2778 8.53336 82.1142 7.91272C82.9503 7.2808 84.0398 6.96484 85.3826 6.96484C86.7492 6.96484 87.8503 7.2808 88.6867 7.91272C89.5231 8.53336 89.9707 9.40224 90.0295 10.5194H86.7608C86.7373 10.1357 86.59 9.83668 86.3191 9.62229C86.0483 9.3966 85.7007 9.28376 85.2766 9.28376C84.9115 9.28376 84.6172 9.37966 84.3932 9.5715C84.1696 9.75204 84.0576 10.0172 84.0576 10.367C84.0576 10.7507 84.2459 11.0497 84.6231 11.2641C85 11.4785 85.5888 11.7099 86.3898 11.9581C87.1909 12.2177 87.8387 12.4659 88.3333 12.7029C88.84 12.9399 89.2757 13.284 89.6408 13.7354C90.0061 14.1868 90.1885 14.7679 90.1885 15.4788C90.1885 16.1559 90.0061 16.7709 89.6408 17.3238C89.2876 17.8767 88.7693 18.3168 88.0861 18.6441C87.403 18.9713 86.596 19.1349 85.6654 19.1349Z" fill="white"/>
<path d="M101.342 14.143C101.342 14.4139 101.324 14.696 101.289 14.9894H94.4508C94.498 15.5761 94.6923 16.0275 95.0338 16.3435C95.3873 16.6482 95.8174 16.8005 96.3238 16.8005C97.0776 16.8005 97.6019 16.4958 97.8962 15.8865H101.112C100.947 16.5071 100.647 17.0657 100.211 17.5622C99.7868 18.0587 99.2509 18.448 98.6029 18.7301C97.9551 19.0122 97.2306 19.1533 96.4298 19.1533C95.4639 19.1533 94.604 18.9558 93.8502 18.5608C93.0963 18.1659 92.5073 17.6017 92.0832 16.8682C91.6593 16.1347 91.4473 15.2771 91.4473 14.2954C91.4473 13.3137 91.6534 12.456 92.0657 11.7226C92.4895 10.9891 93.0785 10.4249 93.8324 10.0299C94.5862 9.63498 95.452 9.4375 96.4298 9.4375C97.3839 9.4375 98.2319 9.62934 98.9741 10.013C99.7161 10.3967 100.293 10.944 100.705 11.6549C101.13 12.3658 101.342 13.1952 101.342 14.143ZM98.2497 13.3813C98.2497 12.8849 98.073 12.4899 97.7195 12.1965C97.3661 11.9031 96.9244 11.7564 96.3945 11.7564C95.888 11.7564 95.458 11.8975 95.1045 12.1796C94.7629 12.4617 94.5509 12.8623 94.4686 13.3813H98.2497Z" fill="white"/>
<path d="M102.334 14.2785C102.334 13.308 102.523 12.456 102.9 11.7226C103.288 10.9891 103.812 10.4249 104.472 10.0299C105.132 9.63498 105.868 9.4375 106.681 9.4375C107.375 9.4375 107.982 9.57292 108.5 9.84375C109.03 10.1146 109.437 10.47 109.719 10.9101V9.57292H112.741V19.0179H109.719V17.6807C109.425 18.1207 109.013 18.4762 108.483 18.747C107.964 19.0179 107.358 19.1533 106.663 19.1533C105.862 19.1533 105.132 18.9558 104.472 18.5608C103.812 18.1546 103.288 17.5848 102.9 16.8513C102.523 16.1065 102.334 15.2489 102.334 14.2785ZM109.719 14.2954C109.719 13.5732 109.507 13.0033 109.084 12.5858C108.671 12.1683 108.165 11.9596 107.564 11.9596C106.963 11.9596 106.451 12.1683 106.027 12.5858C105.615 12.9921 105.408 13.5563 105.408 14.2785C105.408 15.0007 105.615 15.5761 106.027 16.0049C106.451 16.4225 106.963 16.6312 107.564 16.6312C108.165 16.6312 108.671 16.4225 109.084 16.0049C109.507 15.5874 109.719 15.0176 109.719 14.2954Z" fill="white"/>
</g>
<defs>
<clipPath id="clip0_2823_10225">
<rect width="112.741" height="25.6231" fill="white" transform="translate(0 0.175781)"/>
</clipPath>
</defs>
</svg>
