<svg width="24" height="24" viewBox="0 0 24 24" fill="none" xmlns="http://www.w3.org/2000/svg">
<path d="M18.4417 15.1958L17.7513 14.9028H17.7513L18.4417 15.1958ZM9.26553 18.9032L9.55858 18.2128L9.26553 18.9032ZM5.55812 9.72706L4.86774 9.43401L5.55812 9.72706ZM8.42804 7.33387C8.76817 7.09747 8.85226 6.6301 8.61586 6.28997C8.37946 5.94984 7.91209 5.86575 7.57196 6.10215L8.42804 7.33387ZM16.4287 6.10216C16.0886 5.86575 15.6212 5.94983 15.3848 6.28995C15.1484 6.63007 15.2325 7.09744 15.5726 7.33385L16.4287 6.10216ZM11.25 11.5C11.25 11.9142 11.5858 12.25 12 12.25C12.4142 12.25 12.75 11.9142 12.75 11.5H11.25ZM12.75 3.5C12.75 3.08579 12.4142 2.75 12 2.75C11.5858 2.75 11.25 3.08579 11.25 3.5H12.75ZM17.7513 14.9028C16.403 18.0792 12.735 19.5611 9.55858 18.2128L8.97248 19.5936C12.9115 21.2656 17.4601 19.4278 19.1321 15.4889L17.7513 14.9028ZM9.55858 18.2128C6.38216 16.8645 4.90019 13.1965 6.2485 10.0201L4.86774 9.43401C3.19574 13.373 5.0335 17.9216 8.97248 19.5936L9.55858 18.2128ZM6.2485 10.0201C6.7264 8.89424 7.49421 7.9829 8.42804 7.33387L7.57196 6.10215C6.41269 6.90787 5.45937 8.04022 4.86774 9.43401L6.2485 10.0201ZM15.5726 7.33385C17.9502 8.98645 18.9272 12.1324 17.7513 14.9028L19.1321 15.4889C20.5911 12.0516 19.3776 8.15185 16.4287 6.10216L15.5726 7.33385ZM12.75 11.5V3.5H11.25V11.5H12.75Z" fill="url(#paint0_linear_2299_8983)"/>
<defs>
<linearGradient id="paint0_linear_2299_8983" x1="5" y1="11.4807" x2="18.9998" y2="11.4807" gradientUnits="userSpaceOnUse">
<stop stop-color="#FFA620"/>
<stop offset="1" stop-color="#EF5B25"/>
</linearGradient>
</defs>
</svg>
