<svg width="16" height="16" viewBox="0 0 16 16" fill="none" xmlns="http://www.w3.org/2000/svg">
<path d="M13.4173 7.33333C13.4173 6.91912 13.0815 6.58333 12.6673 6.58333C12.2531 6.58333 11.9173 6.91912 11.9173 7.33333H13.4173ZM4.66732 11.25C4.2531 11.25 3.91732 11.5858 3.91732 12C3.91732 12.4142 4.2531 12.75 4.66732 12.75L4.66732 11.25ZM5.47032 14.5303C5.76321 14.8232 6.23809 14.8232 6.53098 14.5303C6.82387 14.2374 6.82387 13.7626 6.53098 13.4697L5.47032 14.5303ZM4.00065 12L3.47032 11.4697C3.17743 11.7626 3.17743 12.2374 3.47032 12.5303L4.00065 12ZM6.53098 10.5303C6.82387 10.2374 6.82387 9.76256 6.53098 9.46967C6.23809 9.17678 5.76321 9.17678 5.47032 9.46967L6.53098 10.5303ZM2.58398 8.66667C2.58398 9.08088 2.91977 9.41667 3.33398 9.41667C3.7482 9.41667 4.08398 9.08088 4.08398 8.66667L2.58398 8.66667ZM11.334 4.75C11.7482 4.75 12.084 4.41421 12.084 4C12.084 3.58579 11.7482 3.25 11.334 3.25L11.334 4.75ZM10.531 1.46967C10.2381 1.17678 9.76321 1.17678 9.47032 1.46967C9.17743 1.76256 9.17743 2.23744 9.47032 2.53033L10.531 1.46967ZM12.0007 4L12.531 4.53033C12.8239 4.23744 12.8239 3.76256 12.531 3.46967L12.0007 4ZM9.47032 5.46967C9.17743 5.76256 9.17743 6.23744 9.47032 6.53033C9.76321 6.82322 10.2381 6.82322 10.531 6.53033L9.47032 5.46967ZM3.33398 6.66667L4.08398 6.66667L4.08398 6.66667L3.33398 6.66667ZM6.00065 4L6.00065 3.25L6.00065 3.25L6.00065 4ZM10.0007 12L10.0007 12.75L10.0007 12ZM11.9173 7.33333V9.33333H13.4173V7.33333H11.9173ZM10.0007 11.25L4.66732 11.25L4.66732 12.75L10.0007 12.75L10.0007 11.25ZM6.53098 13.4697L4.53098 11.4697L3.47032 12.5303L5.47032 14.5303L6.53098 13.4697ZM4.53098 12.5303L6.53098 10.5303L5.47032 9.46967L3.47032 11.4697L4.53098 12.5303ZM4.08398 8.66667L4.08398 6.66667L2.58398 6.66667L2.58398 8.66667L4.08398 8.66667ZM6.00065 4.75L11.334 4.75L11.334 3.25L6.00065 3.25L6.00065 4.75ZM9.47032 2.53033L11.4703 4.53033L12.531 3.46967L10.531 1.46967L9.47032 2.53033ZM11.4703 3.46967L9.47032 5.46967L10.531 6.53033L12.531 4.53033L11.4703 3.46967ZM4.08398 6.66667C4.08398 5.60812 4.94211 4.75 6.00065 4.75L6.00065 3.25C4.11368 3.25 2.58398 4.77969 2.58398 6.66667L4.08398 6.66667ZM11.9173 9.33333C11.9173 10.3919 11.0592 11.25 10.0007 11.25L10.0007 12.75C11.8876 12.75 13.4173 11.2203 13.4173 9.33333H11.9173Z" fill="white" fill-opacity="0.35"/>
</svg>
