<svg width="16" height="17" viewBox="0 0 16 17" fill="none" xmlns="http://www.w3.org/2000/svg">
<path d="M13.1415 9.16536C13.1415 8.75115 12.8057 8.41536 12.3915 8.41536C11.9773 8.41536 11.6415 8.75115 11.6415 9.16536H13.1415ZM9.8817 12.4154C9.46749 12.4154 9.1317 12.7512 9.1317 13.1654C9.1317 13.5796 9.46749 13.9154 9.8817 13.9154V12.4154ZM4.35719 9.16536C4.35719 8.75115 4.02141 8.41536 3.60719 8.41536C3.19298 8.41536 2.85719 8.75115 2.85719 9.16536H4.35719ZM6.117 13.9154C6.53121 13.9154 6.867 13.5796 6.867 13.1654C6.867 12.7512 6.53121 12.4154 6.117 12.4154V13.9154ZM11.6415 6.4987C11.6415 6.91291 11.9773 7.2487 12.3915 7.2487C12.8057 7.2487 13.1415 6.91291 13.1415 6.4987H11.6415ZM9.8817 3.08203C9.46749 3.08203 9.1317 3.41782 9.1317 3.83203C9.1317 4.24624 9.46749 4.58203 9.8817 4.58203V3.08203ZM2.85719 6.4987C2.85719 6.91291 3.19298 7.2487 3.60719 7.2487C4.02141 7.2487 4.35719 6.91291 4.35719 6.4987H2.85719ZM6.117 4.58203C6.53121 4.58203 6.867 4.24624 6.867 3.83203C6.867 3.41782 6.53121 3.08203 6.117 3.08203V4.58203ZM2.66602 8.41536C2.2518 8.41536 1.91602 8.75115 1.91602 9.16536C1.91602 9.57958 2.2518 9.91536 2.66602 9.91536V8.41536ZM13.3327 9.91536C13.7469 9.91536 14.0827 9.57958 14.0827 9.16536C14.0827 8.75115 13.7469 8.41536 13.3327 8.41536V9.91536ZM11.6415 9.16536V11.1654H13.1415V9.16536H11.6415ZM10.5092 12.4154H9.8817V13.9154H10.5092V12.4154ZM11.6415 11.1654C11.6415 11.8992 11.0923 12.4154 10.5092 12.4154V13.9154C12.0051 13.9154 13.1415 12.6407 13.1415 11.1654H11.6415ZM2.85719 9.16536V11.1654H4.35719V9.16536H2.85719ZM5.48954 13.9154H6.117V12.4154H5.48954V13.9154ZM2.85719 11.1654C2.85719 12.6407 3.99355 13.9154 5.48954 13.9154V12.4154C4.90635 12.4154 4.35719 11.8992 4.35719 11.1654H2.85719ZM13.1415 6.4987V5.83203H11.6415V6.4987H13.1415ZM10.5092 3.08203H9.8817V4.58203H10.5092V3.08203ZM13.1415 5.83203C13.1415 4.35673 12.0051 3.08203 10.5092 3.08203V4.58203C11.0923 4.58203 11.6415 5.09819 11.6415 5.83203H13.1415ZM4.35719 6.4987V5.83203H2.85719V6.4987H4.35719ZM5.48954 4.58203H6.117V3.08203H5.48954V4.58203ZM4.35719 5.83203C4.35719 5.09819 4.90635 4.58203 5.48954 4.58203V3.08203C3.99355 3.08203 2.85719 4.35673 2.85719 5.83203H4.35719ZM2.66602 9.91536H13.3327V8.41536H2.66602V9.91536Z" fill="url(#paint0_linear_5652_9706)"/>
<defs>
<linearGradient id="paint0_linear_5652_9706" x1="2.66602" y1="8.4987" x2="13.3327" y2="8.4987" gradientUnits="userSpaceOnUse">
<stop stop-color="#FFA620"/>
<stop offset="1" stop-color="#EF5B25"/>
</linearGradient>
</defs>
</svg>
