<svg width="109" height="85" viewBox="0 0 109 85" fill="none" xmlns="http://www.w3.org/2000/svg">
<g clip-path="url(#clip0_3006_10319)" filter="url(#filter0_d_3006_10319)">
<path d="M35.5641 57.523C34.8686 56.7828 43.397 48.5745 39.3895 40.4155C35.3654 32.2566 39.7869 29.0489 44.2912 34.1812C48.7956 39.3134 46.3778 55.0062 38.8927 59.316C34.3386 61.9314 35.5641 57.523 35.5641 57.523Z" fill="#A52604"/>
<path d="M31.3424 65.5665C28.8584 59.2499 25.3807 55.6311 21.2407 56.5687C12.6957 58.4933 3.00806 72.9852 5.26023 74.8934C8.60537 77.7391 36.9894 79.9927 31.3424 65.5665ZM20.6777 62.3918C24.8674 60.7304 30.2494 66.2903 27.1858 69.4651C25.8113 70.8797 21.2573 72.9688 18.8395 70.9784C16.4383 69.0045 16.488 64.0367 20.6777 62.3918Z" fill="#FF7C24"/>
<path d="M5.24187 69.2176C5.35779 68.8064 5.44059 68.5597 5.44059 68.5597C5.44059 68.5597 5.75523 68.6255 6.30172 68.7406C9.06725 69.3328 17.9435 71.0435 22.9612 70.1388C28.9559 69.0367 32.003 61.9141 32.003 61.9141C32.003 61.9141 32.003 61.9305 32.003 61.947C32.2017 62.3582 34.5698 67.3753 30.6616 73.0504C26.6044 78.9886 6.89788 75.7481 5.22531 74.8927C3.91706 74.2347 4.77819 70.6981 5.22531 69.2176H5.24187Z" fill="url(#paint0_linear_3006_10319)"/>
<path d="M5.85667 70.4499C10.0961 73.1312 35.8967 74.9571 32.0216 61.9291C32.0216 61.9291 32.0216 61.9126 32.0216 61.8962C31.9388 61.5837 31.8229 61.2547 31.6904 60.9257C30.349 57.5206 28.5771 55.4973 26.5733 54.5268C26.5733 54.5268 26.5237 54.4939 26.4243 54.461C17.929 50.5132 5.49235 64.7584 5.24394 69.1998C5.22738 69.6603 5.32674 70.0222 5.59171 70.2361C5.67451 70.3019 5.75731 70.3677 5.85667 70.417V70.4499ZM21.0092 57.7674C25.1989 56.106 30.5809 61.6659 27.5007 64.8406C26.1262 66.2553 21.5722 68.3444 19.1544 66.354C16.7532 64.3801 16.8029 59.4123 20.9926 57.7674H21.0092Z" fill="url(#paint1_linear_3006_10319)"/>
<path d="M26.0603 59.0684C21.4566 57.8841 21.8375 60.1212 24.5368 61.5358C27.2195 62.9341 28.6933 64.102 28.6933 64.102C28.6933 64.102 30.3659 61.174 26.0603 59.0684Z" fill="#CC4319"/>
<path d="M5.24187 69.2161C5.47371 64.7747 17.9269 50.513 26.4222 54.4773C25.5942 54.1319 21.1064 52.7337 14.3334 58.2443C9.03413 62.5705 7.0966 66.3703 6.30172 68.7555C6.06988 69.4463 5.9374 70.0221 5.83803 70.4498C5.80491 70.6472 5.77179 70.8117 5.73867 70.9432C5.44059 72.4402 5.22531 74.8911 5.22531 74.8911C3.91706 74.2331 4.77819 70.6965 5.22531 69.2161H5.24187Z" fill="url(#paint2_linear_3006_10319)"/>
<path d="M30.2489 58.7223C27.914 55.7614 27.2019 55.4982 25.8605 56.2549C24.5191 57.0116 30.8285 59.7915 28.0464 64.6935C25.2643 69.5954 20.2301 68.2301 17.3817 65.6475C14.5334 63.065 6.86608 68.1643 6.45208 69.9244C6.03808 71.6845 17.7626 73.642 24.9828 71.5365C32.203 69.4309 34.3062 63.9039 30.2489 58.7388V58.7223Z" fill="url(#paint3_linear_3006_10319)"/>
<path d="M32.2201 66.3867C32.2201 66.3867 30.8125 70.3675 27.2024 71.6999C23.5923 73.0159 15.5938 72.3908 15.5938 72.3908C15.5938 72.3908 28.5603 73.6574 32.2366 66.3867H32.2201Z" fill="#FFA05F"/>
<path d="M26.2393 65.8143C26.2393 65.8143 21.3044 62.5409 23.9374 58.5436C25.875 55.5992 30.3296 54.201 33.7741 55.6321C35.0161 56.1585 36.1422 57.0467 36.9537 58.3627C38.8746 61.4552 36.8378 64.0871 35.0161 65.6334C33.9066 66.571 32.8799 67.1138 32.8799 67.1138C32.8799 67.1138 32.4824 62.3599 31.5716 61.2085C30.6443 60.0405 28.773 60.6163 28.7895 62.5902C28.7895 64.5477 26.2393 65.8143 26.2393 65.8143Z" fill="#A52604"/>
<g style="mix-blend-mode:multiply" opacity="0.8">
<path d="M43.5477 51.3385C40.451 57.3261 38.7287 56.0101 38.6294 54.0691C38.53 52.1281 40.1529 50.9273 40.3351 46.7984C40.5172 42.6696 45.8165 46.9465 43.5312 51.3549L43.5477 51.3385Z" fill="#B32A55"/>
</g>
<g style="mix-blend-mode:multiply" opacity="0.55">
<path d="M26.2396 65.8122C26.2396 65.8122 21.3047 62.5552 23.9212 58.5415C25.8588 55.5971 30.2969 54.1824 33.7579 55.6135C29.7504 55.1201 31.2077 57.094 34.7184 60.8938C36.4407 62.7526 35.9604 64.3976 35.0331 65.6148C33.9235 66.5524 32.8968 67.0953 32.8968 67.0953C32.8968 67.0953 32.4994 62.3578 31.572 61.1899C30.6446 60.022 28.7733 60.5977 28.7899 62.5717C28.7899 64.5292 26.2396 65.7958 26.2396 65.7958V65.8122Z" fill="#591712"/>
</g>
<path d="M89.0028 62.3901C84.664 61.8802 76.798 59.3141 68.0542 56.7315C68.0542 56.7315 68.0211 56.7315 68.0046 56.7151C65.6365 56.0242 63.2021 55.3169 60.7678 54.6589C58.4494 54.0338 56.1144 53.4252 53.8291 52.8988C53.8291 52.8988 53.7629 52.8823 53.6138 52.8494C53.531 52.833 53.4648 52.8165 53.3654 52.8001C53.3654 52.8001 53.3489 52.8001 53.3323 52.8001C52.0075 52.504 50.6827 52.2244 49.391 51.9776C49.1426 51.9283 48.8942 51.8789 48.6789 51.846C48.1821 51.7473 47.6853 51.6651 47.2051 51.5828C47.1554 51.5828 47.0892 51.5664 47.0395 51.5664C46.7414 51.517 46.4268 51.4677 46.1287 51.4183C45.8306 51.369 45.5159 51.3196 45.2179 51.2867C45.1682 51.2867 45.1185 51.2703 45.0854 51.2703C44.2905 51.1551 43.5122 51.0729 42.7504 50.9906C41.9887 50.9249 41.2269 50.8591 40.4982 50.8262C38.1964 50.711 36.027 50.6781 34.0067 50.711C33.6424 50.711 33.278 50.711 32.9303 50.7275H32.7647C31.059 50.7768 29.4692 50.8591 27.9954 50.9742C27.9954 50.9742 27.9291 50.9742 27.7967 50.9906C26.7202 51.0564 25.7101 51.1716 24.7496 51.2703C17.6288 52.0763 13.6709 53.4416 13.0416 53.4416C12.0314 53.4416 3.48644 50.8097 4.03292 39.2457C4.03292 39.1635 4.03292 39.0812 4.04948 38.999C4.14884 37.1237 4.46348 35.3143 4.92717 33.6035C7.26214 24.8031 13.3066 18.4042 14.6148 18.3384C15.2772 18.3055 17.6619 19.0293 21.1892 19.7037C24.7662 20.3782 29.5355 20.9539 34.8844 20.5756C35.5799 20.5262 36.292 20.4604 37.0206 20.3617C38.2295 20.2301 39.4384 20.0163 40.6804 19.7695C41.4587 19.605 42.3199 19.4077 43.2472 19.1445C45.3835 18.5687 47.8675 17.7627 50.5668 16.8251H50.5833C51.1298 16.6441 51.6763 16.4467 52.2393 16.2329C52.819 16.0191 53.3986 15.8052 53.9947 15.5914C69.7102 9.75181 89.9798 0.441406 89.9798 0.441406C106.606 7.46533 103.377 25.6914 103.377 25.6914L99.9821 26.7441L98.4917 27.2047C101.009 38.5877 99.8331 49.3128 97.1006 55.8761C96.9185 55.8432 96.6866 55.8432 96.4714 55.8761C96.223 55.8761 95.9746 55.909 95.7096 55.9419C95.6434 55.9419 95.5606 55.9584 95.4778 55.9748C93.8549 56.238 92.0664 56.8631 92.0664 56.8631C91.4537 57.4388 91.9008 58.2778 92.5963 59.0509C92.6625 59.1496 92.7619 59.2318 92.8613 59.3305C92.8613 59.347 92.8778 59.3634 92.8944 59.3799C93.3912 59.8734 93.9377 60.3175 94.302 60.5971C93.3746 61.6006 92.3645 62.2421 91.3543 62.4395C91.2218 62.4559 91.0728 62.4724 90.9237 62.4888C90.4104 62.5217 89.7645 62.4888 89.0359 62.4066L89.0028 62.3901Z" fill="url(#paint4_linear_3006_10319)"/>
<path d="M84.2511 17.7142C84.069 17.7471 81.9493 18.1584 81.1875 18.9808C82.5785 11.118 84.9798 4.40661 88.5236 1.4128C97.4826 -6.1704 105.001 19.244 105.001 19.244L103.378 25.6922C103.378 25.6922 100.612 5.73902 92.9783 3.53479C89.4344 2.51492 86.3046 8.88087 84.2511 17.7142Z" fill="#FFC59F"/>
<path d="M89.0024 62.3925C85.7069 61.7839 82.7095 58.7243 81.4013 53.7565C79.6459 47.0616 79.1988 35.8759 80.2918 25.4141C81.5006 25.6937 82.6267 25.9075 82.7426 25.9404C81.8153 32.6518 81.4344 39.8732 81.865 46.0088C81.865 46.0088 81.865 46.0582 81.865 46.1569C81.865 46.2884 81.8815 46.4365 81.8981 46.5681C81.8981 46.6174 81.8981 46.6832 81.8981 46.749C81.9974 48.0979 82.1465 49.3974 82.3452 50.6147C82.5439 51.8648 82.8586 53.0163 83.256 54.0361C83.2726 54.0855 83.2891 54.1348 83.3057 54.1842C84.1999 56.3884 85.5247 58.0334 87.0483 58.9874C88.0253 59.5961 89.0686 59.9251 90.1284 59.958C90.145 59.958 90.1616 59.958 90.1781 59.958C90.2278 59.958 90.2609 59.958 90.3106 59.958C90.9233 59.958 91.5526 59.8593 92.1819 59.629C92.3972 59.5632 92.6125 59.4809 92.8443 59.3658C93.3411 59.8593 93.8876 60.3034 94.2519 60.583C94.5169 60.7804 94.6825 60.8791 94.6825 60.8791C93.6061 61.7181 92.4634 62.2115 91.3042 62.4089C91.1717 62.4254 91.0227 62.4418 90.8737 62.4583C90.2444 62.5241 89.6151 62.5076 88.9858 62.376L89.0024 62.3925Z" fill="#FFC59F"/>
<path d="M43.9271 54.8564C40.6482 54.2642 36.9388 53.0469 34.0076 50.7111C33.9745 50.6946 33.958 50.6782 33.9414 50.6617C30.8115 48.145 28.6256 44.3287 28.9402 38.6536C29.3211 31.4652 32.8816 24.7867 37.005 20.3618C38.661 18.5853 40.433 17.1542 42.1221 16.2165C44.5233 14.8677 46.8251 14.8841 48.4149 15.3447C49.5907 15.6902 50.3856 16.2988 50.5512 16.8087C50.5512 16.8087 50.5512 16.8087 50.5346 16.8087C50.3524 16.9074 48.8289 17.7134 48.0672 18.355C47.9678 18.4372 47.6697 18.6675 47.2226 19.0294C46.1131 19.9341 44.0927 21.6284 41.973 23.8655C41.675 24.1781 41.3769 24.4906 41.0788 24.8361C39.9693 26.0533 38.8763 27.4186 37.8993 28.8662C35.5312 32.3535 33.842 36.3671 34.4051 40.3808C35.2662 46.5823 39.1081 49.28 42.4533 50.5137C43.3972 50.8591 44.308 51.0894 45.0863 51.2539C45.0863 51.2539 45.1857 51.2868 45.2354 51.2868C45.5831 51.3526 45.8812 51.402 46.1627 51.4349C46.5105 51.4842 46.792 51.5171 47.057 51.55C47.1067 51.55 47.1729 51.55 47.2226 51.5665C47.3716 51.5829 47.5041 51.5994 47.6035 51.6158C47.8684 51.6652 48.2328 51.731 48.6964 51.8297C48.9117 51.8626 49.1601 51.9283 49.4085 51.9613C50.8161 52.2409 52.5218 52.6192 53.3498 52.7837C53.3498 52.7837 53.3664 52.7837 53.3829 52.7837C53.4823 52.8166 53.5651 52.8331 53.6313 52.8331C53.7638 52.866 53.8466 52.8824 53.8466 52.8824C53.8466 52.8824 53.4657 54.0503 51.8263 54.9715C51.8263 54.9715 51.8097 54.9715 51.7932 54.9715C51.5117 55.1195 50.7168 55.2347 49.5741 55.2676C48.1334 55.3169 46.1296 55.2018 43.9437 54.8235L43.9271 54.8564Z" fill="#A52604"/>
<path d="M49.5556 55.3027C47.9492 54.3157 46.4423 53.0162 45.1009 51.2726C39.4705 43.9525 39.2386 32.5531 41.0934 24.8383C41.6399 22.5353 42.3851 20.5614 43.2296 19.1303C43.6602 18.3901 44.1073 17.8143 44.571 17.4031C45.9952 16.12 47.3034 15.5443 48.4129 15.3469C50.7479 14.9357 52.2218 16.2187 52.2218 16.2187C50.8473 16.7287 49.4397 17.6005 48.2804 19.0645C46.1276 21.7951 44.9353 26.5654 46.7072 34.7408C49.4065 47.2589 58.1668 53.5261 59.5744 53.8716L59.9056 53.9703L60.3528 54.1019L60.6177 54.1841C62.8864 54.9079 67.4736 56.5199 68.0366 56.7338C68.0366 56.7338 68.0698 56.7502 68.0863 56.7502C68.0863 56.7502 57.7528 60.3362 49.5887 55.3191L49.5556 55.3027Z" fill="#A52604"/>
<g style="mix-blend-mode:overlay" opacity="0.55">
<path d="M90.3606 59.9549C90.3606 59.9549 90.2778 59.9549 90.2282 59.9549C90.2116 59.9549 90.195 59.9549 90.1785 59.9549C89.5823 59.922 89.0358 59.8068 88.539 59.6094C88.5059 59.593 88.4728 59.5765 88.4397 59.5765C84.3328 58.0303 82.7761 52.3223 82.1965 48.8186V48.7857C82.064 47.9467 81.9812 47.223 81.9316 46.7459C81.9316 46.6801 81.9316 46.6308 81.9316 46.565C81.915 46.384 81.8984 46.2524 81.8984 46.1537C81.8984 46.0551 81.8984 46.0057 81.8984 46.0057L82.1634 46.1044L91.3874 49.3778H91.4039L92.4141 42.65C92.4141 42.65 92.5466 42.6994 92.6128 42.65C92.6625 42.6171 92.6625 42.5349 92.53 42.3375C92.4803 42.2552 92.4307 42.1894 92.381 42.1401H92.3644C92.2651 41.992 92.116 41.8275 91.9338 41.6301C91.9338 41.6301 91.9338 41.6301 91.9338 41.6137C91.6523 41.3176 91.2549 40.9228 90.725 40.4129C90.1619 39.8865 89.7479 38.7515 89.4995 37.2546C88.9034 33.9482 88.9696 28.816 89.4333 24.3582C89.4333 24.2266 89.4498 24.095 89.4664 23.9799C89.7976 20.9367 90.2944 18.239 90.8906 16.6763C90.9568 16.4953 91.023 16.3309 91.1058 16.1828C91.1058 16.1499 91.1224 16.1335 91.139 16.117C91.1721 16.0348 91.2052 15.969 91.2549 15.9032C93.3083 12.3665 97.1503 19.6865 98.2764 31.9579C98.4916 34.3924 98.6076 36.8269 98.6076 39.1792V39.3766C98.6076 40.9886 98.5579 42.6665 98.4088 44.3114C98.3923 44.6404 98.3592 44.9694 98.326 45.2819C98.326 45.3971 98.3095 45.5122 98.2929 45.6438C97.8789 49.7891 97.0344 53.408 95.7261 55.9576C95.6599 55.9576 95.5771 55.9741 95.4943 55.9905C93.8714 56.2537 92.0829 56.8788 92.0829 56.8788C91.4702 57.4545 91.9173 58.2935 92.6128 59.0666C92.6791 59.1653 92.7784 59.2475 92.8778 59.3462C92.6791 59.4778 92.4638 59.5765 92.2651 59.6423C91.6854 59.8891 91.0562 60.0042 90.3938 59.9713L90.3606 59.9549Z" fill="#FF6600"/>
</g>
<g style="mix-blend-mode:multiply" opacity="0.2">
<path d="M83.1559 7.94427C81.119 3.76611 54.7222 16.6296 49.2408 19.5412C43.7594 22.4527 48.6612 36.9282 55.0699 46.436C61.4953 55.9438 78.8668 58.2139 80.9699 58.0329C83.0731 57.852 75.7204 41.9289 76.5318 28.5884C77.3433 15.2478 83.5202 8.70095 83.1559 7.96072V7.94427Z" fill="#ECA890"/>
</g>
<g style="mix-blend-mode:screen" opacity="0.3">
<path d="M9.64608 29.9541C15.6243 28.5559 24.2024 27.7005 26.6533 29.9541C29.1042 32.2077 25.2457 38.2118 27.6966 44.2158C30.1475 50.2199 16.3198 53.0821 12.9912 52.9011C9.66264 52.7202 -0.323092 41.0082 9.62952 29.9541H9.64608Z" fill="#FF8390"/>
</g>
<g style="mix-blend-mode:multiply" opacity="0.25">
<path d="M88.6545 59.6435C88.6545 59.6435 88.5552 59.6106 88.522 59.6106C88.4889 59.5941 88.4558 59.5777 88.4227 59.5777C87.9424 59.4296 87.4953 59.2158 87.0813 58.9855C85.2266 57.9163 84.0674 56.1068 83.3387 54.1822C83.3222 54.1329 83.3056 54.0835 83.289 54.0342C82.6101 52.2248 82.312 50.3166 82.1961 48.8362V48.8033C82.0636 47.2241 82.1298 46.122 82.1298 46.122L91.3538 49.3954H91.3704C91.3704 49.3954 92.8939 44.4277 92.5793 42.6676C92.5627 42.5525 92.5296 42.4373 92.4965 42.3551C92.4468 42.2728 92.3971 42.207 92.3474 42.1577H92.3309C92.1984 42.0261 92.0659 41.8616 91.9003 41.6477C91.9003 41.6477 91.9003 41.6477 91.9003 41.6313C90.8901 40.1837 89.6647 36.7293 91.122 35.2324C92.8111 33.5217 98.4912 29.4916 98.574 39.1968V39.3942C98.574 41.0062 98.5243 42.6841 98.3753 44.329C98.3587 44.658 98.3256 44.987 98.2925 45.2995C98.2925 45.4147 98.2759 45.5298 98.2594 45.6614C97.8454 49.6093 96.9842 53.3762 95.4773 56.0081C93.8544 56.2713 92.0659 56.8964 92.0659 56.8964C91.4532 57.4721 91.9003 58.3111 92.5958 59.0842C91.4863 59.7093 90.178 59.956 88.6711 59.6764L88.6545 59.6435Z" fill="#591712"/>
</g>
<g style="mix-blend-mode:multiply" opacity="0.25">
<path d="M84.2682 17.7148C84.2682 17.7148 79.118 24.7059 79.1345 25.1336C79.1345 25.1336 77.1308 24.673 77.2301 24.4098C77.3295 24.1466 80.6581 19.3762 81.1549 18.6689C81.6682 17.978 84.2516 17.7148 84.2516 17.7148H84.2682Z" fill="#63321F"/>
</g>
<g style="mix-blend-mode:multiply" opacity="0.3">
<path d="M81.1703 14.9657C80.5741 18.9629 77.4112 23.174 76.2188 24.2103C75.0431 25.2466 79.7792 25.3946 79.7792 25.3946L80.1767 25.4933C80.1767 25.4933 77.6099 25.0821 77.494 24.3748C77.3946 23.6839 80.541 18.6339 80.541 18.6339L81.1703 14.9492V14.9657Z" fill="#C60055"/>
</g>
<g style="mix-blend-mode:screen" opacity="0.3">
<path d="M71.3161 26.1371C74.6944 26.3016 74.4129 30.5456 72.8893 31.2365C71.3658 31.9274 68.1035 30.4798 67.5735 28.3414C67.0436 26.2029 69.6601 26.0713 71.2996 26.1371H71.3161Z" fill="#FF8390"/>
</g>
<g style="mix-blend-mode:screen" opacity="0.3">
<path d="M18.3766 23.0453C20.4466 23.144 20.2644 25.7431 19.3371 26.1707C18.4097 26.5984 16.4059 25.7102 16.0913 24.3942C15.7767 23.0782 17.3664 22.996 18.3766 23.0453Z" fill="#FF8390"/>
</g>
<g style="mix-blend-mode:multiply" opacity="0.3">
<path d="M19.0023 23.1768C16.2864 23.4729 19.0354 23.3742 19.6315 24.6573C20.2277 25.9403 18.5717 26.2693 18.4889 26.2529C18.4061 26.2529 20.0952 26.6477 19.9959 24.8218C19.8965 22.9959 19.0023 23.1768 19.0023 23.1768Z" fill="#C60055"/>
</g>
<g style="mix-blend-mode:multiply" opacity="0.15">
<path d="M60.7207 22.8977C63.2875 25.0196 71.8822 22.3548 71.4185 16.4166C70.9548 10.4783 62.327 13.4228 60.2735 16.4166C58.2367 19.4104 59.3131 21.7462 60.7041 22.8977H60.7207Z" fill="#F46300"/>
</g>
<g style="mix-blend-mode:multiply" opacity="0.2">
<path d="M79.6973 33.7196C79.6973 33.7196 79.0846 48.8202 78.9521 50.6461C78.8196 52.472 76.1038 54.1169 78.0248 56.5515C79.9457 58.986 83.8539 61.2231 84.9303 61.1573C86.0233 61.108 81.3368 58.1141 80.4591 52.1101C79.5814 46.106 79.6808 33.7031 79.6808 33.7031L79.6973 33.7196Z" fill="#EF7A98"/>
</g>
<path opacity="0.55" d="M4.92969 33.605C7.26466 24.8209 13.3091 18.4221 14.6173 18.3398C13.9218 18.7182 7.36402 26.4659 4.92969 33.605Z" fill="#FF6600"/>
<g style="mix-blend-mode:multiply" opacity="0.35">
<path d="M13.026 53.4426C12.0158 53.4426 3.47081 50.8107 4.0173 39.2467C4.0173 39.1645 4.0173 39.0822 4.03386 39C4.05042 39.329 4.08354 39.6415 4.14978 39.9541C5.70642 47.7676 12.2808 50.8272 16.3049 51.3536C18.6399 51.6496 22.1672 51.4852 24.734 51.2878C17.6131 52.0938 13.6553 53.4591 13.026 53.4591V53.4426Z" fill="#684738"/>
</g>
<path d="M61.25 12.845C61.25 12.845 77.5617 12.1706 80.5425 10.7888C83.5233 9.40707 88.1933 1.36328 88.1933 1.36328L61.2666 12.845H61.25Z" fill="url(#paint5_linear_3006_10319)"/>
<path d="M14.5977 18.3398C14.5977 18.3398 25.0636 22.8306 27.9782 23.6201C30.8928 24.4097 36.5067 20.4618 36.5067 20.4618C36.5067 20.4618 28.3922 22.0245 14.5977 18.3398Z" fill="url(#paint6_linear_3006_10319)"/>
<g style="mix-blend-mode:multiply" opacity="0.25">
<path d="M96.4723 55.8614C97.4493 54.9074 98.89 48.0315 98.5754 46.8307C98.2607 45.6299 93.1271 49.1172 91.3552 49.3639C89.5833 49.6106 81.8828 46.1562 81.8828 46.1562C81.8828 46.1562 82.1478 55.3186 85.9069 58.115C89.6661 60.9114 92.2163 59.6284 92.2163 59.6284C92.2163 59.6284 91.5539 57.7531 92.0507 56.8649C92.5475 55.9766 96.4723 55.8779 96.4723 55.8779V55.8614Z" fill="#591712"/>
</g>
<g style="mix-blend-mode:multiply" opacity="0.65">
<path d="M49.5559 55.3011C48.1152 55.3504 46.1114 55.2353 43.9255 54.8569C43.6937 54.4786 43.5612 54.018 43.4949 53.4587C43.3956 52.4553 43.1472 51.6657 42.7497 51.0078C42.6504 50.8433 44.4885 51.2216 44.3726 51.0736C43.0478 49.2148 40.8453 48.3265 39.0071 44.6912C37.4339 41.5822 38.2123 33.9497 39.1231 28.8997C39.7192 25.6098 38.7919 23.1095 37.7486 23.0108C35.1321 22.7476 30.2303 28.8339 29.7004 36.6309C29.1705 44.428 33.9894 50.6623 33.9894 50.6623H33.9232L32.913 50.7446H32.764C32.764 50.7446 32.764 50.7446 32.7474 50.7446C32.2838 50.5965 26.9183 48.7048 27.9781 39.3451C28.8889 31.2684 34.3206 23.7016 34.8506 20.5927C35.5461 20.5433 36.2582 20.4775 36.9868 20.3788C38.6428 18.6023 40.4148 17.1712 42.1039 16.2336C44.5051 14.8847 46.807 14.9012 48.3967 15.3618C50.7317 14.9505 52.2055 16.2336 52.2055 16.2336C52.7851 16.0197 53.3647 15.8059 53.9609 15.592L56.9748 14.457L49.5559 18.4049C49.5559 18.4049 47.8668 18.9971 47.221 19.0629C45.8299 19.1945 43.4121 20.0334 41.9714 23.899C41.5408 25.0176 41.2096 26.3829 41.0109 28.0607C40.0008 36.4335 42.1204 46.4348 46.1611 51.4355C46.1611 51.4355 46.1611 51.4519 46.1777 51.4683C47.0222 52.5211 47.9662 53.3436 48.9763 53.8864C49.8375 54.347 50.7979 54.7253 51.775 55.0214C56.6768 56.5512 62.3238 56.2387 60.7671 54.676C60.5518 54.4457 60.1544 54.1825 59.5582 53.8864L59.8894 53.9851L60.3365 54.1167L60.6015 54.199C62.8702 54.9227 67.4574 56.5348 68.0204 56.7486C68.0204 56.7486 68.0535 56.7651 68.0701 56.7651C68.0701 56.7651 57.7366 60.3511 49.5725 55.334L49.5559 55.3011Z" fill="#63321F"/>
</g>
<g style="mix-blend-mode:screen" opacity="0.2">
<path d="M42.2362 25.444C41.0936 24.7531 40.4146 37.9785 45.1177 45.9565C49.8373 53.9345 56.4945 56.2868 59.111 55.6123C61.744 54.9544 50.0692 50.8255 47.3533 43.7523C44.6375 36.679 43.1305 25.9868 42.2197 25.4275L42.2362 25.444Z" fill="#FF6D42"/>
</g>
<g style="mix-blend-mode:screen" opacity="0.2">
<path d="M34.2238 30.1159C33.1474 26.9905 29.736 36.2515 31.0774 42.1733C32.4188 48.0951 33.9589 51.3192 38.6951 52.4214C43.4312 53.5235 34.2901 49.5591 32.8493 41.1041C31.4086 32.6491 34.6544 31.3989 34.2238 30.1159Z" fill="#FF6D42"/>
</g>
<g style="mix-blend-mode:multiply" opacity="0.35">
<path d="M52.2058 16.2186C52.2058 16.2186 44.0582 19.8704 46.8568 34.1321C49.6555 48.3938 65.0067 55.6644 65.0067 55.6644C65.0067 55.6644 61.1648 54.7926 59.5419 53.8714C57.919 52.9503 48.4797 48.1635 46.2441 34.3624C44.0085 20.5613 47.5524 18.4393 49.0428 17.0904C50.5332 15.7416 52.1892 16.2186 52.1892 16.2186H52.2058Z" fill="#684738"/>
</g>
<g style="mix-blend-mode:multiply">
<path d="M48.3975 15.3446C48.3975 15.3446 43.1314 14.5715 41.0779 24.8359C41.0779 24.8359 38.8589 19.5721 40.0512 17.5653C41.2436 15.5749 48.4141 15.3281 48.4141 15.3281L48.3975 15.3446Z" fill="#F46300"/>
</g>
<path d="M79.6954 36.6136C80.5565 34.7384 81.4011 50.6779 83.1564 54.8067C84.9118 58.9356 87.7933 58.4256 87.6608 60.1857C87.5283 61.9458 81.7488 58.2118 80.4571 52.1255C79.1654 46.0392 79.6788 36.6136 79.6788 36.6136H79.6954Z" fill="#FFDEC8"/>
<path d="M86.1036 11.2984C86.3851 5.55751 82.8413 12.1537 82.3279 13.7C81.8146 15.2463 81.2018 17.5821 81.3674 17.9769C81.5496 18.3717 84.2655 17.7137 84.2655 17.7137L86.1036 11.3148V11.2984Z" fill="#FFDEC8"/>
<path d="M65.2891 13.5036C65.2891 13.5036 71.0354 10.444 72.1946 14.9676C73.3538 19.4912 67.7731 22.3534 67.7731 22.3534C67.7731 22.3534 72.1615 18.1588 70.7373 15.3295C69.3132 12.5002 65.2891 13.4872 65.2891 13.4872V13.5036Z" fill="url(#paint7_linear_3006_10319)"/>
<path d="M72.3601 26.3516C72.3601 26.3516 74.5625 28.5393 73.1881 30.3981C71.8136 32.2569 69.5117 30.6284 69.5117 30.6284C69.5117 30.6284 72.7409 32.553 73.9829 30.3981C75.2249 28.2433 72.3766 26.3516 72.3766 26.3516H72.3601Z" fill="url(#paint8_linear_3006_10319)"/>
<g style="mix-blend-mode:overlay" opacity="0.55">
<path d="M87.2656 11.5626C87.2656 11.5626 89.9318 10.0493 92.9126 10.7401C95.8934 11.431 98.4437 17.7641 99.2551 22.1561C100.083 26.5481 104.405 24.9854 102.319 19.6229C100.249 14.2603 97.2845 2.21931 90.0146 4.29195C87.4643 5.01573 87.2656 11.5626 87.2656 11.5626Z" fill="#FF6600"/>
</g>
<g style="mix-blend-mode:multiply" opacity="0.15">
<path d="M91.9694 3.28989C89.5517 3.45438 88.8396 5.24737 87.5148 9.19525C86.5874 11.9752 86.0078 11.712 86.0078 11.712C86.0078 11.712 90.7274 9.12945 93.6089 11.0211C96.4903 12.9293 97.4177 9.29395 97.0037 7.40226C96.2751 4.06301 91.9694 3.27344 91.9694 3.27344V3.28989Z" fill="#591712"/>
</g>
<path d="M85.9053 26.1517C87.0148 8.23819 95.7585 3.87908 99.4017 26.9741C99.7826 29.3429 100.097 32.0241 100.346 35.0015C101.24 45.4469 99.8323 52.6518 97.4145 57.0931C97.5801 56.4681 97.1661 56.1884 96.5203 56.1226C96.3381 56.0897 96.1063 56.0897 95.891 56.1226C98.2922 52.1912 99.6998 45.2989 98.6234 34.7383C96.9674 18.3875 93.0758 11.6103 90.6414 16.1339C90.5918 16.1997 90.5586 16.2655 90.5255 16.3478C90.509 16.3642 90.4924 16.3807 90.4924 16.4136C90.4262 16.5616 90.3434 16.7426 90.2771 16.9071C89.6478 18.4698 89.1345 20.8878 88.853 24.2106C88.8364 24.3422 88.8198 24.4738 88.8198 24.589C88.6874 26.1188 88.6046 27.8295 88.5549 29.7541C88.4886 33.1098 88.6211 35.6266 88.8861 37.4854C89.7306 43.5717 91.8006 42.8808 91.8006 42.8808L90.7905 49.6251H90.7739C90.4427 49.4112 84.7295 45.3647 85.9053 26.1681V26.1517Z" fill="#FFC59F"/>
<path d="M88.8229 24.5735C88.3096 19.688 85.1632 28.0608 85.8256 34.1142C86.488 40.1841 86.5376 44.0004 88.8229 45.7605C91.1082 47.5205 90.1643 43.6056 88.7898 36.8613C87.4153 30.117 88.8229 24.5735 88.8229 24.5735Z" fill="#FFDEC8"/>
</g>
<defs>
<filter id="filter0_d_3006_10319" x="0" y="0" width="109" height="85" filterUnits="userSpaceOnUse" color-interpolation-filters="sRGB">
<feFlood flood-opacity="0" result="BackgroundImageFix"/>
<feColorMatrix in="SourceAlpha" type="matrix" values="0 0 0 0 0 0 0 0 0 0 0 0 0 0 0 0 0 0 127 0" result="hardAlpha"/>
<feOffset dy="4"/>
<feGaussianBlur stdDeviation="2"/>
<feComposite in2="hardAlpha" operator="out"/>
<feColorMatrix type="matrix" values="0 0 0 0 0 0 0 0 0 0 0 0 0 0 0 0 0 0 0.25 0"/>
<feBlend mode="normal" in2="BackgroundImageFix" result="effect1_dropShadow_3006_10319"/>
<feBlend mode="normal" in="SourceGraphic" in2="effect1_dropShadow_3006_10319" result="shape"/>
</filter>
<linearGradient id="paint0_linear_3006_10319" x1="28.3795" y1="58.8238" x2="10.7497" y2="79.5824" gradientUnits="userSpaceOnUse">
<stop stop-color="#DC4E37"/>
<stop offset="0.99" stop-color="#FF6600"/>
</linearGradient>
<linearGradient id="paint1_linear_3006_10319" x1="22.091" y1="53.3161" x2="17.4042" y2="73.4961" gradientUnits="userSpaceOnUse">
<stop stop-color="#DC4E37"/>
<stop offset="0.99" stop-color="#FF6600"/>
</linearGradient>
<linearGradient id="paint2_linear_3006_10319" x1="18.0415" y1="52.376" x2="12.424" y2="76.563" gradientUnits="userSpaceOnUse">
<stop offset="0.31" stop-color="#DF5E36"/>
<stop offset="0.69" stop-color="#D04D32" stop-opacity="0.89"/>
<stop offset="1" stop-color="#C43E30" stop-opacity="0.8"/>
</linearGradient>
<linearGradient id="paint3_linear_3006_10319" x1="17.9923" y1="56.9264" x2="19.9776" y2="71.2158" gradientUnits="userSpaceOnUse">
<stop offset="0.31" stop-color="#B7442F"/>
<stop offset="0.95" stop-color="#C43E30" stop-opacity="0.8"/>
</linearGradient>
<linearGradient id="paint4_linear_3006_10319" x1="3.9998" y1="31.4651" x2="103.642" y2="31.4651" gradientUnits="userSpaceOnUse">
<stop stop-color="#FFA274"/>
<stop offset="1" stop-color="#E47745"/>
</linearGradient>
<linearGradient id="paint5_linear_3006_10319" x1="61.25" y1="7.10415" x2="88.1767" y2="7.10415" gradientUnits="userSpaceOnUse">
<stop offset="0.31" stop-color="#DF5E36"/>
<stop offset="0.69" stop-color="#D04D32" stop-opacity="0.89"/>
<stop offset="1" stop-color="#C43E30" stop-opacity="0.8"/>
</linearGradient>
<linearGradient id="paint6_linear_3006_10319" x1="14.5977" y1="21.0211" x2="36.5067" y2="21.0211" gradientUnits="userSpaceOnUse">
<stop offset="0.31" stop-color="#DF5E36"/>
<stop offset="0.69" stop-color="#D04D32" stop-opacity="0.89"/>
<stop offset="1" stop-color="#C43E30" stop-opacity="0.8"/>
</linearGradient>
<linearGradient id="paint7_linear_3006_10319" x1="65.2891" y1="17.4186" x2="72.3602" y2="17.4186" gradientUnits="userSpaceOnUse">
<stop offset="0.31" stop-color="#DF5E36"/>
<stop offset="0.69" stop-color="#D04D32" stop-opacity="0.89"/>
<stop offset="1" stop-color="#C43E30" stop-opacity="0.8"/>
</linearGradient>
<linearGradient id="paint8_linear_3006_10319" x1="69.5117" y1="28.8848" x2="74.281" y2="28.8848" gradientUnits="userSpaceOnUse">
<stop offset="0.31" stop-color="#DF5E36"/>
<stop offset="0.69" stop-color="#D04D32" stop-opacity="0.89"/>
<stop offset="1" stop-color="#C43E30" stop-opacity="0.8"/>
</linearGradient>
<clipPath id="clip0_3006_10319">
<rect width="101" height="77" fill="white" transform="translate(4)"/>
</clipPath>
</defs>
</svg>
