<svg width="20" height="21" viewBox="0 0 20 21" fill="none" xmlns="http://www.w3.org/2000/svg">
<path d="M10 4.66537L10.5145 4.11966C10.2256 3.84727 9.77442 3.84727 9.4855 4.11966L10 4.66537ZM4.4855 8.8337C4.18412 9.11785 4.17015 9.59252 4.45429 9.89391C4.73844 10.1953 5.21311 10.2093 5.5145 9.92511L4.4855 8.8337ZM14.4855 9.92511C14.7869 10.2093 15.2616 10.1953 15.5457 9.8939C15.8299 9.59252 15.8159 9.11785 15.5145 8.8337L14.4855 9.92511ZM9.25 16.332C9.25 16.7462 9.58579 17.082 10 17.082C10.4142 17.082 10.75 16.7462 10.75 16.332L9.25 16.332ZM9.4855 4.11966L4.4855 8.8337L5.5145 9.92511L10.5145 5.21107L9.4855 4.11966ZM15.5145 8.8337L10.5145 4.11966L9.4855 5.21107L14.4855 9.92511L15.5145 8.8337ZM9.25 4.66537L9.25 16.332L10.75 16.332L10.75 4.66536L9.25 4.66537Z" fill="white" fill-opacity="0.35"/>
</svg>
