<svg width="24" height="24" viewBox="0 0 24 24" fill="none" xmlns="http://www.w3.org/2000/svg">
<path d="M16.3354 7.67082C16.7059 7.48558 16.8561 7.03507 16.6708 6.66459C16.4856 6.29411 16.0351 6.14394 15.6646 6.32918L16.3354 7.67082ZM7.66459 10.3292C7.29411 10.5144 7.14394 10.9649 7.32918 11.3354C7.51442 11.7059 7.96493 11.8561 8.33541 11.6708L7.66459 10.3292ZM15.6646 17.6708C16.0351 17.8561 16.4856 17.7059 16.6708 17.3354C16.8561 16.9649 16.7059 16.5144 16.3354 16.3292L15.6646 17.6708ZM8.33541 12.3292C7.96493 12.1439 7.51442 12.2941 7.32918 12.6646C7.14394 13.0351 7.29411 13.4856 7.66459 13.6708L8.33541 12.3292ZM15.6646 6.32918L7.66459 10.3292L8.33541 11.6708L16.3354 7.67082L15.6646 6.32918ZM16.3354 16.3292L8.33541 12.3292L7.66459 13.6708L15.6646 17.6708L16.3354 16.3292ZM6 14.75C7.51878 14.75 8.75 13.5188 8.75 12H7.25C7.25 12.6904 6.69036 13.25 6 13.25V14.75ZM8.75 12C8.75 10.4812 7.51878 9.25 6 9.25V10.75C6.69036 10.75 7.25 11.3096 7.25 12H8.75ZM6 9.25C4.48122 9.25 3.25 10.4812 3.25 12H4.75C4.75 11.3096 5.30964 10.75 6 10.75V9.25ZM3.25 12C3.25 13.5188 4.48122 14.75 6 14.75V13.25C5.30964 13.25 4.75 12.6904 4.75 12H3.25ZM18 8.75C19.5188 8.75 20.75 7.51878 20.75 6H19.25C19.25 6.69036 18.6904 7.25 18 7.25V8.75ZM20.75 6C20.75 4.48122 19.5188 3.25 18 3.25V4.75C18.6904 4.75 19.25 5.30964 19.25 6H20.75ZM18 3.25C16.4812 3.25 15.25 4.48122 15.25 6H16.75C16.75 5.30964 17.3096 4.75 18 4.75V3.25ZM15.25 6C15.25 7.51878 16.4812 8.75 18 8.75V7.25C17.3096 7.25 16.75 6.69036 16.75 6H15.25ZM18 20.75C19.5188 20.75 20.75 19.5188 20.75 18H19.25C19.25 18.6904 18.6904 19.25 18 19.25V20.75ZM20.75 18C20.75 16.4812 19.5188 15.25 18 15.25V16.75C18.6904 16.75 19.25 17.3096 19.25 18H20.75ZM18 15.25C16.4812 15.25 15.25 16.4812 15.25 18H16.75C16.75 17.3096 17.3096 16.75 18 16.75V15.25ZM15.25 18C15.25 19.5188 16.4812 20.75 18 20.75V19.25C17.3096 19.25 16.75 18.6904 16.75 18H15.25Z" fill="white" fill-opacity="0.35"/>
</svg>
