<svg width="20" height="21" viewBox="0 0 20 21" fill="none" xmlns="http://www.w3.org/2000/svg">
<path d="M13.4773 10.2253C13.7702 9.93241 13.7702 9.45754 13.4773 9.16465C13.1844 8.87175 12.7095 8.87175 12.4166 9.16465L13.4773 10.2253ZM10.0007 12.6413L9.47033 13.1716C9.76322 13.4645 10.2381 13.4645 10.531 13.1716L10.0007 12.6413ZM7.58471 9.16465C7.29182 8.87175 6.81695 8.87175 6.52405 9.16465C6.23116 9.45754 6.23116 9.93241 6.52405 10.2253L7.58471 9.16465ZM10.7507 3.83203C10.7507 3.41782 10.4149 3.08203 10.0007 3.08203C9.58645 3.08203 9.25066 3.41782 9.25066 3.83203H10.7507ZM17.4173 12.9987C17.4173 12.5845 17.0815 12.2487 16.6673 12.2487C16.2531 12.2487 15.9173 12.5845 15.9173 12.9987H17.4173ZM4.08398 12.9987C4.08398 12.5845 3.7482 12.2487 3.33398 12.2487C2.91977 12.2487 2.58398 12.5845 2.58398 12.9987H4.08398ZM12.4166 9.16465L9.47033 12.1109L10.531 13.1716L13.4773 10.2253L12.4166 9.16465ZM10.531 12.1109L7.58471 9.16465L6.52405 10.2253L9.47033 13.1716L10.531 12.1109ZM10.7507 12.6413V3.83203H9.25066V12.6413H10.7507ZM13.334 16.4154H6.66732V17.9154H13.334V16.4154ZM15.9173 12.9987V13.832H17.4173V12.9987H15.9173ZM4.08398 13.832V12.9987H2.58398V13.832H4.08398ZM6.66732 16.4154C5.24058 16.4154 4.08398 15.2588 4.08398 13.832H2.58398C2.58398 16.0872 4.41216 17.9154 6.66732 17.9154V16.4154ZM13.334 17.9154C15.5891 17.9154 17.4173 16.0872 17.4173 13.832H15.9173C15.9173 15.2588 14.7607 16.4154 13.334 16.4154V17.9154Z" fill="white" fill-opacity="0.35"/>
</svg>
