<svg width="207" height="88" viewBox="0 0 207 88" fill="none" xmlns="http://www.w3.org/2000/svg">
<path d="M24.8564 11.0001H31.1364C31.2792 11.0064 31.4191 11.0431 31.5465 11.108C31.6739 11.1728 31.7859 11.2643 31.875 11.3761C31.9641 11.4879 32.0282 11.6176 32.0629 11.7563C32.0976 11.895 32.1022 12.0395 32.0764 12.1801L23.5064 49.0601C23.4504 49.2683 23.3286 49.4528 23.1592 49.5862C22.9898 49.7196 22.7819 49.7946 22.5664 49.8001H9.80636C9.59084 49.7946 9.38289 49.7196 9.2135 49.5862C9.0441 49.4528 8.92234 49.2683 8.86636 49.0601L0.0163579 12.1801C-0.0102946 12.0346 -0.00431893 11.885 0.0338539 11.742C0.0720267 11.5991 0.141446 11.4664 0.237104 11.3535C0.332763 11.2406 0.452279 11.1504 0.587032 11.0893C0.721785 11.0282 0.868418 10.9977 1.01636 11.0001H7.26636C7.48451 11.0069 7.69447 11.0848 7.86419 11.222C8.03391 11.3592 8.15408 11.5482 8.20636 11.7601L14.6164 42.1901C14.6686 42.402 14.7888 42.591 14.9585 42.7282C15.1282 42.8655 15.3382 42.9434 15.5564 42.9501H16.5564C16.7745 42.9434 16.9845 42.8655 17.1542 42.7282C17.3239 42.591 17.4441 42.402 17.4964 42.1901L23.9164 11.7601C23.9686 11.5482 24.0888 11.3592 24.2585 11.222C24.4282 11.0848 24.6382 11.0069 24.8564 11.0001V11.0001Z" fill="white"/>
<path d="M36.6865 24.4998C38.6865 21.8932 42.0532 20.5898 46.7865 20.5898C51.5198 20.5898 54.8865 21.8932 56.8865 24.4998C58.8865 27.0998 59.8865 30.7665 59.8865 35.4998C59.8865 45.4998 55.5132 50.4998 46.7665 50.4998C38.0198 50.4998 33.6465 45.4998 33.6465 35.4998C33.6598 30.7665 34.6731 27.0998 36.6865 24.4998ZM42.5965 41.9298C43.3698 43.2965 44.7665 43.9632 46.7865 43.9298C48.8065 43.8965 50.2031 43.2298 50.9765 41.9298C51.7565 40.5632 52.1465 38.4132 52.1465 35.4798C52.1465 32.5465 51.7698 30.4165 51.0165 29.0898C50.2365 27.7565 48.8398 27.0898 46.8265 27.0898C44.8132 27.0898 43.4165 27.7565 42.6365 29.0898C41.8565 30.4232 41.4665 32.5532 41.4665 35.4798C41.4665 38.4065 41.8432 40.5565 42.5965 41.9298Z" fill="white"/>
<path d="M63.5972 21.2703H69.1272C69.344 21.2764 69.553 21.3529 69.7225 21.4882C69.8921 21.6235 70.0131 21.8102 70.0672 22.0203L75.0672 43.3002H76.3772L81.4172 22.0002C81.4714 21.7902 81.5923 21.6035 81.7619 21.4682C81.9314 21.3329 82.1404 21.2564 82.3572 21.2502H87.8772C88.0282 21.2469 88.1781 21.2778 88.3154 21.3406C88.4528 21.4034 88.5742 21.4965 88.6704 21.613C88.7666 21.7294 88.8352 21.8661 88.871 22.0129C88.9069 22.1596 88.909 22.3126 88.8772 22.4602L79.8772 61.0303C79.8194 61.2366 79.6969 61.4189 79.5276 61.5503C79.3584 61.6817 79.1514 61.7553 78.9372 61.7603H73.4172C73.2713 61.7548 73.1283 61.7174 72.9984 61.6507C72.8684 61.5841 72.7547 61.4898 72.6651 61.3744C72.5755 61.2591 72.5122 61.1256 72.4798 60.9832C72.4473 60.8408 72.4464 60.693 72.4772 60.5503L74.4772 51.0002C74.5097 50.8568 74.5101 50.7079 74.4784 50.5643C74.4467 50.4207 74.3838 50.2858 74.294 50.1693C74.2042 50.0528 74.0899 49.9575 73.9591 49.8903C73.8282 49.823 73.6842 49.7854 73.5372 49.7802H70.1472C69.93 49.7769 69.7197 49.7028 69.5483 49.5693C69.3769 49.4358 69.2537 49.2501 69.1972 49.0403L62.6572 22.4802C62.6264 22.3375 62.6273 22.1897 62.6598 22.0473C62.6922 21.9049 62.7555 21.7714 62.8451 21.6561C62.9347 21.5407 63.0484 21.4464 63.1784 21.3798C63.3083 21.3131 63.4513 21.2757 63.5972 21.2703V21.2703Z" fill="white"/>
<path d="M114.916 30.1698V41.9998C114.927 42.6614 115.08 43.3129 115.366 43.9098C115.566 44.1904 115.849 44.4004 116.176 44.5098C116.358 44.5794 116.513 44.7051 116.619 44.8686C116.725 45.0322 116.777 45.2252 116.766 45.4198L116.606 49.5098C116.586 49.7609 116.472 49.9952 116.286 50.1657C116.101 50.3363 115.858 50.4306 115.606 50.4298C114.36 50.4256 113.117 50.2983 111.896 50.0498C110.805 49.7783 109.765 49.3326 108.816 48.7298C108.685 48.6442 108.535 48.5938 108.379 48.5833C108.223 48.5728 108.067 48.6026 107.926 48.6698C105.452 49.8409 102.753 50.4619 100.016 50.4898C94.116 50.4898 91.166 47.3698 91.166 41.1298C91.166 38.0898 91.9827 35.9298 93.616 34.6498C95.2493 33.3698 97.7627 32.6198 101.156 32.3998L107.256 31.9398V30.1698C107.309 29.7324 107.264 29.2889 107.126 28.8706C106.988 28.4524 106.759 28.0697 106.456 27.7498C105.702 27.246 104.799 27.0133 103.896 27.0898L94.116 27.5098C93.8641 27.5106 93.6212 27.4163 93.4358 27.2457C93.2504 27.0752 93.1362 26.8409 93.116 26.5898L93.016 22.9998C93.0077 22.7754 93.0752 22.5547 93.2076 22.3732C93.3401 22.1918 93.5297 22.0603 93.746 21.9998C97.2844 21.0645 100.926 20.5773 104.586 20.5498C108.256 20.5498 110.906 21.3098 112.516 22.8298C114.126 24.3498 114.916 26.8198 114.916 30.1698ZM102.076 37.6998C101.632 37.6846 101.189 37.7647 100.779 37.9349C100.368 38.1051 99.9986 38.3614 99.6953 38.6864C99.392 39.0115 99.162 39.3978 99.0207 39.8193C98.8793 40.2408 98.83 40.6876 98.876 41.1298C98.876 43.2198 99.816 44.2698 101.676 44.2698C103.279 44.2473 104.873 44.0154 106.416 43.5798L107.266 43.3498V38.2898C107.253 38.0334 107.142 37.7917 106.956 37.6148C106.77 37.4379 106.523 37.3395 106.266 37.3398L102.076 37.6998Z" fill="white"/>
<path d="M148.067 53.3699C148.152 54.802 147.845 56.2301 147.181 57.5017C146.517 58.7733 145.52 59.8407 144.297 60.5899C141.79 62.1366 138.397 62.9133 134.117 62.9199C129.837 62.9266 126.547 62.3566 124.247 61.2099C121.947 60.0699 120.787 57.9999 120.787 54.9899C120.787 52.8633 121.867 50.8399 124.027 48.9199C124.127 48.8409 124.209 48.7421 124.269 48.6297C124.328 48.5173 124.364 48.3937 124.373 48.2669C124.383 48.14 124.366 48.0126 124.323 47.8926C124.281 47.7726 124.214 47.6628 124.127 47.5699C123.67 47.0724 123.317 46.4892 123.087 45.8541C122.857 45.219 122.755 44.5446 122.787 43.8699C122.787 43.1099 123.357 41.8699 124.497 40.0999L125.017 39.2999C122.424 37.4399 121.13 34.6933 121.137 31.0599C121.137 27.4199 122.227 24.7899 124.417 23.1499C126.973 21.4075 130.028 20.5472 133.117 20.6999C134.75 20.7001 136.378 20.8914 137.967 21.2699L138.877 21.4399L147.077 21.1899C147.342 21.1899 147.597 21.2953 147.784 21.4828C147.972 21.6704 148.077 21.9247 148.077 22.1899V26.2799C148.064 26.5364 147.953 26.7781 147.767 26.9549C147.581 27.1318 147.334 27.2303 147.077 27.2299L145.547 27.1099C145.385 27.1094 145.226 27.1481 145.082 27.2228C144.939 27.2974 144.816 27.4058 144.723 27.5385C144.631 27.6713 144.572 27.8244 144.552 27.9849C144.531 28.1454 144.55 28.3084 144.607 28.4599C144.89 29.207 145.03 30.001 145.017 30.7999C145.017 34.6099 144.017 37.2299 142.117 38.6799C140.217 40.1299 137.117 40.8399 132.987 40.8399C132.201 40.8528 131.416 40.7756 130.647 40.6099C130.315 41.3803 130.119 42.2025 130.067 43.0399C130.06 43.336 130.156 43.6255 130.338 43.8589C130.52 44.0923 130.778 44.2552 131.067 44.3199C132.564 44.644 134.096 44.7784 135.627 44.7199C140.42 44.7599 143.69 45.3966 145.437 46.6299C147.187 47.8699 148.067 50.1099 148.067 53.3699ZM128.327 54.1899C128.327 55.8299 130.327 56.6499 134.327 56.6499C138.327 56.6499 140.327 55.6999 140.327 53.7899C140.395 53.3936 140.334 52.9859 140.155 52.6262C139.975 52.2665 139.685 51.9736 139.327 51.7899C137.914 51.405 136.45 51.2398 134.987 51.2999L130.337 50.9999C130.188 50.9903 130.039 51.014 129.901 51.0694C129.762 51.1247 129.638 51.2103 129.537 51.3199C128.791 52.0929 128.36 53.1161 128.327 54.1899V54.1899ZM128.777 30.8299C128.777 33.6299 130.237 35.0199 133.147 35.0199C136.057 35.0199 137.507 33.6299 137.507 30.8299C137.507 28.0299 136.057 26.6299 133.147 26.6299C130.237 26.6299 128.777 27.9999 128.777 30.8299Z" fill="white"/>
<path d="M160.356 42.5799C161.454 43.425 162.823 43.8409 164.206 43.7499C167.746 43.7499 172.346 43.4899 173.006 43.4799C173.666 43.4699 174.596 43.1899 174.626 44.4199L174.696 48.1799C174.703 48.407 174.633 48.6298 174.496 48.8115C174.36 48.9933 174.166 49.1232 173.946 49.1799C170.539 50.0445 167.041 50.4977 163.526 50.5299C159.226 50.5299 156.106 49.3866 154.166 47.0999C152.226 44.8132 151.256 41.1066 151.256 35.9799C151.256 25.7399 155.459 20.6232 163.866 20.6299C172.136 20.6299 175.696 27.4399 176.016 33.1999C176.22 34.7893 176.156 36.4017 175.826 37.9699C175.793 38.2018 175.68 38.4149 175.507 38.5721C175.333 38.7292 175.11 38.8205 174.876 38.8299H160.016C159.873 38.8287 159.731 38.8582 159.601 38.9163C159.47 38.9745 159.353 39.06 159.258 39.1671C159.164 39.2742 159.093 39.4004 159.051 39.5372C159.009 39.6739 158.997 39.8181 159.016 39.9599C159.135 40.9652 159.611 41.8945 160.356 42.5799V42.5799ZM167.786 32.9999C168.051 32.9999 168.305 32.8945 168.493 32.707C168.681 32.5195 168.786 32.2651 168.786 31.9999C168.838 30.6682 168.49 29.3515 167.786 28.2199C167.056 27.3299 165.786 26.8799 163.986 26.8799C163.285 26.807 162.576 26.8952 161.914 27.1378C161.252 27.3805 160.654 27.7711 160.166 28.2799C159.44 29.3785 159.048 30.6634 159.036 31.9799C159.036 32.2451 159.141 32.4995 159.329 32.687C159.516 32.8745 159.771 32.9799 160.036 32.9799L167.786 32.9999Z" fill="white"/>
<path d="M185.817 11.0001H205.747C205.866 10.9987 205.984 11.021 206.094 11.0657C206.204 11.1103 206.305 11.1764 206.389 11.2601C206.474 11.3438 206.541 11.4435 206.587 11.5533C206.633 11.6632 206.657 11.781 206.657 11.9001V22.4301C206.657 22.5491 206.633 22.6669 206.587 22.7768C206.541 22.8866 206.474 22.9863 206.389 23.07C206.305 23.1537 206.204 23.2198 206.094 23.2644C205.984 23.3091 205.866 23.3314 205.747 23.3301H201.747C201.628 23.33 201.51 23.3537 201.4 23.3995C201.29 23.4454 201.19 23.5126 201.107 23.5972C201.023 23.6818 200.957 23.7822 200.912 23.8926C200.868 24.0029 200.845 24.121 200.847 24.2401V28.8501C200.847 43.9201 198.937 49.5201 192.597 56.1701C187.247 61.7801 173.517 62.8201 159.897 62.9201C159.654 62.9201 159.422 62.8245 159.25 62.6541C159.077 62.4838 158.979 62.2523 158.977 62.0101V58.0001C158.974 57.7707 159.059 57.5491 159.216 57.3814C159.372 57.2137 159.588 57.1129 159.817 57.1001C162.817 56.9401 173.817 57.7201 179.487 52.1001C186.137 45.4401 184.937 35.3501 184.937 26.0001V11.9001C184.937 11.6648 185.029 11.4388 185.193 11.2706C185.358 11.1024 185.581 11.0053 185.817 11.0001Z" fill="url(#paint0_linear_5337_8729)"/>
<path d="M45.9456 76.11C44.5456 76.11 43.8456 76.6373 43.8456 77.692C43.8456 78.28 44.0043 78.686 44.3216 78.91C44.6483 79.1247 45.3016 79.344 46.2816 79.568C47.271 79.7827 47.971 80.0673 48.3816 80.422C48.7923 80.7673 48.9976 81.3413 48.9976 82.144C48.9976 84.132 47.9663 85.126 45.9036 85.126C45.2223 85.126 44.3683 85.0467 43.3416 84.888L42.8376 84.818L42.9496 83.922C44.219 84.09 45.185 84.174 45.8476 84.174C47.229 84.174 47.9196 83.5253 47.9196 82.228C47.9196 81.7053 47.7656 81.332 47.4576 81.108C47.159 80.8747 46.5943 80.6787 45.7636 80.52C44.6716 80.2867 43.897 79.988 43.4396 79.624C42.9823 79.2507 42.7536 78.63 42.7536 77.762C42.7536 76.026 43.7943 75.158 45.8756 75.158C46.557 75.158 47.3736 75.228 48.3256 75.368L48.8016 75.438L48.7036 76.348C47.4063 76.1893 46.487 76.11 45.9456 76.11ZM61.0515 76.278V75.312H68.0515V76.278H65.0975V85H64.0335V76.278H61.0515ZM79.1184 85L81.7784 75.312H84.1304L86.7904 85H85.7264L85.0264 82.508H80.8824L80.1824 85H79.1184ZM82.5904 76.236L81.1204 81.542H84.7884L83.3184 76.236H82.5904ZM103.184 81.01V80.044H105.858V84.804C104.682 85.028 103.632 85.14 102.708 85.14C101.299 85.14 100.319 84.734 99.7682 83.922C99.2269 83.11 98.9562 81.8593 98.9562 80.17C98.9562 78.4713 99.2269 77.216 99.7682 76.404C100.319 75.5827 101.29 75.172 102.68 75.172C103.548 75.172 104.449 75.2653 105.382 75.452L105.858 75.536L105.816 76.432C104.659 76.236 103.656 76.138 102.806 76.138C101.733 76.138 101.01 76.4507 100.636 77.076C100.263 77.692 100.076 78.7233 100.076 80.17C100.076 81.6073 100.263 82.6387 100.636 83.264C101.01 83.88 101.728 84.188 102.792 84.188C103.446 84.188 104.113 84.1227 104.794 83.992V81.01H103.184ZM119.175 85V75.312H120.253V85H119.175ZM133.82 85V75.312H135.836L139.546 84.048H139.84V75.312H140.904V85H138.93L135.164 76.264H134.898V85H133.82ZM158.317 81.01V80.044H160.991V84.804C159.815 85.028 158.765 85.14 157.841 85.14C156.432 85.14 155.452 84.734 154.901 83.922C154.36 83.11 154.089 81.8593 154.089 80.17C154.089 78.4713 154.36 77.216 154.901 76.404C155.452 75.5827 156.423 75.172 157.813 75.172C158.681 75.172 159.582 75.2653 160.515 75.452L160.991 75.536L160.949 76.432C159.792 76.236 158.789 76.138 157.939 76.138C156.866 76.138 156.143 76.4507 155.769 77.076C155.396 77.692 155.209 78.7233 155.209 80.17C155.209 81.6073 155.396 82.6387 155.769 83.264C156.143 83.88 156.861 84.188 157.925 84.188C158.579 84.188 159.246 84.1227 159.927 83.992V81.01H158.317Z" fill="white"/>
<defs>
<linearGradient id="paint0_linear_5337_8729" x1="182.815" y1="12.338" x2="182.815" y2="63.0709" gradientUnits="userSpaceOnUse">
<stop stop-color="#EF5525"/>
<stop offset="1" stop-color="#EF9D25"/>
</linearGradient>
</defs>
</svg>
