<svg width="24" height="24" viewBox="0 0 24 24" fill="none" xmlns="http://www.w3.org/2000/svg">
<path d="M20 9H20.75V8.25H20V9ZM20 15V15.75H20.75V15H20ZM8 4.75H16V3.25H8V4.75ZM19.25 8V16H20.75V8H19.25ZM16 19.25H8V20.75H16V19.25ZM4.75 16V8H3.25V16H4.75ZM8 19.25C6.20507 19.25 4.75 17.7949 4.75 16H3.25C3.25 18.6234 5.37665 20.75 8 20.75V19.25ZM19.25 16C19.25 17.7949 17.7949 19.25 16 19.25V20.75C18.6234 20.75 20.75 18.6234 20.75 16H19.25ZM16 4.75C17.7949 4.75 19.25 6.20507 19.25 8H20.75C20.75 5.37665 18.6234 3.25 16 3.25V4.75ZM8 3.25C5.37665 3.25 3.25 5.37665 3.25 8H4.75C4.75 6.20507 6.20507 4.75 8 4.75V3.25ZM14 9.75H20V8.25H14V9.75ZM19.25 9V15H20.75V9H19.25ZM20 14.25H14V15.75H20V14.25ZM12.75 13V11H11.25V13H12.75ZM14 14.25C13.3096 14.25 12.75 13.6904 12.75 13H11.25C11.25 14.5188 12.4812 15.75 14 15.75V14.25ZM14 8.25C12.4812 8.25 11.25 9.48122 11.25 11H12.75C12.75 10.3096 13.3096 9.75 14 9.75V8.25ZM15 11.75C15.1381 11.75 15.25 11.8619 15.25 12H13.75C13.75 12.6904 14.3096 13.25 15 13.25V11.75ZM14.75 12C14.75 11.8619 14.8619 11.75 15 11.75V13.25C15.6904 13.25 16.25 12.6904 16.25 12H14.75ZM15 12.25C14.8619 12.25 14.75 12.1381 14.75 12H16.25C16.25 11.3096 15.6904 10.75 15 10.75V12.25ZM15 10.75C14.3096 10.75 13.75 11.3096 13.75 12H15.25C15.25 12.1381 15.1381 12.25 15 12.25V10.75Z" fill="white" fill-opacity="0.35"/>
</svg>
