<svg width="16" height="11" viewBox="0 0 16 11" fill="none" xmlns="http://www.w3.org/2000/svg">
<path d="M3.45544 2.74996C5.89465 0.375012 9.85422 0.375012 12.2934 2.74996L12.5871 3.03798C12.7102 3.15602 12.7102 3.3496 12.5871 3.46764L11.583 4.44501C11.5214 4.50639 11.4219 4.50639 11.3604 4.44501L10.9578 4.05312C9.25271 2.39585 6.49617 2.39585 4.79109 4.05312L4.36008 4.47334C4.29851 4.53472 4.19905 4.53472 4.13748 4.47334L3.13337 3.49597C3.01023 3.37793 3.01023 3.18435 3.13337 3.06631L3.45544 2.74996ZM14.3727 4.7708L15.2678 5.63957C15.391 5.75761 15.391 5.95119 15.2678 6.06923L11.2372 9.99286C11.1141 10.1109 10.9152 10.1109 10.7968 9.99286L7.93601 7.20713C7.90759 7.1788 7.85549 7.1788 7.82707 7.20713L4.96633 9.99286C4.84319 10.1109 4.64426 10.1109 4.52585 9.99286L0.48103 6.06923C0.357886 5.95119 0.357886 5.75761 0.48103 5.63957L1.3762 4.7708C1.49934 4.65276 1.69827 4.65276 1.81668 4.7708L4.67742 7.55653C4.70583 7.58486 4.75793 7.58486 4.78635 7.55653L7.64709 4.7708C7.77024 4.65276 7.96916 4.65276 8.08757 4.7708L10.9483 7.55653C10.9767 7.58486 11.0288 7.58486 11.0573 7.55653L13.918 4.7708C14.0506 4.65276 14.2495 4.65276 14.3727 4.7708Z" fill="white"/>
</svg>
