<svg width="30" height="30" viewBox="0 0 30 30" fill="none" xmlns="http://www.w3.org/2000/svg">
<g opacity="0.5">
<path opacity="0.5" d="M15.3893 4.93359C15.2234 4.93359 15.0629 4.93895 14.9023 4.9443C21.6937 5.17977 27.131 10.6278 27.131 17.3228C27.131 24.0178 21.699 29.4658 14.9023 29.7013C15.0629 29.7013 15.2234 29.712 15.3893 29.712C22.9138 29.712 29.0094 24.1676 29.0094 17.3228C29.0094 10.478 22.9138 4.93359 15.3893 4.93359Z" fill="white"/>
<path d="M18.4114 5.45643C18.7325 4.07569 19.2035 0.281336 14.6171 0.570328C10.3143 0.843265 10.6729 3.87233 11.0635 5.25842C5.34257 6.63381 1.10938 11.4825 1.10938 17.2569C1.10938 24.1018 7.04977 29.6461 14.3816 29.6461C21.7134 29.6461 27.6538 24.1018 27.6538 17.2569C27.6538 11.7286 23.7738 7.04589 18.4168 5.45108L18.4114 5.45643ZM14.3977 2.10092C16.6293 1.99923 16.7952 4.01147 16.7096 5.16209C15.8961 4.97478 15.0559 4.8731 14.1889 4.8731C13.6003 4.8731 13.0223 4.92126 12.4603 5.00689C12.2623 3.89909 12.3051 2.19189 14.3977 2.10092ZM23.4153 18.7501C22.5162 23.6201 17.4535 26.7669 12.1018 25.7769C6.75007 24.7921 3.13767 20.0452 4.03676 15.1751C4.93584 10.3051 9.99856 7.15828 15.3503 8.14834C20.702 9.13305 24.3144 13.88 23.4153 18.7501Z" fill="white"/>
<path d="M12.6371 14.7452L18.2189 11.7269C18.6417 11.4967 19.1287 11.9035 18.936 12.3155L16.3618 17.8706C16.2227 18.165 15.816 18.2506 15.5591 18.0312L12.5514 15.4945C12.2999 15.2804 12.3427 14.9004 12.6371 14.7399V14.7452Z" fill="white"/>
<path d="M14.7276 19.4516L9.99134 21.999C9.63277 22.1917 9.21534 21.8491 9.38124 21.5013L11.5647 16.8078C11.6825 16.5563 12.0303 16.4867 12.2498 16.6687L14.8025 18.8094C15.0166 18.9913 14.9791 19.3124 14.7276 19.4462V19.4516Z" fill="white"/>
<path opacity="0.5" d="M14.7631 10.0316L16.0529 8.0408L12.7188 7.44141L14.2493 10.0263C14.3617 10.2189 14.64 10.2243 14.7631 10.037V10.0316Z" fill="white"/>
<path opacity="0.5" d="M21.6811 17.1858L23.7576 18.3311L24.1215 14.9648L21.649 16.6774C21.467 16.8058 21.4777 17.0841 21.6757 17.1912L21.6811 17.1858Z" fill="white"/>
<path opacity="0.5" d="M6.14873 16.3199L4.01876 15.2656L3.80469 18.6479L6.1969 16.8283C6.37351 16.6945 6.34675 16.4162 6.14873 16.3146V16.3199Z" fill="white"/>
<path opacity="0.5" d="M13.3897 24.0089L12.0625 25.9784L15.3859 26.642L13.9035 24.0303C13.7911 23.8377 13.5182 23.827 13.3897 24.0089Z" fill="white"/>
</g>
</svg>
