<svg width="30" height="30" viewBox="0 0 30 30" fill="none" xmlns="http://www.w3.org/2000/svg">
<path opacity="0.5" d="M15.3893 4.93359C15.2234 4.93359 15.0629 4.93895 14.9023 4.9443C21.6937 5.17977 27.131 10.6278 27.131 17.3228C27.131 24.0178 21.699 29.4658 14.9023 29.7013C15.0629 29.7013 15.2234 29.712 15.3893 29.712C22.9138 29.712 29.0094 24.1676 29.0094 17.3228C29.0094 10.478 22.9138 4.93359 15.3893 4.93359Z" fill="white"/>
<path d="M18.4134 5.45643C18.7345 4.07569 19.2054 0.281336 14.619 0.570328C10.3163 0.843265 10.6748 3.87233 11.0655 5.25842C5.34453 6.63381 1.11133 11.4825 1.11133 17.2569C1.11133 24.1018 7.05172 29.6461 14.3836 29.6461C21.7154 29.6461 27.6558 24.1018 27.6558 17.2569C27.6558 11.7286 23.7758 7.04589 18.4187 5.45108L18.4134 5.45643ZM14.3996 2.10092C16.6313 1.99923 16.7972 4.01147 16.7115 5.16209C15.8981 4.97478 15.0579 4.8731 14.1909 4.8731C13.6022 4.8731 13.0242 4.92126 12.4623 5.00689C12.2643 3.89909 12.3071 2.19189 14.3996 2.10092ZM23.4172 18.7501C22.5181 23.6201 17.4554 26.7669 12.1037 25.7769C6.75202 24.7921 3.13962 20.0452 4.03871 15.1751C4.9378 10.3051 10.0005 7.15828 15.3522 8.14834C20.7039 9.13305 24.3163 13.88 23.4172 18.7501Z" fill="white"/>
<path d="M12.639 14.7452L18.2208 11.7269C18.6436 11.4967 19.1306 11.9035 18.938 12.3155L16.3638 17.8706C16.2247 18.165 15.8179 18.2506 15.561 18.0312L12.5534 15.4945C12.3019 15.2804 12.3447 14.9004 12.639 14.7399V14.7452Z" fill="white"/>
<path d="M14.7315 19.4516L9.99524 21.999C9.63668 22.1917 9.21925 21.8491 9.38515 21.5013L11.5686 16.8078C11.6864 16.5563 12.0342 16.4867 12.2537 16.6687L14.8064 18.8094C15.0205 18.9913 14.983 19.3124 14.7315 19.4462V19.4516Z" fill="white"/>
<path opacity="0.5" d="M14.7631 10.0316L16.0529 8.0408L12.7188 7.44141L14.2493 10.0263C14.3617 10.2189 14.64 10.2243 14.7631 10.037V10.0316Z" fill="white"/>
<path opacity="0.5" d="M21.683 17.1858L23.7595 18.3311L24.1234 14.9648L21.6509 16.6774C21.469 16.8058 21.4797 17.0841 21.6777 17.1912L21.683 17.1858Z" fill="white"/>
<path opacity="0.5" d="M6.15264 16.3199L4.02266 15.2656L3.80859 18.6479L6.20081 16.8283C6.37741 16.6945 6.35065 16.4162 6.15264 16.3146V16.3199Z" fill="white"/>
<path opacity="0.5" d="M13.3936 24.0089L12.0664 25.9784L15.3898 26.642L13.9074 24.0303C13.795 23.8377 13.5221 23.827 13.3936 24.0089Z" fill="white"/>
</svg>
