<svg width="30" height="30" viewBox="0 0 30 30" fill="none" xmlns="http://www.w3.org/2000/svg">
<g opacity="0.5">
<path d="M27.9339 2.70377C27.8996 2.41568 27.6742 2.20667 27.4243 2.22362L8.16239 3.5511C7.76059 3.57934 7.56459 4.11598 7.82429 4.47186C11.0975 8.974 6.36409 21.232 5.74179 21.1925L1.51309 20.6784C1.17499 20.6615 0.920194 21.0286 1.02309 21.4015C1.41019 22.8306 2.51759 25.8245 5.12929 26.3555C8.58869 27.0616 14.9097 27.779 19.2119 27.779C23.5141 27.779 25.3516 24.723 27.1597 19.5769C29.1295 13.9563 28.2034 4.94072 27.9339 2.70377ZM23.813 19.2944L10.2057 18.3454C10.3723 17.9444 10.5536 17.4699 10.7251 16.9219L24.2099 16.9445L23.813 19.2944ZM24.2344 14.6906L11.3327 14.4477C11.3719 14.2161 11.4111 13.9732 11.4454 13.7247C11.4895 13.414 11.5238 13.0977 11.5532 12.787L24.4549 12.4819C24.3912 13.2106 24.3177 13.9506 24.2295 14.685L24.2344 14.6906ZM24.6362 10.245L11.6855 10.2676C11.6855 9.75919 11.6855 9.27903 11.6659 8.83277L24.7734 7.95155C24.7391 8.60682 24.695 9.39201 24.6362 10.245Z" fill="white"/>
<path d="M5.74123 21.1916C5.74123 21.1916 6.02543 20.5702 6.32433 20.2539L17.6874 21.9203C17.6874 21.9203 18.3979 26.2869 20.6813 26.558C20.6813 26.558 17.2709 27.0269 16.8593 22.8298L5.73633 21.1916H5.74123Z" fill="#1B1D2C" fill-opacity="0.6"/>
</g>
</svg>
