<svg width="31" height="30" viewBox="0 0 31 30" fill="none" xmlns="http://www.w3.org/2000/svg">
<path d="M24.8065 1.11873C23.9908 0.871773 14.245 5.58458 13.251 6.82967C12.4893 7.78663 11.0901 13.9349 10.4742 16.7646C10.4472 16.8881 10.5228 17.0013 10.6525 17.0373C11.3926 17.2586 11.8302 17.346 12.4514 17.7216C12.9971 16.353 14.9743 12.5663 16.5086 10.0298C18.0968 7.41619 22.678 3.19731 24.0286 1.97794C24.2663 1.76186 24.4121 1.63838 24.4121 1.63838C24.4121 1.63838 24.2717 1.76186 24.0286 1.97794C22.8563 3.0481 19.2097 6.55184 17.146 10.5649C15.131 14.4803 13.8236 17.4541 13.3968 18.4368C14.1208 18.9615 14.4503 19.368 13.9317 19.1982C14.3098 19.4606 14.6502 19.7642 14.9527 20.0831C15.8927 19.5018 18.0644 18.1281 19.9823 16.7543C20.0579 16.6977 20.1011 16.6103 20.0903 16.5177L19.966 15.5504C19.9336 15.2726 20.2145 15.0616 20.4901 15.1594L21.4301 15.499C21.5219 15.5298 21.63 15.5144 21.7056 15.4527C22.597 14.7272 23.256 14.0841 23.4127 13.6571C24.0286 11.9901 25.6223 1.36055 24.8065 1.11873Z" fill="white"/>
<path d="M24.8065 1.11873C23.9908 0.871773 14.245 5.58458 13.251 6.82967C12.4893 7.78663 11.0901 13.9349 10.4742 16.7646C10.4472 16.8881 10.5228 17.0013 10.6525 17.0373C11.3926 17.2586 11.8302 17.346 12.4514 17.7216C12.9971 16.353 14.9743 12.5663 16.5086 10.0298C18.0968 7.41619 22.678 3.19731 24.0286 1.97794C24.2663 1.76186 24.4121 1.63838 24.4121 1.63838C24.4121 1.63838 24.2717 1.76186 24.0286 1.97794C22.8563 3.0481 19.2097 6.55184 17.146 10.5649C15.131 14.4803 13.8236 17.4541 13.3968 18.4368C14.1208 18.9615 14.4503 19.368 13.9317 19.1982C14.3098 19.4606 14.6502 19.7642 14.9527 20.0831C15.8927 19.5018 18.0644 18.1281 19.9823 16.7543C20.0579 16.6977 20.1011 16.6103 20.0903 16.5177L19.966 15.5504C19.9336 15.2726 20.2145 15.0616 20.4901 15.1594L21.4301 15.499C21.5219 15.5298 21.63 15.5144 21.7056 15.4527C22.597 14.7272 23.256 14.0841 23.4127 13.6571C24.0286 11.9901 25.6223 1.36055 24.8065 1.11873Z" fill="white"/>
<path opacity="0.5" d="M24.9675 1.44398C24.8649 1.41825 24.6326 1.4697 24.303 1.58804C24.1788 1.92761 24.0491 2.28776 23.9141 2.6582C24.0275 2.54501 24.1301 2.44211 24.222 2.35464C24.4489 2.12312 24.5893 1.98935 24.5893 1.98935C24.5893 1.98935 24.4543 2.12312 24.222 2.35464C24.1355 2.44211 24.0275 2.55015 23.9141 2.66849C22.893 5.46221 21.5965 8.90421 21.5965 8.90421L14.4492 19.7807C15.0165 20.2026 15.2326 20.501 14.768 20.3621C15.1569 20.6193 14.8328 20.8457 15.1515 21.1647C16.0753 20.5319 18.8845 19.117 20.7591 17.6404C20.8347 17.5787 20.8726 17.486 20.8563 17.3934L20.6943 16.4107C20.6457 16.1278 20.9266 15.9014 21.2021 15.994L22.1583 16.3078C22.2501 16.3387 22.3582 16.3181 22.4338 16.2512C23.2982 15.4795 23.9357 14.7901 24.0761 14.3527C24.6326 12.6189 25.8049 1.67036 24.9729 1.44912L24.9675 1.44398Z" fill="white"/>
<path d="M6.87501 18.2044C6.98306 17.8699 7.3126 17.6487 7.67996 17.6693C8.89547 17.7259 11.6182 17.942 13.2497 18.7292C14.8812 19.5163 15.9833 21.2502 16.4209 22.0477C16.5559 22.2946 16.5397 22.593 16.3777 22.8297L15.335 24.3269C15.1189 24.6356 14.7084 24.7539 14.3518 24.6099L6.54547 21.5177C6.15651 21.3634 5.95662 20.9569 6.08628 20.5762L6.87501 18.2044Z" fill="white"/>
<path opacity="0.5" d="M10.2352 25.7255C10.2352 25.7255 7.62053 26.168 5.85938 24.9023C5.85938 24.9023 6.07006 27.7269 11.0996 27.5932L10.2352 25.7255Z" fill="white"/>
<path d="M5.8719 24.906C7.63305 26.1717 10.2478 25.7292 10.2478 25.7292L11.1067 27.5814L10.2424 25.7086L12.3222 23.522L9.52386 21.2891L7.91397 24.479L5.8719 24.8854C5.8719 24.8854 5.1588 27.5402 7.07661 28.5435C9.14029 29.6291 10.9231 27.782 11.0959 27.5917C6.08259 27.7254 5.8719 24.906 5.8719 24.906Z" fill="white"/>
<path opacity="0.5" d="M11.524 21.0915C9.74122 20.5204 5.84616 20.1757 6.06766 20.968C6.13789 21.2149 5.80294 21.1789 7.25616 21.8015C7.82881 22.0484 8.31501 22.2388 8.84984 22.4395H8.87145C9.2226 22.2079 10.0275 21.7603 10.9405 21.9044C11.8427 22.0484 12.0912 23.2318 12.1615 23.7257C14.5007 24.6878 14.452 24.8062 15.0895 24.5438C15.7378 24.2762 13.3067 21.6574 11.524 21.0863V21.0915Z" fill="#1B1D2C" fill-opacity="0.6"/>
</svg>
