<svg width="30" height="30" viewBox="0 0 30 30" fill="none" xmlns="http://www.w3.org/2000/svg">
<g opacity="0.5">
<path opacity="0.5" d="M9.04958 12.7519C9.31491 12.1256 9.71031 11.5736 10.1994 11.1172L8.01947 9.03125C7.55644 9.43463 7.14023 9.88578 6.78125 10.3794L9.05478 12.7519H9.04958Z" fill="white"/>
<path opacity="0.5" d="M14.1604 9.92852L14.1448 6.95623C13.9783 6.94561 13.817 6.92969 13.6453 6.92969C13.0835 6.92969 12.5424 6.98276 12.0117 7.08361V10.0612C12.4435 9.92852 12.9014 9.85421 13.38 9.85421C13.6453 9.85421 13.9055 9.88075 14.1604 9.92321V9.92852Z" fill="white"/>
<path opacity="0.5" d="M8.66549 14.6628C8.66549 14.3921 8.69151 14.1321 8.73313 13.872L5.35144 13.8242C5.28901 14.2276 5.24219 14.6416 5.24219 15.0662C5.24219 15.2838 5.2578 15.4961 5.2734 15.7084L8.84759 15.9844C8.72793 15.5651 8.66549 15.1246 8.66549 14.6628V14.6628Z" fill="white"/>
<path opacity="0.5" d="M17.0565 17.6719C16.557 18.3088 15.9015 18.8077 15.1523 19.1209L17.9513 22.0454C18.7005 21.6102 19.3716 21.0688 19.9491 20.4372L17.0565 17.6719V17.6719Z" fill="white"/>
<path opacity="0.5" d="M23.0135 7.91202L24.6419 6.42057C24.9801 6.12334 25.0061 5.60319 24.7096 5.2635L24.0592 4.53104C23.7627 4.19666 23.2528 4.17543 22.9251 4.48327L21.0938 6.22418C21.7961 6.7178 22.436 7.28041 23.0083 7.91202H23.0135Z" fill="white"/>
<path opacity="0.5" d="M14.2384 23.1682L14.2176 19.3891C13.9471 19.4369 13.6661 19.4687 13.38 19.4687C12.9066 19.4687 12.4435 19.3944 12.0117 19.2617V23.0408C12.5424 23.1416 13.0887 23.1947 13.6453 23.1947C13.843 23.1947 14.0407 23.1788 14.2384 23.1682V23.1682Z" fill="white"/>
<path opacity="0.5" d="M9.45089 17.3203L6.83398 19.8149C7.2606 20.3881 7.75484 20.9083 8.31672 21.3541L11.0585 18.8489C10.4134 18.4774 9.86189 17.9519 9.45089 17.3203V17.3203Z" fill="white"/>
<path opacity="0.5" d="M18.092 14.6607C18.092 15.3772 17.9359 16.0513 17.6602 16.6616L21.8014 16.9801C21.9575 16.3644 22.0459 15.7275 22.0459 15.064C22.0459 14.7243 22.0199 14.3953 21.9783 14.0662L18.0451 14.0078C18.0712 14.2201 18.092 14.4377 18.092 14.6607V14.6607Z" fill="white"/>
<path opacity="0.5" d="M12.0117 26.3633V28.5288C12.0117 28.9693 12.3447 29.3303 12.7661 29.3515L13.4424 29.3833C13.9003 29.4046 14.28 29.0171 14.2696 28.5394L14.2592 26.5809C13.4893 26.5809 12.7401 26.5013 12.0117 26.3633Z" fill="white"/>
<path opacity="0.5" d="M4.77437 21.7734L3.10434 23.3657C2.78698 23.6683 2.6309 23.9124 3.05751 24.5016C3.67662 25.3508 4.25411 25.0589 4.58187 24.767L6.14265 23.3392C5.638 22.8562 5.18017 22.336 4.77437 21.7734Z" fill="white"/>
<path opacity="0.5" d="M22.7118 23.0756C22.0771 23.7232 21.3592 24.3017 20.584 24.7847L22.6338 26.9237C22.9512 27.2581 23.4818 27.2474 23.7888 26.9078L24.6108 25.9948C24.9073 25.6658 24.8865 25.1562 24.5692 24.8484L22.7118 23.0703V23.0756Z" fill="white"/>
<path opacity="0.5" d="M28.1133 14.1568L25.8397 14.125C25.8813 14.5231 25.9074 14.9265 25.9074 15.3351C25.9074 15.9986 25.8449 16.6514 25.7305 17.2831L28.0456 17.4635C28.4982 17.5007 28.8884 17.1238 28.8884 16.6461V14.9795C28.8884 14.5337 28.5451 14.1675 28.1133 14.1622V14.1568Z" fill="white"/>
<path opacity="0.5" d="M18.6594 8.54688L16.2402 10.8504C16.875 11.3493 17.3848 12.0022 17.7074 12.7612L20.4283 10.2772C19.9289 9.61902 19.3358 9.03518 18.6594 8.54688V8.54688Z" fill="white"/>
<path opacity="0.5" d="M14.1279 4.09398L14.1175 1.8913C14.1071 1.44546 13.7845 1.08984 13.1446 1.08984C12.5047 1.08984 12.0156 1.45607 12.0156 1.91253V4.30629C12.7024 4.17359 13.4099 4.10459 14.1279 4.09398V4.09398Z" fill="white"/>
<path opacity="0.5" d="M5.02919 8.55368C5.38297 8.10253 5.77316 7.67791 6.18937 7.28515L4.4465 5.61854C4.12394 5.3107 3.61409 5.32662 3.31234 5.661C3.02619 5.97946 3.0314 6.47307 3.32794 6.78092L5.02919 8.55368V8.55368Z" fill="white"/>
<path opacity="0.5" d="M2.67735 15.3368C2.67735 14.8113 2.71897 14.2964 2.7918 13.7869L1.35068 13.7657C0.913667 13.7604 0.554688 14.1266 0.554688 14.5831C0.554688 15.013 0.872046 15.3686 1.28305 15.4004L2.68255 15.5066C2.68255 15.4482 2.68255 15.3898 2.68255 15.3314L2.67735 15.3368Z" fill="white"/>
<path opacity="0.5" d="M28.1128 14.156L16.3706 13.9861L24.6427 6.42268C24.9809 6.12545 25.0069 5.60529 24.7103 5.2656L24.06 4.53314C23.7635 4.19875 23.2536 4.17752 22.9258 4.48537L14.1751 12.8238L14.1126 1.89521C14.1022 1.44937 13.7797 1.09375 13.1398 1.09375C12.4998 1.09375 12.0108 1.45998 12.0108 1.91644V12.845L4.44623 5.61591C4.12367 5.30806 3.61381 5.32399 3.31206 5.65837C3.02592 5.97683 3.03112 6.47045 3.32767 6.77829L10.1431 13.8959L1.34548 13.7685C0.913667 13.7579 0.554688 14.1241 0.554688 14.5806C0.554688 15.0105 0.872046 15.3661 1.28305 15.398L10.7049 16.1252L3.10396 23.3649C2.7866 23.6674 2.63052 23.9115 3.05714 24.5007C3.67624 25.3499 4.25373 25.058 4.5815 24.7661L12.016 17.9669V28.5239C12.016 28.9645 12.349 29.3254 12.7704 29.3466L13.4467 29.3785C13.9045 29.3997 14.2843 29.0122 14.2739 28.5346L14.2115 18.1262L22.6345 26.921C22.9519 27.2554 23.4825 27.2448 23.7895 26.9051L24.6115 25.9922C24.908 25.6631 24.8872 25.1535 24.5699 24.8457L15.8555 16.5179L28.0452 17.4574C28.4978 17.4945 28.888 17.1177 28.888 16.64V14.9734C28.888 14.5275 28.5446 14.1613 28.1128 14.156V14.156Z" fill="white"/>
<path d="M13.9726 4.65234C8.0937 4.65234 3.32812 9.29698 3.32812 15.0266C3.32812 20.7562 8.0937 25.4009 13.9726 25.4009C19.8516 25.4009 24.6171 20.7562 24.6171 15.0266C24.6171 9.29698 19.8464 4.65234 13.9726 4.65234ZM13.3795 22.2849C9.12902 22.2849 5.6797 18.923 5.6797 14.7807C5.6797 10.6385 9.12902 7.27664 13.3795 7.27664C17.6301 7.27664 21.0794 10.6385 21.0794 14.7807C21.0794 18.923 17.6301 22.2849 13.3795 22.2849V22.2849Z" fill="white"/>
<path d="M13.1397 18.6461C15.2544 18.6461 16.9688 16.8112 16.9688 14.5477C16.9688 12.2842 15.2544 10.4492 13.1397 10.4492C11.0249 10.4492 9.31055 12.2842 9.31055 14.5477C9.31055 16.8112 11.0249 18.6461 13.1397 18.6461Z" fill="white"/>
</g>
</svg>
